<svg width="421" height="184" viewBox="0 0 421 184" fill="none" xmlns="http://www.w3.org/2000/svg">
<path d="M52.0757 183.023C80.3825 183.023 103.33 169.772 103.33 153.426C103.33 137.081 80.3825 123.83 52.0757 123.83C23.7689 123.83 0.821716 137.081 0.821716 153.426C0.821716 169.772 23.7689 183.023 52.0757 183.023Z" fill="#E0E0E0"/>
<path d="M211.72 105.63L318.488 167.349C318.705 167.463 318.947 167.522 319.193 167.522C319.439 167.522 319.681 167.463 319.898 167.349L387.204 128.496C387.591 128.265 387.591 127.905 387.204 127.684L280.4 65.9563C280.182 65.8468 279.942 65.7899 279.699 65.7899C279.456 65.7899 279.216 65.8468 278.998 65.9563L211.692 104.819C211.342 105.04 211.342 105.399 211.72 105.63Z" fill="#E0E0E0"/>
<path d="M315.076 35.0693L145.142 133.179C143.905 133.807 142.537 134.134 141.15 134.134C139.763 134.134 138.395 133.807 137.158 133.179L87.167 104.311C84.9634 103.039 84.9634 100.974 87.167 99.7015L257.092 1.6007C258.329 0.972999 259.697 0.645874 261.084 0.645874C262.471 0.645874 263.839 0.972999 265.076 1.6007L315.076 30.4593C317.28 31.7316 317.28 33.7969 315.076 35.0693Z" fill="#E0E0E0"/>
<path d="M350.352 131.51L419.502 92.2794C420.894 91.4865 420.903 90.1957 419.502 89.3843L352.334 50.0057C351.558 49.6121 350.701 49.4069 349.831 49.4069C348.961 49.4069 348.103 49.6121 347.328 50.0057L278.196 89.246C276.813 90.0389 276.804 91.3297 278.196 92.1411L345.364 131.52C346.138 131.909 346.993 132.111 347.859 132.109C348.725 132.108 349.579 131.903 350.352 131.51Z" fill="#E0E0E0"/>
</svg>
