<svg width="218" height="252" viewBox="0 0 218 252" fill="none" xmlns="http://www.w3.org/2000/svg">
<path d="M170.357 126.362L173.621 124.518C173.621 124.518 190.954 67.9807 192.568 64.7076C194.181 61.4345 191.268 59.7565 188.142 61.5544L25.4462 155.322C22.3299 157.166 21.3433 159.6 18.5681 164.994C15.7929 170.387 0.128113 222.342 0.128113 222.342C0.0168879 222.933 0.0919702 223.544 0.343011 224.091C0.594052 224.638 1.00865 225.093 1.52954 225.394L38.5663 246.849L208.758 148.628L170.357 126.362Z" fill="#7F3A6A"/>
<path opacity="0.35" d="M170.357 126.362L173.621 124.518C173.621 124.518 190.954 67.9807 192.568 64.7076C194.181 61.4345 191.268 59.7565 188.142 61.5544L25.4462 155.322C22.3299 157.166 21.3433 159.6 18.5681 164.994C15.7929 170.387 0.128113 222.342 0.128113 222.342C0.0168879 222.933 0.0919702 223.544 0.343011 224.091C0.594052 224.638 1.00865 225.093 1.52954 225.394L38.5663 246.849L208.758 148.628L170.357 126.362Z" fill="white"/>
<path d="M20.615 166.303C18.5036 170.387 2.17496 223.467 2.17496 223.467L175.686 123.282C175.686 123.282 192.891 69.336 194.615 65.9615C196.339 62.587 193.306 61.0103 190.189 62.8175L27.4931 156.631C24.3675 158.429 22.754 162.209 20.615 166.303Z" fill="#7F3A6A"/>
<path opacity="0.15" d="M20.615 166.303C18.5036 170.387 2.17496 223.467 2.17496 223.467L175.686 123.282C175.686 123.282 192.891 69.336 194.615 65.9615C196.339 62.587 193.306 61.0103 190.189 62.8175L27.4931 156.631C24.3675 158.429 22.754 162.209 20.615 166.303Z" fill="black"/>
<path d="M172.385 125.2L2.20261 223.448L39.894 245.208L210.068 146.959L172.385 125.2Z" fill="#7F3A6A"/>
<path d="M184.233 1.29242L20.2738 95.779C16.678 97.8535 15.5624 101.21 16.1894 105.635L35.5975 241.805C36.2244 246.231 39.7557 248.822 43.3515 246.747L205.854 152.961C209.45 150.887 211.847 145.585 211.211 141.187L191.849 5.55206C191.249 1.10802 187.792 -0.735985 184.233 1.29242Z" fill="#7F3A6A"/>
<path opacity="0.35" d="M184.233 1.29242L20.2738 95.779C16.678 97.8535 15.5624 101.21 16.1894 105.635L35.5975 241.805C36.2244 246.231 39.7557 248.822 43.3515 246.747L205.854 152.961C209.45 150.887 211.847 145.585 211.211 141.187L191.849 5.55206C191.249 1.10802 187.792 -0.735985 184.233 1.29242Z" fill="white"/>
<path d="M195.279 4.17832C194.549 3.92859 193.772 3.84862 193.006 3.94448C192.241 4.04034 191.508 4.30952 190.862 4.73151L28.3505 98.5173C26.5292 99.66 25.0858 101.315 24.2015 103.275L18.9646 101.053C20.1171 98.5358 22.127 97.6138 23.8512 96.6088L186.344 2.82297C187.018 2.3782 187.789 2.10311 188.592 2.02122C189.394 1.93933 190.205 2.05308 190.954 2.35275L195.279 4.17832Z" fill="#455A64"/>
<path d="M40.8621 248.112C39.2578 247.457 38.0961 245.779 37.7088 243.345L18.4851 108.383C18.0887 105.617 17.9596 103.137 18.9646 101.053L24.2107 103.275C24.0724 103.561 23.9434 103.856 23.8143 104.197C23.6852 104.538 23.6391 104.686 23.5653 104.925C23.5574 104.965 23.5574 105.006 23.5653 105.045C23.4642 105.322 23.3811 105.606 23.3164 105.893C23.2426 106.188 23.1689 106.483 23.1228 106.815C23.0791 107.038 23.0483 107.262 23.0306 107.488C22.9015 108.443 22.9015 109.411 23.0306 110.365L42.3926 246C42.7522 248.462 43.9692 250.149 45.6011 250.804L40.8621 248.112Z" fill="#263238"/>
<path d="M190.853 4.74073L26.903 99.2273C23.3072 101.302 22.1823 104.658 22.8185 109.083L42.3188 245.936C42.955 250.362 46.3848 252.27 49.9806 250.196L212.474 156.41C216.07 154.335 218.476 149.034 217.84 144.636L198.478 8.99115C197.879 4.56555 194.449 2.65701 190.853 4.74073Z" fill="#37474F"/>
<path d="M202.544 155.792L57.4489 239.491C55.6049 240.57 53.807 239.583 53.4843 237.288L34.3528 103.054C34.2109 101.88 34.3938 100.691 34.8815 99.6147C35.3693 98.5384 36.1431 97.6166 37.1188 96.95L182.168 13.2416C184.012 12.1628 185.81 13.1586 186.132 15.4544L205.31 149.688C205.452 150.861 205.269 152.051 204.781 153.127C204.293 154.204 203.52 155.125 202.544 155.792Z" fill="#263238"/>
<path d="M34.3528 103.054L53.4843 237.288C53.4798 237.377 53.4798 237.466 53.4843 237.555L198.579 153.847C199.555 153.18 200.329 152.258 200.817 151.182C201.304 150.106 201.487 148.916 201.345 147.743L182.177 13.2416L37.128 96.9961C36.1582 97.6578 35.3872 98.5716 34.8982 99.639C34.4092 100.706 34.2206 101.887 34.3528 103.054Z" fill="#FAFAFA"/>
<path d="M41.7472 186.172C41.8166 186.763 41.7226 187.362 41.4755 187.903C41.2284 188.444 40.8377 188.907 40.3457 189.242C39.4237 189.777 38.5017 189.288 38.3542 188.127C38.2849 187.537 38.3779 186.939 38.6232 186.398C38.8686 185.857 39.2569 185.393 39.7464 185.056C40.6869 184.522 41.5812 185.019 41.7472 186.172Z" fill="#263238"/>
<path d="M35.4038 154.741C35.0204 155 34.716 155.361 34.524 155.782C34.3321 156.203 34.26 156.669 34.3158 157.129L37.4875 179.257C37.6166 180.179 38.3081 180.538 39.0365 180.114C39.4199 179.855 39.7243 179.495 39.9163 179.073C40.1082 178.652 40.1803 178.186 40.1244 177.726L36.9528 155.598C36.8237 154.704 36.1322 154.317 35.4038 154.741Z" fill="#263238"/>
<path d="M50.414 164.892L51.5388 165.372C51.8353 165.484 52.1515 165.536 52.4684 165.523C52.7853 165.51 53.0963 165.434 53.3828 165.298L112.769 131.009C113.01 130.862 113.206 130.652 113.337 130.402C113.467 130.152 113.525 129.87 113.506 129.589L104.849 69.1516C104.777 68.8537 104.637 68.5764 104.44 68.3413C104.244 68.1062 103.995 67.9197 103.715 67.7963L102.59 67.3169C102.293 67.2062 101.977 67.1557 101.661 67.1684C101.344 67.1811 101.033 67.2566 100.746 67.3906L41.3599 101.68C41.1179 101.828 40.9212 102.039 40.7911 102.291C40.6611 102.543 40.6027 102.826 40.6223 103.109L49.2799 163.546C49.3532 163.842 49.4935 164.118 49.6902 164.351C49.8868 164.585 50.1344 164.77 50.414 164.892Z" fill="#F0F0F0"/>
<path d="M53.4474 165.298L112.833 131.009C113.075 130.862 113.271 130.652 113.401 130.402C113.531 130.152 113.59 129.87 113.571 129.589L104.913 69.1517C104.907 69.0393 104.869 68.931 104.805 68.8387C104.741 68.7464 104.652 68.6738 104.549 68.6289C104.446 68.584 104.332 68.5686 104.221 68.5844C104.109 68.6002 104.004 68.6465 103.918 68.7183L44.5316 103.008C44.2896 103.155 44.0929 103.367 43.9628 103.619C43.8328 103.871 43.7744 104.154 43.794 104.437L52.4516 164.874C52.5162 165.381 52.9679 165.574 53.4474 165.298Z" fill="white"/>
<path d="M53.014 165.593C52.9052 165.593 52.798 165.567 52.7005 165.519C52.5833 165.459 52.4835 165.37 52.4108 165.26C52.3381 165.15 52.295 165.023 52.2856 164.892L43.628 104.464C43.6014 104.147 43.6642 103.828 43.8092 103.545C43.9542 103.261 44.1757 103.024 44.4486 102.86L103.825 68.58C103.949 68.5004 104.089 68.4514 104.235 68.437C104.381 68.4225 104.528 68.4431 104.664 68.497C104.782 68.557 104.882 68.6462 104.954 68.756C105.027 68.8659 105.07 68.9926 105.079 69.124L113.737 129.561C113.762 129.877 113.698 130.193 113.553 130.475C113.408 130.757 113.188 130.993 112.916 131.156L53.5303 165.445C53.3731 165.536 53.1957 165.587 53.014 165.593ZM104.342 68.7828C104.222 68.789 104.105 68.8238 104.001 68.8842L44.6146 103.173C44.4111 103.299 44.2437 103.476 44.129 103.686C44.0143 103.896 43.956 104.133 43.96 104.372L52.6175 164.809C52.6194 164.887 52.6417 164.963 52.6821 165.029C52.7226 165.095 52.7798 165.15 52.848 165.187C52.9338 165.217 53.0253 165.225 53.1151 165.213C53.2049 165.2 53.2903 165.166 53.3644 165.113L112.75 130.833C112.963 130.701 113.136 130.514 113.251 130.292C113.366 130.069 113.42 129.82 113.405 129.57L104.747 69.1332C104.742 69.0577 104.717 68.9847 104.677 68.9205C104.637 68.8563 104.582 68.8028 104.517 68.7644C104.459 68.7507 104.399 68.7507 104.342 68.7644V68.7828Z" fill="#E0E0E0"/>
<path d="M53.3183 165.362C52.7576 165.579 52.1363 165.579 51.5757 165.362L50.4509 164.883C50.1713 164.76 49.9237 164.575 49.727 164.342C49.5304 164.109 49.39 163.833 49.3168 163.537L40.6592 103.1C40.6292 102.822 40.6873 102.541 40.8252 102.298L43.96 103.634C43.8287 103.88 43.7741 104.16 43.8032 104.437L52.4516 164.874C52.4593 164.972 52.4909 165.066 52.5438 165.149C52.5967 165.232 52.6691 165.301 52.7547 165.349C52.8404 165.397 52.9366 165.424 53.0348 165.426C53.1331 165.428 53.2304 165.406 53.3183 165.362Z" fill="#E0E0E0"/>
<path d="M96.7906 133.655L92.0792 100.702L88.4096 99.1535L93.121 132.097L96.7906 133.655Z" fill="#7F3A6A"/>
<path opacity="0.2" d="M96.7906 133.655L92.0792 100.702L88.4096 99.1535L93.121 132.097L96.7906 133.655Z" fill="black"/>
<path d="M96.7906 133.655L106.029 128.316L101.318 95.3733L92.0792 100.702L96.7906 133.655Z" fill="#7F3A6A"/>
<path d="M101.318 95.3733L97.648 93.8151L88.4096 99.1535L92.0792 100.702L101.318 95.3733Z" fill="#7F3A6A"/>
<path opacity="0.25" d="M101.318 95.3733L97.648 93.8151L88.4096 99.1535L92.0792 100.702L101.318 95.3733Z" fill="white"/>
<path opacity="0.3" d="M101.318 95.3733L92.0976 100.583L88.4096 99.1535L91.9685 100.896C92.0238 101.864 96.5048 132.677 96.7906 133.655C96.7906 132.668 92.448 101.781 92.2359 100.85L101.318 95.3733Z" fill="white"/>
<path d="M79.4754 143.658L75.686 117.188L72.0164 115.63L75.8059 142.1L79.4754 143.658Z" fill="#7F3A6A"/>
<path opacity="0.1" d="M79.4754 143.658L75.686 117.188L72.0164 115.63L75.8059 142.1L79.4754 143.658Z" fill="white"/>
<path d="M79.4754 143.658L88.7139 138.32L84.9244 111.859L75.686 117.188L79.4754 143.658Z" fill="#7F3A6A"/>
<path opacity="0.3" d="M79.4754 143.658L88.7139 138.32L84.9244 111.859L75.686 117.188L79.4754 143.658Z" fill="white"/>
<path d="M84.9244 111.859L81.2549 110.3L72.0164 115.63L75.686 117.188L84.9244 111.859Z" fill="#7F3A6A"/>
<path opacity="0.55" d="M84.9244 111.859L81.2549 110.3L72.0164 115.63L75.686 117.188L84.9244 111.859Z" fill="white"/>
<path opacity="0.3" d="M75.8243 117.28L84.9244 111.886L75.7044 117.096C74.5427 116.607 72.0164 115.657 72.0164 115.657C72.0164 115.657 74.3768 116.773 75.5662 117.289C75.6676 118.285 79.2542 142.672 79.4754 143.686C79.4017 142.635 75.9995 118.202 75.8243 117.28Z" fill="white"/>
<path d="M62.1511 153.653L58.9702 131.442L55.3006 129.884L58.4815 152.095L62.1511 153.653Z" fill="#7F3A6A"/>
<path opacity="0.45" d="M62.1511 153.653L58.9702 131.442L55.3006 129.884L58.4815 152.095L62.1511 153.653Z" fill="black"/>
<path d="M62.1511 153.653L71.3895 148.324L68.2086 126.104L58.9702 131.442L62.1511 153.653Z" fill="#7F3A6A"/>
<path opacity="0.3" d="M62.1511 153.653L71.3895 148.324L68.2086 126.104L58.9702 131.442L62.1511 153.653Z" fill="black"/>
<path d="M68.2086 126.104L64.539 124.555L55.3006 129.884L58.9702 131.442L68.2086 126.104Z" fill="#7F3A6A"/>
<path opacity="0.15" d="M68.2086 126.104L64.539 124.555L55.3006 129.884L58.9702 131.442L68.2086 126.104Z" fill="black"/>
<path opacity="0.3" d="M68.2086 126.104L58.9886 131.313L55.3006 129.884L58.8503 131.589C58.8503 131.589 61.9113 153.054 62.1511 153.653C62.2156 153.044 59.1361 131.589 59.1361 131.589L68.2086 126.104Z" fill="white"/>
<path d="M98.4133 80.9809L97.4636 80.5845L90.1706 83.2491L92.0515 84.5399L73.2888 105.211L68.2639 101.754L67.3235 101.348L52.6821 117.483L54.9318 119.023L55.8814 119.428L68.6235 105.377L73.2888 108.512L74.7087 109.12L95.1033 86.642L96.1821 87.3612L97.1317 87.7669L98.4133 80.9809Z" fill="#7F3A6A"/>
<path opacity="0.25" d="M98.4133 80.9809L97.4636 80.5845L90.1706 83.2491L92.0515 84.5399L73.2888 105.211L68.2639 101.754L67.3235 101.348L52.6821 117.483L54.9318 119.023L55.8814 119.428L68.6235 105.377L73.2888 108.512L74.7087 109.12L95.1033 86.642L96.1821 87.3612L97.1317 87.7669L98.4133 80.9809Z" fill="white"/>
<path d="M98.4133 80.981L97.1317 87.7669L95.2508 86.4853L74.7087 109.12L68.8816 105.11L55.8814 119.428L53.6225 117.889L68.2639 101.754L74.1002 105.764L92.9919 84.9363L91.111 83.6548L98.4133 80.981Z" fill="#7F3A6A"/>
<path d="M68.8816 105.11L68.6235 105.377L73.2888 108.512L74.7087 109.12L68.8816 105.11Z" fill="#7F3A6A"/>
<path opacity="0.2" d="M68.8816 105.11L68.6235 105.377L73.2888 108.512L74.7087 109.12L68.8816 105.11Z" fill="black"/>
<path d="M92.0515 84.5398L92.9919 84.9363L91.111 83.6547L90.1706 83.249L92.0515 84.5398Z" fill="#7F3A6A"/>
<path opacity="0.2" d="M92.0515 84.5398L92.9919 84.9363L91.111 83.6547L90.1706 83.249L92.0515 84.5398Z" fill="black"/>
<path d="M95.1033 86.642L95.2508 86.4853L97.1317 87.7669L96.182 87.3612L95.1033 86.642Z" fill="#7F3A6A"/>
<path opacity="0.2" d="M95.1033 86.642L95.2508 86.4853L97.1317 87.7669L96.182 87.3612L95.1033 86.642Z" fill="black"/>
<path d="M52.6821 117.483L53.6225 117.889L55.8814 119.428L54.9318 119.023L52.6821 117.483Z" fill="#7F3A6A"/>
<path opacity="0.2" d="M52.6821 117.483L53.6225 117.889L55.8814 119.428L54.9318 119.023L52.6821 117.483Z" fill="black"/>
<path opacity="0.5" d="M58.4446 112.569L68.31 102.067L74.1002 105.764L68.2639 101.754L58.4446 112.569Z" fill="white"/>
<path opacity="0.5" d="M82.7577 96.2216L93.2501 84.9271L91.443 83.7101L98.4133 80.981L91.111 83.6548L92.9919 84.9363L82.7577 96.2216Z" fill="white"/>
<path d="M115.553 137.675C115.388 137.63 115.216 137.621 115.048 137.648C114.879 137.675 114.718 137.738 114.576 137.831L55.1529 172.148C54.7691 172.383 54.457 172.719 54.2505 173.119C54.0441 173.519 53.9512 173.967 53.982 174.416L61.0814 223.974C61.0949 224.138 61.1492 224.297 61.2394 224.436C61.3295 224.574 61.4526 224.688 61.5977 224.767C61.3303 224.638 58.9239 223.642 58.6289 223.513C58.4785 223.435 58.3499 223.321 58.2549 223.181C58.1598 223.041 58.1014 222.879 58.0849 222.711L50.9947 173.153C50.9612 172.703 51.0527 172.251 51.2594 171.85C51.466 171.448 51.7796 171.111 52.1657 170.876L111.589 136.559C111.742 136.458 111.917 136.394 112.099 136.372C112.281 136.35 112.466 136.369 112.64 136.43C112.898 136.55 114.954 137.416 115.553 137.675Z" fill="#7F3A6A"/>
<g opacity="0.2">
<path d="M115.553 137.675C114.982 137.416 112.898 136.55 112.64 136.43C112.466 136.369 112.281 136.35 112.099 136.372C111.917 136.394 111.742 136.458 111.589 136.559L52.1658 170.876C51.7728 171.117 51.4538 171.461 51.2438 171.872L54.2311 173.144C54.4357 172.73 54.7559 172.384 55.1531 172.148L114.576 137.831C114.719 137.738 114.879 137.675 115.048 137.648C115.216 137.621 115.389 137.63 115.553 137.675Z" fill="white"/>
</g>
<path d="M55.1531 172.148L114.576 137.831C115.341 137.389 116.051 137.693 116.171 138.504L123.252 188.062C123.285 188.511 123.195 188.962 122.99 189.363C122.785 189.765 122.474 190.102 122.09 190.339L62.6582 224.656C61.8929 225.089 61.183 224.794 61.0723 223.974L53.9821 174.444C53.944 173.99 54.0334 173.535 54.2403 173.129C54.4472 172.723 54.7634 172.384 55.1531 172.148Z" fill="#7F3A6A"/>
<g opacity="0.5">
<path d="M55.1531 172.148L114.576 137.831C115.341 137.389 116.051 137.693 116.171 138.504L123.252 188.062C123.285 188.511 123.195 188.962 122.99 189.363C122.785 189.765 122.474 190.102 122.09 190.339L62.6582 224.656C61.8929 225.089 61.183 224.794 61.0723 223.974L53.9821 174.444C53.944 173.99 54.0334 173.535 54.2403 173.129C54.4472 172.723 54.7634 172.384 55.1531 172.148Z" fill="white"/>
</g>
<path d="M54.2403 173.144L51.253 171.872C51.0317 172.26 50.9412 172.709 50.9949 173.153L58.085 222.711C58.1016 222.879 58.16 223.041 58.255 223.181C58.35 223.321 58.4786 223.435 58.629 223.513C58.9241 223.642 61.3305 224.638 61.5979 224.767C61.4528 224.688 61.3296 224.574 61.2395 224.436C61.1494 224.297 61.0951 224.138 61.0815 223.974L53.9821 174.444C53.9321 173.994 54.0223 173.54 54.2403 173.144Z" fill="#7F3A6A"/>
<path opacity="0.15" d="M54.2403 173.144L51.253 171.872C51.0317 172.26 50.9412 172.709 50.9949 173.153L58.085 222.711C58.1016 222.879 58.16 223.041 58.255 223.181C58.35 223.321 58.4786 223.435 58.629 223.513C58.9241 223.642 61.3305 224.638 61.5979 224.767C61.4528 224.688 61.3296 224.574 61.2395 224.436C61.1494 224.297 61.0951 224.138 61.0815 223.974L53.9821 174.444C53.9321 173.994 54.0223 173.54 54.2403 173.144Z" fill="black"/>
<path opacity="0.95" d="M97.8878 186.928L103.816 192.819L78.4151 175.91L59.3482 211.868L61.0815 223.937C61.1922 224.757 61.9021 225.053 62.6674 224.619L122.099 190.302C122.483 190.064 122.794 189.727 123 189.326C123.206 188.925 123.3 188.475 123.27 188.025L122.348 181.396L103.807 171.567L97.8878 186.928Z" fill="#FAFAFA"/>
<path opacity="0.95" d="M96.4402 157.47C99.2062 155.875 101.806 156.972 102.221 159.932C102.636 162.891 100.746 166.579 97.9708 168.174C95.1955 169.769 92.6139 168.681 92.1898 165.722C91.7657 162.762 93.6742 159.074 96.4402 157.47Z" fill="#FAFAFA"/>
<path d="M115.304 138.219C115.433 138.219 115.48 138.495 115.48 138.532L122.579 188.09C122.594 188.437 122.517 188.782 122.355 189.09C122.193 189.398 121.952 189.657 121.657 189.841L62.2341 224.158C62.1431 224.218 62.0383 224.253 61.9298 224.26C61.7915 224.26 61.7454 223.983 61.7454 223.946L54.646 174.389C54.6327 174.041 54.7108 173.697 54.8727 173.389C55.0345 173.082 55.2743 172.822 55.568 172.637L114.954 138.329C115.046 138.264 115.155 138.225 115.267 138.219M115.175 137.629C114.95 137.645 114.732 137.714 114.539 137.831L55.1162 172.148C54.7309 172.382 54.4176 172.717 54.211 173.117C54.0044 173.517 53.9124 173.967 53.9453 174.416L61.0447 223.974C61.0565 224.21 61.1588 224.433 61.3305 224.596C61.5021 224.759 61.7299 224.85 61.9667 224.85C62.1914 224.839 62.41 224.772 62.6028 224.656L122.035 190.339C122.419 190.102 122.73 189.765 122.935 189.363C123.139 188.962 123.23 188.511 123.197 188.062L116.171 138.486C116.159 138.25 116.057 138.027 115.885 137.864C115.714 137.701 115.486 137.61 115.249 137.61L115.175 137.629Z" fill="#7F3A6A"/>
<path d="M113.11 66.4594C112.906 66.4602 112.706 66.4068 112.529 66.3047C112.352 66.2027 112.206 66.0556 112.105 65.8785C111.951 65.6105 111.909 65.2924 111.988 64.9936C112.068 64.6948 112.262 64.4395 112.529 64.2835L176.147 27.634C176.42 27.4836 176.741 27.4477 177.04 27.5341C177.339 27.6206 177.592 27.8223 177.742 28.095C177.893 28.3676 177.928 28.6889 177.842 28.988C177.756 29.2871 177.554 29.5397 177.281 29.69L113.663 66.3395C113.493 66.428 113.302 66.4694 113.11 66.4594Z" fill="#E0E0E0"/>
<path d="M114.327 74.785C114.069 74.7883 113.817 74.7052 113.611 74.5491C113.405 74.393 113.257 74.1727 113.19 73.923C113.124 73.6734 113.142 73.4086 113.243 73.1707C113.343 72.9327 113.521 72.7351 113.746 72.6091L177.364 35.9596C177.497 35.8833 177.643 35.8339 177.795 35.8142C177.946 35.7944 178.101 35.8048 178.248 35.8446C178.396 35.8844 178.534 35.9529 178.655 36.0462C178.777 36.1395 178.878 36.2558 178.955 36.3883C179.031 36.5209 179.08 36.6672 179.1 36.8189C179.12 36.9706 179.109 37.1247 179.07 37.2724C179.03 37.42 178.961 37.5585 178.868 37.6797C178.775 37.8009 178.658 37.9025 178.526 37.9788L114.908 74.6283C114.733 74.7337 114.531 74.7879 114.327 74.785Z" fill="#E0E0E0"/>
<path d="M115.553 83.1107C115.347 83.1102 115.145 83.0555 114.967 82.9518C114.789 82.8482 114.641 82.6995 114.539 82.5206C114.462 82.3884 114.412 82.2421 114.392 82.0904C114.372 81.9386 114.383 81.7845 114.423 81.6368C114.464 81.4892 114.533 81.3511 114.627 81.2306C114.722 81.11 114.839 81.0095 114.972 80.9348L178.59 44.2853C178.722 44.2079 178.868 44.1574 179.019 44.1369C179.171 44.1163 179.325 44.1261 179.472 44.1655C179.62 44.205 179.758 44.2734 179.879 44.3668C180 44.4601 180.101 44.5766 180.176 44.7094C180.331 44.9774 180.373 45.2955 180.293 45.5943C180.214 45.8932 180.019 46.1484 179.752 46.3044L116.134 82.9539C115.957 83.0551 115.757 83.1091 115.553 83.1107Z" fill="#E0E0E0"/>
<path d="M116.798 91.464C116.541 91.463 116.291 91.3773 116.087 91.22C115.883 91.0627 115.737 90.8427 115.671 90.5939C115.605 90.3451 115.622 90.0815 115.721 89.8438C115.82 89.6061 115.994 89.4075 116.217 89.2789L179.835 52.6294C180.101 52.503 180.404 52.4812 180.685 52.5682C180.966 52.6553 181.204 52.8449 181.351 53.0993C181.499 53.3537 181.545 53.6543 181.481 53.9413C181.417 54.2284 181.248 54.4808 181.006 54.6485L117.388 91.3073C117.208 91.4088 117.005 91.4627 116.798 91.464Z" fill="#E0E0E0"/>
<path d="M118.006 99.762C117.8 99.7644 117.598 99.7118 117.42 99.6097C117.241 99.5076 117.094 99.3596 116.992 99.1812C116.914 99.0482 116.864 98.9013 116.844 98.7488C116.824 98.5964 116.835 98.4415 116.875 98.2931C116.915 98.1448 116.985 98.0059 117.079 97.8845C117.174 97.7631 117.291 97.6617 117.425 97.5861L181.043 60.9366C181.176 60.8444 181.326 60.7806 181.485 60.7495C181.644 60.7183 181.807 60.7204 181.965 60.7556C182.123 60.7907 182.272 60.8583 182.403 60.9539C182.533 61.0495 182.643 61.1711 182.724 61.3111C182.805 61.451 182.856 61.6063 182.874 61.767C182.892 61.9278 182.877 62.0906 182.829 62.2451C182.781 62.3997 182.702 62.5426 182.596 62.6649C182.49 62.7872 182.36 62.8863 182.214 62.9558L118.596 99.6053C118.417 99.711 118.213 99.7652 118.006 99.762Z" fill="#E0E0E0"/>
<path d="M119.232 108.06C118.977 108.058 118.729 107.972 118.527 107.816C118.325 107.66 118.18 107.442 118.113 107.196C118.046 106.949 118.061 106.688 118.157 106.451C118.253 106.214 118.423 106.015 118.642 105.884L157.366 83.5625C157.499 83.4862 157.645 83.4368 157.797 83.4171C157.948 83.3974 158.102 83.4077 158.25 83.4475C158.398 83.4873 158.536 83.5558 158.657 83.6491C158.779 83.7424 158.88 83.8587 158.956 83.9913C159.033 84.1238 159.082 84.2701 159.102 84.4218C159.122 84.5735 159.111 84.7276 159.071 84.8753C159.032 85.023 158.963 85.1614 158.87 85.2826C158.777 85.4038 158.66 85.5054 158.528 85.5817L119.804 107.903C119.631 108.006 119.433 108.06 119.232 108.06Z" fill="#E0E0E0"/>
<path d="M121.675 124.73C121.471 124.729 121.27 124.674 121.094 124.57C120.917 124.466 120.771 124.318 120.67 124.14C120.516 123.872 120.474 123.554 120.554 123.255C120.633 122.956 120.828 122.701 121.095 122.545L184.713 85.8952C184.982 85.7417 185.301 85.7011 185.6 85.7824C185.898 85.8636 186.153 86.06 186.308 86.3285C186.385 86.4607 186.434 86.607 186.454 86.7587C186.474 86.9105 186.464 87.0647 186.423 87.2123C186.383 87.3599 186.314 87.498 186.219 87.6185C186.125 87.7391 186.008 87.8396 185.874 87.9143L122.256 124.573C122.079 124.673 121.879 124.727 121.675 124.73Z" fill="#E0E0E0"/>
<path d="M122.902 133.046C122.643 133.049 122.391 132.966 122.185 132.81C121.979 132.654 121.831 132.434 121.765 132.184C121.698 131.935 121.717 131.67 121.817 131.432C121.918 131.194 122.095 130.996 122.321 130.87L185.948 94.23C186.081 94.1537 186.227 94.1043 186.379 94.0846C186.53 94.0648 186.684 94.0752 186.832 94.115C186.98 94.1548 187.118 94.2233 187.239 94.3166C187.36 94.4099 187.462 94.5262 187.538 94.6587C187.615 94.7913 187.664 94.9376 187.684 95.0893C187.704 95.241 187.693 95.3951 187.653 95.5427C187.614 95.6904 187.545 95.8288 187.452 95.95C187.359 96.0713 187.242 96.1729 187.11 96.2492L123.492 132.899C123.313 133.002 123.108 133.054 122.902 133.046Z" fill="#E0E0E0"/>
<path d="M124.174 141.372C123.916 141.375 123.664 141.292 123.458 141.136C123.252 140.98 123.104 140.76 123.037 140.51C122.97 140.26 122.989 139.995 123.09 139.758C123.19 139.52 123.368 139.322 123.593 139.196L187.211 102.546C187.479 102.392 187.797 102.351 188.095 102.431C188.393 102.512 188.648 102.707 188.802 102.975C188.956 103.243 188.997 103.561 188.917 103.859C188.836 104.157 188.641 104.412 188.373 104.566L124.755 141.215C124.58 141.32 124.378 141.375 124.174 141.372Z" fill="#E0E0E0"/>
<path d="M125.354 149.698C125.148 149.697 124.946 149.642 124.768 149.539C124.59 149.435 124.442 149.286 124.34 149.107C124.263 148.975 124.213 148.829 124.193 148.677C124.173 148.526 124.184 148.371 124.224 148.224C124.264 148.076 124.334 147.938 124.428 147.817C124.522 147.697 124.64 147.596 124.773 147.522L188.391 110.863C188.66 110.708 188.98 110.666 189.28 110.746C189.58 110.826 189.836 111.023 189.991 111.292C190.146 111.561 190.188 111.88 190.108 112.18C190.028 112.48 189.831 112.736 189.562 112.891L125.944 149.541C125.765 149.644 125.561 149.698 125.354 149.698Z" fill="#E0E0E0"/>
<path d="M126.58 158.023C126.323 158.022 126.073 157.936 125.869 157.779C125.665 157.622 125.519 157.402 125.453 157.153C125.387 156.904 125.405 156.641 125.503 156.403C125.602 156.165 125.777 155.967 126 155.838L189.618 119.189C189.883 119.062 190.186 119.04 190.467 119.127C190.748 119.215 190.986 119.404 191.134 119.658C191.281 119.913 191.328 120.213 191.264 120.501C191.2 120.788 191.03 121.04 190.788 121.208L127.17 157.866C126.99 157.968 126.787 158.022 126.58 158.023Z" fill="#E0E0E0"/>
<path d="M127.807 166.34C127.548 166.343 127.296 166.26 127.09 166.104C126.884 165.948 126.736 165.727 126.67 165.478C126.603 165.228 126.622 164.963 126.722 164.725C126.823 164.487 127 164.29 127.226 164.164L190.844 127.514C190.977 127.422 191.127 127.358 191.286 127.327C191.445 127.296 191.608 127.298 191.766 127.333C191.924 127.368 192.073 127.436 192.204 127.531C192.334 127.627 192.443 127.749 192.525 127.889C192.606 128.029 192.657 128.184 192.675 128.345C192.693 128.505 192.678 128.668 192.63 128.823C192.582 128.977 192.503 129.12 192.397 129.242C192.291 129.365 192.161 129.464 192.015 129.533L128.397 166.183C128.218 166.289 128.014 166.343 127.807 166.34Z" fill="#E0E0E0"/>
<path d="M129.033 174.665C128.778 174.663 128.53 174.577 128.328 174.421C128.126 174.265 127.98 174.047 127.914 173.801C127.847 173.554 127.862 173.293 127.958 173.056C128.053 172.819 128.224 172.62 128.443 172.489L192.061 135.84C192.193 135.764 192.34 135.714 192.491 135.694C192.643 135.675 192.797 135.685 192.945 135.725C193.093 135.765 193.231 135.833 193.352 135.926C193.473 136.02 193.575 136.136 193.651 136.269C193.728 136.401 193.777 136.547 193.797 136.699C193.816 136.851 193.806 137.005 193.766 137.153C193.727 137.3 193.658 137.439 193.565 137.56C193.471 137.681 193.355 137.783 193.223 137.859L129.605 174.509C129.431 174.611 129.234 174.665 129.033 174.665Z" fill="#E0E0E0"/>
<path d="M130.259 182.991C130.001 182.992 129.75 182.908 129.544 182.751C129.339 182.595 129.191 182.375 129.124 182.125C129.057 181.876 129.074 181.612 129.172 181.373C129.271 181.134 129.445 180.935 129.669 180.806L154.121 166.718C154.388 166.586 154.696 166.56 154.981 166.647C155.266 166.734 155.507 166.927 155.656 167.185C155.804 167.444 155.848 167.75 155.778 168.04C155.709 168.33 155.532 168.582 155.282 168.746L130.84 182.834C130.663 182.934 130.463 182.988 130.259 182.991Z" fill="#E0E0E0"/>
</svg>
