<svg width="187" height="267" viewBox="0 0 187 267" fill="none" xmlns="http://www.w3.org/2000/svg">
<path d="M69.8211 202.026L79.9631 143.498L86.4171 143.175L73.085 202.017C73.06 202.137 73.009 202.251 72.9358 202.349C72.8626 202.448 72.7688 202.53 72.6609 202.589C72.3159 202.787 71.9292 202.901 71.5319 202.921C71.1347 202.942 70.7382 202.869 70.3743 202.708C70.2318 202.658 70.1076 202.566 70.0173 202.444C69.9271 202.323 69.8749 202.177 69.8673 202.026H69.8211Z" fill="#263238"/>
<path d="M165.267 133.89H171.721L186.832 194.678C186.829 194.829 186.784 194.976 186.7 195.101C186.617 195.227 186.5 195.326 186.362 195.388C186.007 195.565 185.616 195.658 185.219 195.658C184.822 195.658 184.43 195.565 184.075 195.388C183.965 195.331 183.868 195.253 183.789 195.158C183.709 195.063 183.65 194.953 183.614 194.835L165.267 133.89Z" fill="#37474F"/>
<path d="M120.817 229.917L121.103 164.372L127.557 164.04L124.09 229.907C124.063 230.028 124.011 230.142 123.936 230.241C123.861 230.339 123.766 230.421 123.657 230.479C123.312 230.677 122.925 230.791 122.528 230.812C122.131 230.833 121.734 230.76 121.37 230.599C121.231 230.545 121.11 230.452 121.021 230.331C120.933 230.21 120.881 230.066 120.872 229.917H120.817Z" fill="#37474F"/>
<path d="M130.194 113.496H136.648L146.937 178.036C146.937 178.187 146.892 178.335 146.808 178.461C146.725 178.587 146.606 178.686 146.467 178.746C146.112 178.923 145.721 179.016 145.324 179.016C144.927 179.016 144.535 178.923 144.18 178.746C144.07 178.689 143.973 178.611 143.894 178.516C143.815 178.421 143.755 178.311 143.719 178.192L130.194 113.496Z" fill="#263238"/>
<path d="M183.808 62.8964C185.266 66.495 186.132 70.3062 186.371 74.1816C187.109 82.83 184.177 110.84 182.425 123.361C179.89 144.291 176.764 144.327 172.228 147.831C164.428 153.861 141.995 165.672 134.592 168.585C121.167 173.868 110.186 165.727 101.999 161.679C94.4972 157.886 87.2559 153.599 80.3227 148.845C78.2851 147.352 77.2248 145.849 77.2433 144.235C77.2433 143.608 77.2433 141.036 77.2433 140.381C77.2433 138.353 79.0227 136.186 82.7753 133.752C89.7087 129.253 114.778 114.639 124.487 109.255C124.49 109.235 124.501 109.217 124.516 109.204C124.531 109.19 124.55 109.182 124.57 109.181C132.038 104.645 136.556 73.8036 141.709 57.392C141.82 57.0509 141.931 56.7097 142.051 56.3778C142.17 56.0459 142.226 55.8615 142.318 55.6126C142.614 54.7783 142.953 53.9597 143.332 53.16" fill="#7F3A6A"/>
<path d="M77.1971 140.39C77.1971 138.371 78.9766 136.205 82.7291 133.771C89.6626 129.271 114.732 114.657 124.44 109.273C124.444 109.253 124.455 109.236 124.47 109.222C124.485 109.209 124.503 109.201 124.523 109.199C131.992 104.663 136.509 73.8221 141.663 57.4105C141.719 57.263 142.078 55.9998 142.751 54.3955L142.844 54.1743L143.139 53.5104C143.194 53.3998 143.24 53.2799 143.286 53.1785C144.104 51.3093 145.274 49.6156 146.734 48.1905C147.243 47.7185 147.814 47.3183 148.431 47.0011C149.27 46.5217 151.04 45.5444 151.473 45.2862C156.554 42.2436 163.211 45.8947 171.509 50.4402C176.672 53.2615 181.07 56.6268 183.753 62.8964C185.211 66.4951 186.076 70.3062 186.316 74.1817C187.053 82.83 184.121 110.84 182.37 123.361C179.834 144.291 176.709 144.327 172.172 147.831C164.372 153.861 141.94 165.672 134.536 168.585C121.112 173.868 110.131 165.727 101.944 161.679C94.4419 157.886 87.2005 153.599 80.2674 148.845C78.2298 147.352 77.1695 145.849 77.1879 144.235C77.2156 143.627 77.1971 141.082 77.1971 140.39Z" fill="#7F3A6A"/>
<path opacity="0.15" d="M77.1971 140.39C77.1971 138.371 78.9766 136.205 82.7291 133.771C89.6626 129.271 114.732 114.657 124.44 109.273C124.444 109.253 124.455 109.236 124.47 109.222C124.485 109.209 124.503 109.201 124.523 109.199C131.992 104.663 136.509 73.8221 141.663 57.4105C141.719 57.263 142.078 55.9998 142.751 54.3955L142.844 54.1743L143.139 53.5104C143.194 53.3998 143.24 53.2799 143.286 53.1785C144.104 51.3093 145.274 49.6156 146.734 48.1905C147.243 47.7185 147.814 47.3183 148.431 47.0011C149.27 46.5217 151.04 45.5444 151.473 45.2862C156.554 42.2436 163.211 45.8947 171.509 50.4402C176.672 53.2615 181.07 56.6268 183.753 62.8964C185.211 66.4951 186.076 70.3062 186.316 74.1817C187.053 82.83 184.121 110.84 182.37 123.361C179.834 144.291 176.709 144.327 172.172 147.831C164.372 153.861 141.94 165.672 134.536 168.585C121.112 173.868 110.131 165.727 101.944 161.679C94.4419 157.886 87.2005 153.599 80.2674 148.845C78.2298 147.352 77.1695 145.849 77.1879 144.235C77.2156 143.627 77.1971 141.082 77.1971 140.39Z" fill="black"/>
<path d="M101.971 157.779C94.4663 153.983 87.2218 149.693 80.2858 144.936C75.6758 141.561 76.0631 138.104 82.7384 133.771C92.0045 127.759 129.76 106.323 129.76 106.323C129.76 106.323 177.52 134.508 175.464 139.717C173.408 144.927 143.849 161.025 134.536 164.685C121.112 169.968 110.149 161.818 101.971 157.779Z" fill="#7F3A6A"/>
<path opacity="0.3" d="M101.971 157.779C94.4663 153.983 87.2218 149.693 80.2858 144.936C75.6758 141.561 76.0631 138.104 82.7384 133.771C92.0045 127.759 129.76 106.323 129.76 106.323C129.76 106.323 177.52 134.508 175.464 139.717C173.408 144.927 143.849 161.025 134.536 164.685C121.112 169.968 110.149 161.818 101.971 157.779Z" fill="white"/>
<path d="M148.449 47.038C153.474 44.4011 160.011 47.96 168.088 52.4132C173.27 55.253 177.677 58.6091 180.36 64.9063L183.771 62.9333C181.088 56.6637 176.69 53.3076 171.527 50.477C163.229 45.9316 156.572 42.2805 151.492 45.3231C151.059 45.5443 149.288 46.5217 148.449 47.038Z" fill="#7F3A6A"/>
<path opacity="0.3" d="M148.449 47.038C153.474 44.4011 160.011 47.96 168.088 52.4132C173.27 55.253 177.677 58.6091 180.36 64.9063L183.771 62.9333C181.088 56.6637 176.69 53.3076 171.527 50.477C163.229 45.9316 156.572 42.2805 151.492 45.3231C151.059 45.5443 149.288 46.5217 148.449 47.038Z" fill="white"/>
<path d="M124.533 109.199C124.533 109.199 129.401 110.794 146.771 119.341C153.908 122.836 158.591 126.367 165.276 130.571C175.104 136.758 174.348 141.349 174.348 141.349C179.235 137.302 184.103 90.3351 182.904 76.1271C182.665 72.0549 181.73 68.0539 180.138 64.2978C180.009 64.0212 179.871 63.7446 179.733 63.468C179.594 63.1914 179.548 63.09 179.447 62.9148L179.299 62.6474C178.912 61.9559 178.497 61.3013 178.064 60.6743L177.741 60.2134L177.391 59.7616C177.289 59.6233 177.16 59.4758 177.05 59.3282L176.745 58.9779C176.197 58.3277 175.609 57.7118 174.984 57.1339C174.828 56.9864 174.68 56.8481 174.514 56.7098C173.533 55.8534 172.495 55.0648 171.407 54.3494C171.244 54.2303 171.075 54.1195 170.9 54.0175C170.679 53.87 170.457 53.7317 170.218 53.5934C169.978 53.4551 169.84 53.3537 169.646 53.2523C169.148 52.948 168.632 52.6622 168.116 52.3303C161.938 48.9465 156.674 46.0514 152.276 46.0514C150.235 46.0345 148.262 46.781 146.744 48.1444C143.507 51.0026 141.774 57.0232 141.663 57.3644C136.5 73.8221 132.001 104.663 124.533 109.199Z" fill="#7F3A6A"/>
<path opacity="0.1" d="M124.533 109.199C124.533 109.199 129.401 110.794 146.771 119.341C153.908 122.836 158.591 126.367 165.276 130.571C175.104 136.758 174.348 141.349 174.348 141.349C179.235 137.302 184.103 90.3351 182.904 76.1271C182.665 72.0549 181.73 68.0539 180.138 64.2978C180.009 64.0212 179.871 63.7446 179.733 63.468C179.594 63.1914 179.548 63.09 179.447 62.9148L179.299 62.6474C178.912 61.9559 178.497 61.3013 178.064 60.6743L177.741 60.2134L177.391 59.7616C177.289 59.6233 177.16 59.4758 177.05 59.3282L176.745 58.9779C176.197 58.3277 175.609 57.7118 174.984 57.1339C174.828 56.9864 174.68 56.8481 174.514 56.7098C173.533 55.8534 172.495 55.0648 171.407 54.3494C171.244 54.2303 171.075 54.1195 170.9 54.0175C170.679 53.87 170.457 53.7317 170.218 53.5934C169.978 53.4551 169.84 53.3537 169.646 53.2523C169.148 52.948 168.632 52.6622 168.116 52.3303C161.938 48.9465 156.674 46.0514 152.276 46.0514C150.235 46.0345 148.262 46.781 146.744 48.1444C143.507 51.0026 141.774 57.0232 141.663 57.3644C136.5 73.8221 132.001 104.663 124.533 109.199Z" fill="white"/>
<path d="M114.925 160.444L105.816 148.55L91.608 159.006C101.059 165.404 111.449 173.398 114.003 176.524C114.003 176.524 122.062 173.103 122.587 168.585C123.113 164.067 117.424 161.449 114.925 160.444Z" fill="#FFA8A7"/>
<path d="M125.335 163.846C126.187 164.253 126.949 164.827 127.575 165.533C128.267 166.234 128.82 170.143 129.668 171.858C130.516 173.573 131.014 173.97 132.296 176.072C133.716 178.395 135.91 180.359 135.117 187.136C134.324 193.913 131.697 197.61 129.29 199.684C128.383 200.394 127.316 200.871 126.183 201.077C126.183 201.077 122.394 200.403 122.55 198.209C122.707 196.015 125.335 163.846 125.335 163.846Z" fill="#263238"/>
<path d="M111.136 173.804C111.357 174.449 112.473 175.297 112.98 175.768C114.529 177.522 115.716 179.565 116.474 181.779C120.457 191.58 117.396 197.518 123.574 200.32C125.344 201.021 128.589 200.136 132.407 192.779C134.352 189.017 134.555 182 132.987 179.133C131.42 176.265 129.687 174.523 128.599 172.292C127.511 170.06 127.04 165.626 125.362 163.846C124.308 162.865 123.048 162.131 121.674 161.698C120.586 161.292 118.318 160.914 117.221 160.527C116.124 160.14 115.46 159.605 114.953 160.453L116.364 161.652C118.613 163.791 118.208 164.252 118.383 165.58C118.723 166.981 119.208 168.344 119.83 169.646C118.254 168.281 117.479 166.972 116.142 167.479C114.806 167.986 114.621 167.949 112.98 170.19C111.339 172.43 110.97 173.232 111.136 173.804Z" fill="#7F3A6A"/>
<path opacity="0.4" d="M111.136 173.804C111.357 174.449 112.473 175.297 112.98 175.768C114.529 177.522 115.716 179.565 116.474 181.779C120.457 191.58 117.396 197.518 123.574 200.32C125.344 201.021 128.589 200.136 132.407 192.779C134.352 189.017 134.555 182 132.987 179.133C131.42 176.265 129.687 174.523 128.599 172.292C127.511 170.06 127.04 165.626 125.362 163.846C124.308 162.865 123.048 162.131 121.674 161.698C120.586 161.292 118.318 160.914 117.221 160.527C116.124 160.14 115.46 159.605 114.953 160.453L116.364 161.652C118.613 163.791 118.208 164.252 118.383 165.58C118.723 166.981 119.208 168.344 119.83 169.646C118.254 168.281 117.479 166.972 116.142 167.479C114.806 167.986 114.621 167.949 112.98 170.19C111.339 172.43 110.97 173.232 111.136 173.804Z" fill="black"/>
<path opacity="0.3" d="M132.379 192.779C134.324 189.017 134.527 182 132.96 179.133C132.436 178.18 131.86 177.257 131.236 176.367C131.309 176.57 131.411 176.763 131.475 176.939C131.614 177.326 131.733 177.713 131.853 178.1C132.373 179.618 132.494 181.243 132.204 182.821C131.863 184.195 131.125 187.634 129.438 188.021C128.516 188.242 127.474 187.449 126.893 186.426C126.653 186.002 126.165 184.812 126.165 184.812C124.657 185.467 123.266 186.361 122.043 187.459C119.867 189.57 120.024 189.92 120.024 189.92C120.307 190.61 120.472 191.343 120.513 192.087C120.512 192.9 120.333 193.703 119.987 194.438C119.836 194.666 119.656 194.874 119.452 195.056C119.627 196.21 120.096 197.299 120.815 198.218C121.534 199.137 122.478 199.855 123.555 200.302C125.316 201.012 128.562 200.136 132.379 192.779Z" fill="black"/>
<path d="M116.447 181.779C117.48 184.362 118.204 187.057 118.604 189.81C120.024 192.244 120.826 192.013 120.688 190.64C120.55 189.266 117.701 183.992 115.497 179.576C115.847 180.332 116.161 181.069 116.447 181.779Z" fill="#37474F"/>
<path d="M119.6 164.28C119.466 162.939 118.869 161.687 117.913 160.739C117.669 160.681 117.429 160.611 117.194 160.527C116.004 160.121 115.432 159.605 114.925 160.453L116.336 161.652C118.586 163.791 118.18 164.252 118.355 165.58C118.695 166.981 119.18 168.344 119.803 169.646C121.647 173.878 122.891 175.178 124.155 179.271C125.418 183.365 125.077 186.325 125.75 186.444C126.423 186.564 127.483 185.882 127.077 182.489C126.672 179.096 124.145 173.748 122.596 171.268C121.047 168.788 119.72 166.114 119.6 164.28Z" fill="#37474F"/>
<path d="M126.506 185.071C126.456 185.139 126.39 185.194 126.312 185.227C125.027 185.647 123.84 186.319 122.818 187.204C121.797 188.089 120.963 189.169 120.365 190.381C120.337 190.43 120.3 190.473 120.256 190.507C120.212 190.541 120.161 190.566 120.107 190.581C120.053 190.595 119.997 190.599 119.942 190.592C119.886 190.584 119.833 190.566 119.784 190.538C119.736 190.51 119.693 190.473 119.659 190.429C119.625 190.385 119.6 190.334 119.585 190.28C119.571 190.226 119.567 190.17 119.574 190.115C119.581 190.059 119.6 190.006 119.628 189.957C120.272 188.662 121.166 187.507 122.257 186.558C123.349 185.608 124.617 184.884 125.989 184.425C126.041 184.404 126.097 184.394 126.153 184.395C126.209 184.396 126.265 184.407 126.316 184.43C126.367 184.452 126.414 184.484 126.453 184.525C126.492 184.565 126.522 184.613 126.543 184.665C126.57 184.73 126.581 184.802 126.575 184.872C126.568 184.943 126.545 185.011 126.506 185.071Z" fill="#EBEBEB"/>
<path d="M125.326 181.65C125.28 181.719 125.216 181.773 125.141 181.807C122.428 182.811 120.197 184.808 118.899 187.394C118.872 187.445 118.834 187.49 118.788 187.526C118.742 187.562 118.69 187.588 118.634 187.602C118.577 187.617 118.519 187.62 118.461 187.611C118.404 187.602 118.349 187.582 118.3 187.551C118.201 187.493 118.129 187.399 118.1 187.288C118.071 187.177 118.086 187.06 118.143 186.961C119.533 184.214 121.906 182.091 124.791 181.014C124.843 180.989 124.899 180.976 124.956 180.974C125.013 180.972 125.07 180.982 125.124 181.002C125.177 181.023 125.226 181.054 125.267 181.094C125.308 181.134 125.34 181.182 125.362 181.235C125.393 181.301 125.406 181.375 125.4 181.447C125.393 181.52 125.368 181.59 125.326 181.65Z" fill="#EBEBEB"/>
<path d="M124.689 177.833C124.633 177.905 124.561 177.962 124.477 177.999C121.453 179.145 118.966 181.382 117.507 184.268C117.477 184.325 117.435 184.375 117.385 184.416C117.335 184.456 117.278 184.486 117.216 184.504C117.154 184.521 117.089 184.526 117.025 184.518C116.961 184.511 116.9 184.49 116.844 184.458C116.789 184.426 116.74 184.382 116.701 184.331C116.662 184.28 116.635 184.221 116.619 184.159C116.603 184.096 116.6 184.032 116.61 183.968C116.62 183.904 116.643 183.844 116.677 183.789C118.236 180.721 120.882 178.344 124.099 177.123C124.157 177.097 124.219 177.083 124.282 177.082C124.344 177.08 124.407 177.092 124.465 177.115C124.524 177.138 124.577 177.173 124.622 177.217C124.667 177.261 124.702 177.314 124.726 177.372C124.757 177.446 124.77 177.527 124.763 177.607C124.757 177.687 124.732 177.764 124.689 177.833Z" fill="#EBEBEB"/>
<path d="M123.518 174.652C123.469 174.726 123.398 174.784 123.316 174.818C120.355 175.933 117.921 178.118 116.493 180.94C116.465 180.998 116.425 181.05 116.376 181.092C116.327 181.135 116.269 181.166 116.207 181.185C116.145 181.204 116.08 181.21 116.016 181.203C115.952 181.195 115.89 181.175 115.834 181.142C115.778 181.11 115.729 181.066 115.69 181.014C115.652 180.962 115.625 180.903 115.611 180.839C115.596 180.776 115.595 180.711 115.608 180.647C115.62 180.584 115.645 180.523 115.681 180.47C117.206 177.473 119.793 175.152 122.938 173.961C123.051 173.911 123.18 173.908 123.296 173.953C123.412 173.998 123.505 174.087 123.555 174.2C123.589 174.272 123.603 174.352 123.596 174.431C123.59 174.51 123.563 174.586 123.518 174.652Z" fill="#EBEBEB"/>
<path d="M121.721 171.683C121.671 171.757 121.6 171.815 121.518 171.849C118.556 172.962 116.122 175.152 114.704 177.98C114.637 178.085 114.534 178.16 114.414 178.19C114.294 178.221 114.167 178.206 114.059 178.146C114.005 178.116 113.957 178.075 113.919 178.026C113.881 177.976 113.853 177.92 113.836 177.86C113.82 177.8 113.816 177.738 113.824 177.676C113.832 177.614 113.852 177.555 113.884 177.501C115.411 174.506 117.997 172.186 121.14 170.992C121.253 170.942 121.382 170.939 121.498 170.984C121.614 171.029 121.707 171.118 121.757 171.231C121.791 171.304 121.805 171.383 121.798 171.462C121.792 171.541 121.765 171.617 121.721 171.683Z" fill="#EBEBEB"/>
<path d="M122.513 106.774C122.513 106.774 85.9101 114.86 72.6333 118.465C59.0799 122.153 60.5089 132.664 65.5523 138.003C75.2148 148.246 102.672 167.11 102.672 167.11C102.672 167.11 110.444 162.334 111.044 155.124L103.511 144.457L130.784 141.128L134.665 136.426L122.513 106.774Z" fill="#455A64"/>
<path d="M96.9095 156.12C98.8457 151.62 100.598 150.247 105.337 147.038L111.053 155.142C110.454 162.325 102.681 167.128 102.681 167.128C102.681 167.128 99.5188 164.953 94.9549 161.679C95.5047 159.792 96.1572 157.936 96.9095 156.12Z" fill="#37474F"/>
<path d="M98.7535 133.78C101.123 135.863 103.207 137.763 105.032 139.598C106.858 141.432 111.062 141.442 114.824 139.598C119.489 137.283 124.44 133.337 127.326 131.069C123.076 126.33 124.8 119.378 124.8 119.378C125.224 123.896 127.262 127.676 129.41 129.437L131.715 131.06L132.545 138.215L131.254 141.027L103.511 144.475C95.8953 134.573 93.2676 130.027 86.9151 129.271C86.9058 129.271 91.7279 127.602 98.7535 133.78Z" fill="#37474F"/>
<path d="M103.419 212.426L103.806 211.117L112.685 188.067L95.9322 181.797C93.7563 193.636 91.0732 209.245 88.5562 213.348C88.5562 213.348 93.0924 220.383 97.5733 219.563C102.054 218.742 103.198 215.128 103.419 212.426Z" fill="#FFA8A7"/>
<path d="M102.838 220.835C102.708 221.763 102.395 222.657 101.916 223.463C101.455 224.329 97.8684 226.007 96.4854 227.317C95.1024 228.626 94.8535 229.216 93.2215 231.06C91.3775 233.098 90.1697 235.771 83.4299 236.998C76.6901 238.224 72.412 236.786 69.7197 235.089C68.7781 234.427 68.0096 233.548 67.4793 232.526C67.4793 232.526 67.0183 228.709 69.1573 228.211C71.2963 227.713 102.838 220.835 102.838 220.835Z" fill="#263238"/>
<path d="M89.1647 210.158C88.5876 210.848 88.1324 211.63 87.8186 212.472C86.59 214.465 84.9831 216.197 83.0887 217.571C74.8829 224.237 68.3367 223.02 67.4147 229.769C67.258 231.669 69.0559 234.518 77.2064 236.011C81.3738 236.776 88.1413 234.923 90.4278 232.581C92.7144 230.239 93.8669 228.082 95.6832 226.395C97.4996 224.707 101.612 222.946 102.82 220.863C103.451 219.567 103.785 218.146 103.797 216.704C103.871 215.543 103.898 211.633 103.898 211.633C102.506 214.399 100.339 214.104 99.1315 214.685C97.8882 215.422 96.7236 216.284 95.6556 217.258C96.5038 215.358 97.4996 214.234 96.6513 213.09C95.8031 211.947 95.7293 211.772 93.1385 210.859C90.5477 209.946 89.6534 209.808 89.1647 210.158Z" fill="#7F3A6A"/>
<path opacity="0.4" d="M89.1647 210.158C88.5876 210.848 88.1324 211.63 87.8186 212.472C86.59 214.465 84.9831 216.197 83.0887 217.571C74.8829 224.237 68.3367 223.02 67.4147 229.769C67.258 231.669 69.0559 234.518 77.2064 236.011C81.3738 236.776 88.1413 234.923 90.4278 232.581C92.7144 230.239 93.8669 228.082 95.6832 226.395C97.4996 224.707 101.612 222.946 102.82 220.863C103.451 219.567 103.785 218.146 103.797 216.704C103.871 215.543 103.898 211.633 103.898 211.633C102.506 214.399 100.339 214.104 99.1315 214.685C97.8882 215.422 96.7236 216.284 95.6556 217.258C96.5038 215.358 97.4996 214.234 96.6513 213.09C95.8031 211.947 95.7293 211.772 93.1385 210.859C90.5477 209.946 89.6534 209.808 89.1647 210.158Z" fill="black"/>
<path opacity="0.3" d="M77.2248 236.048C81.3922 236.813 88.1597 234.96 90.4463 232.618C91.1994 231.845 91.9075 231.029 92.5669 230.175C92.4009 230.304 92.2442 230.461 92.0967 230.571C91.7647 230.811 91.4328 231.042 91.0917 231.263C89.7952 232.207 88.2773 232.801 86.6845 232.987C85.2646 233.061 81.7703 233.356 80.8944 231.844C80.4057 230.986 80.8944 229.806 81.6781 228.958C82.0192 228.598 83.0057 227.778 83.0057 227.778C81.9401 226.529 80.679 225.461 79.2716 224.615C76.6163 223.149 76.3305 223.398 76.3305 223.398C75.7562 223.872 75.1043 224.244 74.4035 224.495C73.6283 224.735 72.8099 224.801 72.0063 224.689C71.7421 224.608 71.4884 224.497 71.2503 224.357C70.1975 224.858 69.2926 225.624 68.6236 226.579C67.9547 227.533 67.5445 228.645 67.4332 229.806C67.2764 231.668 69.0743 234.517 77.2248 236.048Z" fill="black"/>
<path d="M83.0888 217.608C80.9234 219.348 78.5587 220.824 76.0447 222.006C74.1269 224.08 74.5879 224.772 75.8603 224.246C77.1326 223.721 81.3462 219.452 84.8959 216.059C84.2966 216.566 83.6881 217.082 83.0888 217.608Z" fill="#37474F"/>
<path d="M100.745 215.478C101.887 215.2 102.95 214.664 103.852 213.911C104.433 213.376 104.037 211.809 103.852 211.145L103.41 212.537C101.778 213.92 100.404 214.104 99.1961 214.685C97.9528 215.422 96.7881 216.284 95.7201 217.258C92.2165 220.273 91.3314 221.868 87.7909 224.237C84.2504 226.607 81.3369 227.206 81.3923 227.851C81.4476 228.497 82.4433 229.345 85.5689 227.971C88.6945 226.597 93.074 222.605 94.9825 220.411C96.8911 218.217 99.0393 216.124 100.745 215.478Z" fill="#37474F"/>
<path d="M82.8859 228.146C82.8045 228.125 82.7329 228.076 82.6831 228.008C81.9029 226.903 80.9111 225.964 79.7652 225.246C78.6193 224.527 77.3421 224.043 76.0078 223.822C75.8988 223.796 75.8044 223.728 75.7442 223.634C75.684 223.539 75.6629 223.425 75.6851 223.315C75.7114 223.207 75.7793 223.113 75.8742 223.054C75.9692 222.996 76.0834 222.977 76.1922 223.002C79.0636 223.49 81.6237 225.099 83.31 227.473C83.3671 227.544 83.4 227.631 83.4041 227.721C83.4082 227.812 83.3831 227.901 83.3326 227.977C83.282 228.052 83.2087 228.109 83.1233 228.14C83.038 228.17 82.9451 228.173 82.8582 228.146H82.8859Z" fill="#EBEBEB"/>
<path d="M85.781 226.035C85.7029 226.007 85.6331 225.959 85.5781 225.897C83.8271 223.595 81.2658 222.046 78.4142 221.563C78.3577 221.552 78.3042 221.528 78.2569 221.495C78.2097 221.462 78.1698 221.419 78.1396 221.37C78.1094 221.321 78.0895 221.266 78.0812 221.209C78.073 221.152 78.0765 221.094 78.0915 221.038C78.1178 220.927 78.1868 220.831 78.2834 220.771C78.3801 220.71 78.4966 220.69 78.6078 220.715C81.6429 221.234 84.3697 222.881 86.242 225.325C86.2793 225.368 86.3076 225.418 86.3251 225.473C86.3425 225.527 86.3489 225.584 86.3437 225.641C86.3386 225.698 86.322 225.753 86.295 225.803C86.268 225.854 86.2312 225.898 86.1866 225.934C86.1331 225.983 86.0678 226.019 85.9969 226.037C85.9259 226.054 85.8516 226.054 85.781 226.035Z" fill="#EBEBEB"/>
<path d="M89.2753 224.292C89.1896 224.264 89.1131 224.213 89.0541 224.145C87.077 221.585 84.211 219.861 81.0234 219.314C80.9171 219.271 80.8297 219.191 80.7772 219.089C80.7247 218.987 80.7105 218.869 80.7373 218.757C80.7641 218.646 80.83 218.548 80.9232 218.48C81.0163 218.413 81.1304 218.382 81.2447 218.392C84.6296 218.99 87.672 220.823 89.7824 223.536C89.8242 223.585 89.8559 223.641 89.8758 223.701C89.8956 223.762 89.9032 223.826 89.898 223.889C89.8929 223.953 89.8751 224.015 89.8457 224.071C89.8164 224.128 89.7761 224.178 89.7271 224.219C89.6639 224.268 89.5895 224.3 89.5106 224.313C89.4317 224.326 89.3508 224.319 89.2753 224.292Z" fill="#EBEBEB"/>
<path d="M91.9768 222.218C91.8906 222.196 91.8133 222.147 91.7555 222.08C89.8289 219.57 87.0275 217.878 83.9093 217.341C83.8489 217.328 83.7917 217.303 83.7411 217.267C83.6905 217.232 83.6476 217.186 83.6149 217.134C83.5823 217.081 83.5604 217.023 83.5508 216.962C83.5412 216.901 83.544 216.838 83.559 216.778C83.5875 216.657 83.6626 216.553 83.768 216.487C83.8733 216.421 84.0004 216.4 84.1214 216.428C87.431 217.013 90.405 218.807 92.4655 221.462C92.5061 221.509 92.5371 221.563 92.5568 221.621C92.5764 221.68 92.5843 221.742 92.5801 221.803C92.5758 221.865 92.5594 221.925 92.5318 221.981C92.5042 222.036 92.466 222.085 92.4194 222.126C92.3597 222.178 92.2877 222.214 92.2102 222.23C92.1327 222.246 92.0523 222.242 91.9768 222.218Z" fill="#EBEBEB"/>
<path d="M94.291 219.664C94.2041 219.638 94.127 219.587 94.0698 219.517C92.139 217.013 89.339 215.325 86.2235 214.787C86.1023 214.758 85.9969 214.683 85.9298 214.578C85.8627 214.473 85.839 214.346 85.8639 214.224C85.878 214.163 85.904 214.106 85.9405 214.055C85.977 214.005 86.0231 213.962 86.0763 213.929C86.1295 213.897 86.1887 213.875 86.2504 213.865C86.3121 213.856 86.375 213.859 86.4356 213.874C89.7474 214.453 92.7234 216.248 94.7797 218.908C94.8203 218.955 94.8513 219.009 94.871 219.067C94.8906 219.126 94.8985 219.188 94.8943 219.249C94.89 219.311 94.8736 219.371 94.846 219.427C94.8184 219.482 94.7803 219.531 94.7336 219.572C94.674 219.624 94.6019 219.66 94.5244 219.676C94.4469 219.692 94.3665 219.688 94.291 219.664Z" fill="#EBEBEB"/>
<path d="M90.9165 202.856C95.3052 207.42 105.89 207.097 105.89 207.097C105.89 207.097 108.932 201.279 114.428 188.565C117.498 181.456 119.203 178.239 120.503 168.281C129.816 163.717 146.384 157.162 162.086 145.425C173.334 137.016 175.104 125.602 173.675 112.076C171.923 95.4799 123.122 109.033 123.122 109.033C126.349 118.05 125.621 126.929 131.715 131.014C131.715 131.014 112.067 145.111 105.429 150.145C102.386 152.45 100.948 153.216 99.4819 160.223C95.1946 180.793 90.9165 202.856 90.9165 202.856Z" fill="#455A64"/>
<path d="M103.594 207.051L102.672 206.996C106.056 200.652 111.154 187.025 113.054 181.18C113.671 179.271 114.944 173.878 115.322 172.412C117.12 165.358 117.378 162.795 119.314 162.14C119.803 161.965 120.872 161.338 122.541 160.509C131.051 156.295 151.63 145.84 158.739 139.164C158.951 138.961 159.135 138.759 159.338 138.556C155.752 136.481 154.645 131.014 155.945 127.123C157.328 122.965 157.245 115.45 155.023 112.371L155.659 111.919C158.213 115.533 157.955 123.499 156.655 127.39C155.438 131.078 156.581 136.241 159.882 137.993C166.52 130.922 168.18 121.176 164.806 109.679L165.552 109.457C169.24 121.914 167.083 132.388 159.246 139.745C152.054 146.503 131.392 156.996 122.864 161.228C121.26 162.03 120.098 162.601 119.655 162.841C117.811 163.837 117.138 168.687 116.078 172.753C115.691 174.237 114.409 179.566 113.745 181.493C111.745 187.403 106.766 200.874 103.594 207.051Z" fill="#37474F"/>
<path d="M100.007 179.419L102.672 177.879L109.605 265.109L106.932 266.649L100.007 179.419Z" fill="#455A64"/>
<path d="M100.007 179.419L96.0152 177.114L104.267 265.109L106.932 266.649L100.007 179.419Z" fill="#37474F"/>
<path d="M27.1786 137.44L29.8432 135.9L21.5913 214.363L18.9268 215.902L27.1786 137.44Z" fill="#455A64"/>
<path d="M27.1786 137.44L23.1864 135.135L16.2529 214.363L18.9268 215.902L27.1786 137.44Z" fill="#37474F"/>
<path d="M146.587 152.561L149.251 151.021L156.185 238.242L153.511 239.782L146.587 152.561Z" fill="#455A64"/>
<path d="M146.587 152.561L142.595 150.256L150.847 238.242L153.511 239.782L146.587 152.561Z" fill="#37474F"/>
<path d="M73.7581 110.582L76.4227 109.042L68.1708 187.505L65.5062 189.044L73.7581 110.582Z" fill="#455A64"/>
<path d="M73.7581 110.582L69.7566 108.268L62.8324 187.505L65.5062 189.044L73.7581 110.582Z" fill="#37474F"/>
<path d="M171.462 151.224V148.071C171.444 147.789 171.361 147.516 171.221 147.271C171.08 147.027 170.885 146.817 170.651 146.66L69.646 88.2606C69.3934 88.1369 69.1159 88.0725 68.8346 88.0725C68.5533 88.0725 68.2758 88.1369 68.0233 88.2606L1.35342 126.809C1.11928 126.967 0.924389 127.176 0.783726 127.42C0.643063 127.665 0.560398 127.939 0.542084 128.22V131.383C0.561771 131.662 0.645091 131.934 0.785696 132.177C0.9263 132.42 1.12046 132.628 1.35342 132.784L102.368 191.137C102.618 191.269 102.896 191.338 103.179 191.338C103.462 191.338 103.74 191.269 103.99 191.137L170.651 152.589C170.883 152.439 171.077 152.239 171.217 152.002C171.358 151.765 171.442 151.499 171.462 151.224Z" fill="#7F3A6A"/>
<path opacity="0.2" d="M171.462 151.224V148.071C171.444 147.789 171.361 147.516 171.221 147.271C171.08 147.027 170.885 146.817 170.651 146.66L69.646 88.2606C69.3934 88.1369 69.1159 88.0725 68.8346 88.0725C68.5533 88.0725 68.2758 88.1369 68.0233 88.2606L1.35342 126.809C1.11928 126.967 0.924389 127.176 0.783726 127.42C0.643063 127.665 0.560398 127.939 0.542084 128.22V131.383C0.561771 131.662 0.645091 131.934 0.785696 132.177C0.9263 132.42 1.12046 132.628 1.35342 132.784L102.368 191.137C102.618 191.269 102.896 191.338 103.179 191.338C103.462 191.338 103.74 191.269 103.99 191.137L170.651 152.589C170.883 152.439 171.077 152.239 171.217 152.002C171.358 151.765 171.442 151.499 171.462 151.224Z" fill="white"/>
<path d="M103.179 186.306V191.331C103.46 191.334 103.738 191.271 103.99 191.147L170.651 152.589C170.888 152.436 171.084 152.229 171.225 151.985C171.366 151.742 171.448 151.468 171.462 151.187V148.025C171.451 147.773 171.385 147.527 171.271 147.303C171.156 147.079 170.995 146.882 170.799 146.725C171.094 146.974 171.048 147.324 170.651 147.554L103.99 186.103C103.743 186.242 103.463 186.312 103.179 186.306Z" fill="#7F3A6A"/>
<path d="M170.651 147.536L103.99 186.085C103.738 186.209 103.46 186.273 103.179 186.273C102.898 186.273 102.62 186.209 102.368 186.085L1.35343 127.75C1.26183 127.712 1.18346 127.649 1.12827 127.567C1.07309 127.484 1.04361 127.388 1.04361 127.289C1.04361 127.19 1.07309 127.093 1.12827 127.011C1.18346 126.929 1.26183 126.865 1.35343 126.828L68.0233 88.279C68.2758 88.1553 68.5534 88.0909 68.8346 88.0909C69.1159 88.0909 69.3934 88.1553 69.646 88.279L170.651 146.614C170.743 146.651 170.821 146.715 170.876 146.797C170.931 146.879 170.961 146.976 170.961 147.075C170.961 147.174 170.931 147.271 170.876 147.353C170.821 147.435 170.743 147.499 170.651 147.536Z" fill="#7F3A6A"/>
<path opacity="0.5" d="M170.651 147.536L103.99 186.085C103.738 186.209 103.46 186.273 103.179 186.273C102.898 186.273 102.62 186.209 102.368 186.085L1.35343 127.75C1.26183 127.712 1.18346 127.649 1.12827 127.567C1.07309 127.484 1.04361 127.388 1.04361 127.289C1.04361 127.19 1.07309 127.093 1.12827 127.011C1.18346 126.929 1.26183 126.865 1.35343 126.828L68.0233 88.279C68.2758 88.1553 68.5534 88.0909 68.8346 88.0909C69.1159 88.0909 69.3934 88.1553 69.646 88.279L170.651 146.614C170.743 146.651 170.821 146.715 170.876 146.797C170.931 146.879 170.961 146.976 170.961 147.075C170.961 147.174 170.931 147.271 170.876 147.353C170.821 147.435 170.743 147.499 170.651 147.536Z" fill="white"/>
<path opacity="0.2" d="M31.678 119.157L67.1474 98.67C67.4565 98.4893 67.8081 98.3941 68.1662 98.3941C68.5242 98.3941 68.8758 98.4893 69.185 98.67L130.775 134.232C130.844 134.271 130.901 134.328 130.941 134.397C130.981 134.466 131.002 134.544 131.002 134.623C131.002 134.703 130.981 134.781 130.941 134.85C130.901 134.919 130.844 134.976 130.775 135.015L94.9364 155.714L31.678 119.157Z" fill="black"/>
<path d="M36.6753 116.188V116.953C36.67 117.511 36.8121 118.061 37.0873 118.547C37.3626 119.032 37.7611 119.437 38.2426 119.719L93.2584 151.473C93.7335 151.752 94.2748 151.898 94.8258 151.897C95.3824 151.897 95.9294 151.751 96.4116 151.473L126.395 134.213C126.879 133.933 127.279 133.529 127.554 133.043C127.83 132.557 127.971 132.006 127.962 131.447V130.387C127.965 130.457 127.949 130.527 127.914 130.589C127.88 130.651 127.83 130.702 127.769 130.737L94.835 149.749L36.6753 116.188Z" fill="#37474F"/>
<path d="M36.666 116.188L69.2864 97.3515C69.5685 97.1949 69.8858 97.1127 70.2084 97.1127C70.531 97.1127 70.8484 97.1949 71.1304 97.3515L127.76 130.018C127.823 130.054 127.875 130.107 127.912 130.17C127.948 130.233 127.968 130.305 127.968 130.378C127.968 130.451 127.948 130.522 127.912 130.585C127.875 130.648 127.823 130.701 127.76 130.737L94.8258 149.749L36.666 116.188Z" fill="#455A64"/>
<path d="M95.1301 146.974L112.722 136.822L61.2742 107.115L43.5903 117.211L95.1301 146.974Z" fill="#37474F"/>
<path d="M43.5903 117.211L44.2633 117.599L61.2834 107.89L112.049 137.21L112.722 136.822L61.2834 107.115L43.5903 117.211Z" fill="#263238"/>
<path d="M103.778 118.742L103.456 118.926L94.8258 123.905L79.4929 115.054L79.1702 114.87L88.1228 109.706L103.778 118.742Z" fill="#263238"/>
<path d="M103.456 118.926L94.8258 123.905L79.4929 115.054L88.1229 110.075L103.456 118.926Z" fill="#37474F"/>
<path d="M94.8258 149.74V151.833C94.275 151.833 93.7341 151.686 93.2584 151.408L38.2427 119.645C37.763 119.372 37.3644 118.976 37.0875 118.498C36.8105 118.02 36.6651 117.478 36.6661 116.926V116.188L94.8258 149.74Z" fill="#263238"/>
<path d="M90.686 88.8968C96.1073 86.7946 109.716 80.8109 109.716 80.8109C109.716 80.8109 121.997 60.2134 124.689 55.9169C127.907 50.7444 132.462 46.8813 139.921 47.4713L138.63 69.0277C138.63 69.0277 125.39 88.0117 123.021 91.1557C121.223 93.5345 121.333 94.2075 116.567 95.1941L94.0329 99.9055L93.1109 100.173C92.4888 100.355 91.9403 100.73 91.5434 101.242C91.1542 101.759 90.8205 102.315 90.5477 102.902C89.6257 104.912 89.681 105.594 88.7037 107.77C87.7264 109.946 87.2654 109.743 85.7441 111.412C84.3334 112.943 83.7249 114.003 83.0334 113.846C82.3419 113.689 82.0007 111.928 82.4986 110.435C82.9965 108.941 84.4625 107.613 84.7022 106.996C84.9419 106.378 84.8774 105.484 83.1809 105.843C81.4844 106.203 77.7964 109.485 76.1553 110.886C74.5141 112.288 73.1772 114.427 71.6836 115.331C70.1899 116.234 70.2637 114.694 70.1715 113.367C70.0793 112.039 68.7055 110.011 68.7147 107.908C68.724 105.806 71.0658 100.726 73.1956 99.0204C75.3255 97.3147 79.456 94.3643 80.5716 93.7281C83.791 91.8169 87.1762 90.1999 90.686 88.8968Z" fill="#FFA8A7"/>
<path d="M140.52 47.2316C137.302 46.9366 133.301 47.0749 129.954 49.7026C126.607 52.3303 124.938 54.5708 119.987 62.9425C115.036 71.3143 112.611 75.6016 112.611 75.6016C113.829 78.5224 115.894 81.0113 118.54 82.7471C121.2 84.2876 124.079 85.4161 127.077 86.0939L139.552 69.0554L140.52 47.2316Z" fill="#7F3A6A"/>
<path d="M126.773 67.2298C128.082 52.6438 133.08 47.7572 140.52 47.2316C145.963 47.4624 151.39 47.9918 156.775 48.8175C163.034 50.2166 169.048 52.5476 174.616 55.7325C178.304 58.0375 179.484 62.9702 179.558 73.3058C179.553 83.2639 178.906 93.2114 177.621 103.086C176.655 111.771 174.952 120.358 172.532 128.755C162.261 132.185 121.545 119.728 121.822 106.691C122.882 103.704 124.717 100.237 125.556 94.2167C126.644 83.5953 126.358 71.8121 126.773 67.2298Z" fill="#263238"/>
<path d="M161.45 43.4883C162.445 39.4684 166.816 35.5314 168.908 32.12C171.001 28.7086 172.182 26.2561 172.218 23.0199C172.218 21.1021 171.241 18.4099 169.877 17.7829C172.043 10.8218 167.009 7.59483 164.686 6.57141C163.662 6.11963 161.385 5.37281 160.389 4.86571C158.905 4.10967 158.647 2.84653 157.494 1.70325C155.503 -0.269826 151.962 -0.583302 150.339 2.05362C149.058 0.108198 147.131 0.0159852 144.872 0.412445C143.918 0.554261 143.053 1.05289 142.452 1.8076C141.852 2.56231 141.56 3.51687 141.636 4.47847C138.796 2.58837 135.91 4.47848 135.504 6.20262C135.209 7.47498 135.394 8.58137 134.472 9.67855C133.55 10.7757 131.623 10.7481 131.162 9.67855C130.719 11.5225 131.328 12.9332 133.319 12.9885C132.942 13.4695 132.675 14.0282 132.54 14.6246C132.404 15.2209 132.403 15.8399 132.536 16.4368C132.716 17.1881 133.122 17.8663 133.699 18.3804C134.275 18.8946 134.996 19.2201 135.763 19.3134C135.771 20.3045 136.001 21.2811 136.436 22.1717C136.969 23.096 137.715 23.8798 138.612 24.4582C141.507 26.1178 144.798 26.837 147.979 27.7498L151.759 28.8377C151.981 28.9022 153.142 29.059 153.262 29.271L161.45 43.4883Z" fill="#263238"/>
<path d="M166.779 38.5924C166.035 39.0482 165.162 39.2455 164.295 39.1538C163.428 39.0621 162.616 38.6865 161.984 38.0853L161.173 51.5281C158.508 57.0601 148.615 57.3275 145.167 55.4282C141.719 53.5289 142.336 51.4544 144.9 48.4118L144.817 46.1989C143.199 46.1017 141.588 45.9046 139.995 45.6089C136.832 44.9358 134.629 42.1606 133.983 38.6386C133.312 34.0635 133.531 29.4018 134.629 24.91C134.926 23.8229 135.069 22.6993 135.053 21.5723C135.004 19.1122 135.532 16.6748 136.592 14.4545C140.28 11.9006 148.514 11.5502 155.742 16.7318C154.525 21.1667 156.001 24.8731 159.154 26.8738C158.905 28.0817 158.518 31.1427 160.528 31.2349C161.966 31.3087 162.206 29.5015 163.801 28.0263C165.396 26.5511 168.89 26.376 170.052 28.8285C171.665 32.2214 170.052 36.9605 166.779 38.5924Z" fill="#FFA8A7"/>
<path d="M155.078 24.1539L164.446 27.51C163.824 27.8446 163.305 28.3417 162.943 28.9483L154.719 26.376L155.078 24.1539Z" fill="#263238"/>
<path d="M132.637 20.9546C132.508 21.8766 133.006 22.2085 133.07 22.9092C132.97 24.1796 132.97 25.4559 133.07 26.7263C133.188 27.5744 133.582 28.3603 134.189 28.9633C134.797 29.5663 135.587 29.953 136.436 30.0639C137.332 30.3134 138.285 30.2566 139.146 29.9025C140.006 29.5484 140.723 28.9173 141.184 28.1093C142.106 26.8369 142.152 24.8454 143.388 25.0483C144.623 25.2511 144.125 27.2242 144.577 28.7363C144.794 29.7038 145.308 30.5794 146.047 31.2406C146.786 31.9019 147.713 32.3157 148.698 32.4243C149.286 32.5735 149.899 32.5948 150.495 32.4866C151.092 32.3784 151.658 32.1434 152.156 31.7973C153.649 30.7001 153.954 28.5427 154.525 27.049C154.793 26.3114 155.447 26.2653 155.632 25.3525C155.816 24.4397 155.143 24.0248 154.415 23.8773C152.299 23.1665 150.082 22.8083 147.85 22.817C145.665 23.0383 144.817 23.5823 143.664 23.3702C142.512 23.1582 142.014 22.3376 140.17 21.3418C138.046 20.4677 135.781 19.9896 133.485 19.9312C133.19 19.9219 132.72 20.3737 132.637 20.9546ZM146.071 24.6426C146.268 24.4661 146.5 24.334 146.753 24.2553H146.873C147.891 23.9496 148.96 23.8494 150.017 23.9603C152.045 24.1447 153.216 24.8823 153.603 25.3341C154.073 26.1086 153.299 28.3582 152.838 29.4093C152.783 29.5292 152.709 29.6583 152.635 29.7873L152.506 29.9902C151.28 32.3044 147.361 31.742 146.181 29.7412C145.287 28.2476 145.296 25.7213 146.071 24.6426ZM134.463 21.6092C134.635 21.4991 134.825 21.4211 135.025 21.3787C135.188 21.3369 135.355 21.3091 135.523 21.2957H135.624C137.468 21.1021 140.603 22.4298 141.212 23.7298C141.534 24.5688 140.99 26.3022 140.437 27.4178C140.282 27.6983 140.094 27.9584 139.875 28.1923C139.073 29.3356 136.454 29.5845 135.099 28.4597C133.743 27.3348 133.799 25.7398 133.799 24.9468C133.826 23.8773 133.955 21.9411 134.463 21.6092Z" fill="#37474F"/>
<path d="M144.356 26.754L142.088 34.2591L137.478 31.3824C137.699 31.1058 137.938 30.8292 138.16 30.5434C138.27 30.4051 138.39 30.2668 138.492 30.1193L139.183 29.271C139.792 28.5242 140.409 27.7958 140.981 27.1504C141.401 26.6854 141.847 26.2452 142.318 25.832C142.576 25.5923 142.834 25.3802 143.037 25.2234C143.113 25.1619 143.193 25.1064 143.277 25.0575H143.443C144.162 25.1866 144.282 25.8781 144.356 26.754Z" fill="#F28F8F"/>
<path d="M144.817 46.199C149.924 45.9777 153.815 45.7195 156.729 42.2528C158.098 40.4583 159.272 38.5235 160.232 36.4811C159.709 39.0714 158.775 41.5614 157.466 43.8571C156.01 46.1068 152.856 47.9415 144.854 48.0245L144.817 46.199Z" fill="#F28F8F"/>
<path d="M147.029 27.0121C147.002 27.2011 147.012 27.3936 147.06 27.5786C147.107 27.7635 147.191 27.9373 147.306 28.0898C147.42 28.2424 147.564 28.3707 147.729 28.4674C147.894 28.5641 148.076 28.6273 148.265 28.6533C148.65 28.6921 149.034 28.5772 149.335 28.3337C149.635 28.0902 149.827 27.7378 149.869 27.3533C149.892 27.1668 149.877 26.9778 149.826 26.7969C149.776 26.6161 149.69 26.447 149.574 26.2993C149.458 26.1516 149.314 26.0282 149.15 25.9362C148.987 25.8441 148.806 25.7852 148.62 25.7628C148.433 25.7404 148.244 25.755 148.064 25.8056C147.883 25.8563 147.714 25.9421 147.566 26.0581C147.418 26.1741 147.295 26.3181 147.203 26.4818C147.111 26.6454 147.052 26.8257 147.029 27.0121Z" fill="#263238"/>
<path d="M149.307 21.0284L152.497 22.439C152.674 22.0023 152.677 21.5144 152.506 21.0754C152.334 20.6365 152.001 20.2798 151.575 20.0787C151.364 19.9875 151.137 19.9398 150.908 19.9384C150.678 19.9371 150.45 19.9821 150.239 20.0708C150.027 20.1594 149.835 20.29 149.675 20.4545C149.515 20.6191 149.39 20.8142 149.307 21.0284Z" fill="#263238"/>
<path d="M147.97 35.8726L143.129 36.896C143.286 37.5493 143.689 38.1168 144.254 38.4794C144.82 38.8421 145.504 38.9718 146.163 38.8414C146.479 38.7703 146.778 38.6361 147.042 38.447C147.305 38.2579 147.528 38.0176 147.696 37.7406C147.865 37.4635 147.976 37.1553 148.023 36.8344C148.07 36.5134 148.052 36.1863 147.97 35.8726Z" fill="#B16668"/>
<path d="M144.798 38.74C144.975 38.0419 145.403 37.4333 146 37.0303C146.596 36.6273 147.321 36.4581 148.034 36.5549C148.024 37.0866 147.837 37.5997 147.504 38.0137C147.17 38.4276 146.708 38.7188 146.19 38.8414C145.726 38.9391 145.244 38.9039 144.798 38.74Z" fill="#F28F8F"/>
<path d="M136.436 19.9589L139.958 19.8298C139.959 19.6007 139.914 19.3737 139.825 19.1625C139.737 18.9512 139.606 18.7602 139.442 18.6008C139.277 18.4414 139.082 18.317 138.868 18.235C138.654 18.1531 138.426 18.1154 138.197 18.1241C137.724 18.1454 137.277 18.3478 136.949 18.6893C136.621 19.0309 136.438 19.4855 136.436 19.9589Z" fill="#263238"/>
<path d="M136.15 25.0391C136.15 25.3193 136.233 25.5933 136.387 25.827C136.542 26.0607 136.762 26.2437 137.02 26.3533C137.278 26.4629 137.562 26.4942 137.838 26.4434C138.114 26.3926 138.368 26.2619 138.57 26.0675C138.772 25.8732 138.912 25.6237 138.974 25.3502C139.035 25.0768 139.014 24.7913 138.914 24.5294C138.815 24.2675 138.64 24.0407 138.413 23.8772C138.185 23.7138 137.914 23.6208 137.634 23.61C137.443 23.6051 137.252 23.6383 137.073 23.7077C136.895 23.7771 136.731 23.8813 136.593 24.0142C136.455 24.1472 136.345 24.3062 136.269 24.4822C136.193 24.6581 136.152 24.8474 136.15 25.0391Z" fill="#263238"/>
<path d="M115.866 109.282C112.915 108.337 109.807 107.986 106.72 108.25C103.234 108.452 100.505 107.503 100.007 107.678C98.1634 108.333 99.3252 111.44 103.778 111.938C107.199 112.325 115.866 109.282 115.866 109.282Z" fill="#F28F8F"/>
<path d="M162.196 120.153C154.295 121.324 130.848 122.31 129.705 122.541C129.235 122.642 127.123 122.983 126.579 123.075C125.409 123.269 124.274 123.509 123.104 123.684C122.434 123.798 121.754 123.847 121.075 123.831C119.48 123.667 117.903 123.358 116.364 122.909C115.133 122.556 113.838 122.48 112.574 122.688C111.016 122.965 109.486 123.334 107.964 123.684C106.721 124.013 105.406 123.945 104.203 123.49C103.791 123.285 103.391 123.057 103.004 122.808C102.395 122.592 101.759 122.461 101.114 122.421C100.612 122.324 100.152 122.076 99.7954 121.711C99.611 121.49 99.5556 121.121 99.3251 120.927C98.9475 120.71 98.5158 120.604 98.0804 120.623C97.4239 120.574 96.7747 120.453 96.1443 120.263C95.3052 119.977 94.1066 119.341 94.3463 118.309C94.4478 117.82 94.835 117.645 95.2683 117.387C95.9598 116.907 96.6975 116.465 97.3521 115.911C98.8642 114.667 100.579 113.68 102.091 112.445C103.43 111.42 105.025 110.782 106.701 110.601C108.481 110.315 110.242 109.882 112.04 109.679C113.506 109.513 114.916 108.96 116.41 109.319C120.033 110.186 123.703 111.864 127.474 111.163C133.006 110.112 157.42 103.492 157.42 103.492L163.312 81.2996C163.312 81.2996 167.424 61.4304 173.675 55.5757C178.193 57.2814 182.277 60.7113 183.614 65.3305C185.2 70.7795 183.55 75.5278 180.443 88.7401C178.082 98.753 177.585 99.6658 174.911 109.07C172.661 116.815 171.868 118.724 162.196 120.153Z" fill="#FFA8A7"/>
<path d="M173.334 54.9949C178.055 57.1708 183.236 60.112 184.49 67.7277C185.744 75.3434 178.553 98.5317 178.553 98.5317C174.875 98.7724 171.185 98.3061 167.682 97.1579C161.228 95.2217 159.808 92.2806 159.808 92.2806C159.808 92.2806 161.993 82.2215 163.247 77.5286C164.501 72.8356 167.046 60.7482 173.334 54.9949Z" fill="#7F3A6A"/>
<path d="M93.9407 150.201C93.4218 150.404 92.8635 150.488 92.3078 150.445C91.7521 150.401 91.2133 150.233 90.7321 149.952L35.9561 118.327C35.4738 118.059 35.0578 117.687 34.7387 117.237C34.4195 116.787 34.2054 116.271 34.1121 115.727L28.1099 79.9626C28.0808 79.7611 28.0654 79.5577 28.0638 79.3541C28.0642 78.3615 28.4588 77.4096 29.1609 76.7079L86.0852 109.577C86.4356 109.781 86.737 110.059 86.968 110.392C87.199 110.725 87.3541 111.105 87.4221 111.504L93.9407 150.201Z" fill="#37474F"/>
<path d="M94.8258 149.74L94.457 149.952C94.2895 150.044 94.1171 150.127 93.9407 150.201L87.4866 111.477C87.4186 111.077 87.2636 110.697 87.0325 110.364C86.8015 110.031 86.5001 109.753 86.1497 109.55L29.2255 76.6803C29.4541 76.4541 29.7114 76.2589 29.9907 76.0994L86.998 109.061C87.3484 109.265 87.6498 109.543 87.8808 109.876C88.1118 110.209 88.2668 110.588 88.3349 110.988L94.8258 149.74Z" fill="#455A64"/>
<path d="M86.9334 110.306L87.8554 109.799C88.1212 110.147 88.2984 110.556 88.3718 110.988L94.8258 149.712L94.457 149.924C94.2895 150.016 94.1171 150.099 93.9406 150.173L87.4866 111.449C87.3957 111.029 87.2061 110.637 86.9334 110.306Z" fill="#263238"/>
<path d="M63.0905 117.193C62.6941 114.796 60.2231 111.615 57.5585 110.084C54.894 108.554 53.0868 109.264 53.4833 111.652C53.8798 114.04 56.3599 117.184 59.0153 118.76C61.6707 120.337 63.4962 119.581 63.0905 117.193Z" fill="#7F3A6A"/>
</svg>
