<svg width="139" height="283" viewBox="0 0 139 283" fill="none" xmlns="http://www.w3.org/2000/svg">
<path d="M56.5554 258.321L59.6809 256.828L56.6107 255.961L56.5554 258.321Z" fill="#263238"/>
<path d="M87.47 264.176C87.47 264.176 50.7468 247.58 50.2673 249.986C50.1654 250.473 50.1654 250.975 50.2673 251.462L50.1659 251.323L50.8205 255.933C52.4591 257.269 54.446 258.107 56.5461 258.349C56.5461 258.128 56.5461 256.763 56.6014 255.989C57.7246 256.461 58.7992 257.042 59.81 257.722C62.1611 259.28 63.664 261.991 66.1534 265.153C67.9974 267.449 71.2152 268.537 76.0464 269.247C81.2373 270.012 85.8196 269.053 87.1104 267.689C88.1892 266.564 87.6913 264.536 87.47 264.176Z" fill="#263238"/>
<path d="M86.4927 263.355C86.1423 262.987 84.8331 261.511 83.0721 259.981C81.5231 258.607 79.716 256.874 77.7798 255.463C76.8467 254.813 75.968 254.089 75.1521 253.296C74.4998 252.614 73.8843 251.896 73.3081 251.148C71.5663 248.827 70.0882 246.319 68.9009 243.671C68.2344 242.429 67.7234 241.11 67.3796 239.743C67.1159 238.307 66.9801 236.851 66.974 235.391C66.974 228.817 67.1215 227.775 67.186 222.778L51.595 223.184C52.0929 225.95 52.8397 229.748 53.0886 232.902C53.4667 237.696 53.5865 238.756 51.6688 243.523C51.0971 244.925 50.2581 246.289 50.1751 247.783C50.0461 250.235 52.0191 252.393 54.1489 253.573C55.9929 254.578 58.0213 255.021 59.7731 256.09C61.547 257.303 63.0896 258.824 64.3278 260.58C65.5633 262.148 66.5406 264.01 68.2832 265.126C70.125 266.208 72.161 266.919 74.2762 267.219C76.9362 267.704 79.6462 267.855 82.3437 267.67C86.1977 267.403 89.0559 266.02 86.4927 263.355Z" fill="#B16668"/>
<path d="M84.3997 260.672C82.8231 259.336 80.5827 257.436 77.872 255.288C76.9394 254.959 75.9477 254.832 74.9624 254.915C73.9771 254.998 73.0205 255.288 72.1556 255.767C66.6236 258.533 65.7016 262.599 65.7016 262.599C66.6156 264.429 68.2115 265.826 70.1456 266.49C76.4521 269.256 87.7927 268.473 87.9218 265.568C87.9955 263.761 86.3175 262.332 84.3997 260.672ZM52.0468 242.491C51.6445 243.435 51.1953 244.358 50.7006 245.257C50.1716 246.082 49.8904 247.042 49.8904 248.023C49.8904 249.003 50.1716 249.963 50.7006 250.789C51.3175 251.76 52.1265 252.594 53.0778 253.241C54.0292 253.888 55.1028 254.334 56.2326 254.55C58.0305 249.138 54.278 243.68 52.0468 242.491Z" fill="#37474F"/>
<path d="M22.0541 247.405C23.0683 249.055 21.7867 255.26 22.0541 259.677C22.2754 263.697 23.3633 270.695 22.1647 274.659C20.7356 279.352 17.8129 284.801 12.327 280.366C8.92483 277.6 6.97019 274.088 6.48153 268.307C6.14039 264.287 7.70779 258.736 9.04469 253.822C10.6121 248.069 11.2114 244.998 11.2114 244.998L22.0541 247.405Z" fill="#263238"/>
<path d="M11.0362 217.698C10.6398 227.066 11.7462 233.649 11.8107 239.651C11.7878 242.374 11.4975 245.089 10.944 247.755C10.1419 251.582 8.77732 256.901 8.17802 259.382C7.3851 262.848 6.77658 265.033 7.99362 268.924C8.09339 269.246 8.2295 269.555 8.3993 269.846C10.0958 273.055 14.4292 275.471 15.7753 275.083C16.0614 275.44 16.4429 275.708 16.8754 275.857C17.3079 276.005 17.7737 276.028 18.2186 275.922C18.3758 275.902 18.5303 275.865 18.6796 275.812C18.8372 275.761 18.9912 275.699 19.1406 275.627C19.7088 275.325 20.2075 274.907 20.6045 274.401C21.0015 273.894 21.288 273.31 21.4456 272.686C21.5368 272.408 21.6107 272.125 21.6669 271.838C22.2907 268.56 22.4459 265.211 22.1279 261.889C22.1279 259.289 22.1279 256.763 22.3492 253.25C22.5704 249.737 23.1144 238.978 24.3591 233.704C25.2811 230.016 26.4336 225.406 27.6507 220.473L11.0362 217.698Z" fill="#B16668"/>
<path d="M7.36666 263.899C10.7781 262.415 20.6896 262.212 22.2662 266.951C22.2662 271.405 22.3399 274.429 19.5002 278.31C15.6831 283.464 10.7135 277.997 8.80498 274.53C6.89644 271.063 6.89644 266.297 7.36666 263.899Z" fill="#37474F"/>
<path d="M23.9627 95.3117C19.1314 103.813 15.2405 110.986 13.9866 133.409C12.5667 158.736 12.7788 168.38 12.6497 171.441C12.5206 174.502 10.5199 180.099 8.81419 195.155C7.10849 210.211 8.90639 246.695 8.90639 246.695C8.90639 246.695 10.1142 249.157 15.9781 249.71C21.3903 250.226 24.5619 248.364 24.5619 248.364C24.5619 248.364 33.1642 200.42 35.2756 191.393C37.387 182.367 43.5736 152.549 43.5736 152.549L45.6112 180.975C45.6112 180.975 43.8963 189.273 45.4545 202.503C47.0126 215.734 50.9865 240.711 50.9865 240.711C50.9865 240.711 53.2915 242.998 60.3632 242.859C67.8867 242.712 69.4541 240.665 69.4541 240.665C69.4541 240.665 71.1414 186.922 71.2981 171.948C71.4549 156.975 72.2939 118.094 67.6101 95.8926L23.9627 95.3117Z" fill="#455A64"/>
<path d="M48.6354 123.792L43.5828 152.549L45.6204 180.975V152.236L50.1198 128.642C53.8078 127.803 62.198 123.534 64.5491 117.366C58.8327 123.11 48.6354 123.792 48.6354 123.792ZM31.5692 106.837C32.2422 104.421 32.9429 102.024 33.7266 99.6082C32.3632 101.763 31.2379 104.06 30.3706 106.459C29.4773 108.835 28.7201 111.261 28.1024 113.724C27.5031 116.186 27.0053 118.675 26.6549 121.183C26.2643 123.687 26.0762 126.218 26.0925 128.753C26.7194 126.291 27.3095 123.848 27.9365 121.377C28.5634 118.906 29.0982 116.499 29.7252 114.074C30.3521 111.65 30.9145 109.28 31.5692 106.837ZM27.8812 104.993C28.7202 103.527 29.5684 102.052 30.3429 100.493C29.0536 101.654 27.8746 102.932 26.8209 104.31C25.7693 105.68 24.8113 107.118 23.9534 108.616C23.1027 110.121 22.3721 111.69 21.7683 113.309C21.1427 114.92 20.7335 116.606 20.5513 118.325L22.93 113.807C23.7322 112.332 24.5343 110.847 25.3733 109.391C26.2123 107.934 27.0606 106.514 27.8904 104.993H27.8812ZM24.1102 201.111C22.6288 208.893 21.2458 216.696 19.9612 224.521C21.8605 216.819 23.6584 209.099 25.3549 201.36C27.079 193.615 28.6925 185.889 30.306 178.089C31.9195 170.289 32.8507 162.415 33.6898 154.523C34.5288 146.63 35.1834 138.738 35.7274 130.836C34.5564 138.673 33.5054 146.51 32.4358 154.375C31.3663 162.24 30.2415 170.049 28.7478 177.794C27.2542 185.539 25.5762 193.33 24.1102 201.111ZM64.42 162.516C64.5583 165.946 64.7427 169.404 64.6597 172.797C64.5768 176.19 64.7243 182.754 64.5214 186.193C64.5214 186.193 64.3186 206.431 64.9271 214.102C65.8491 207.252 65.9874 179.776 66.2825 172.833C66.2825 165.854 65.7569 159.003 65.1853 152.107C64.6136 145.21 63.7931 138.36 62.7604 131.528L63.9221 152.19C64.1158 155.629 64.3186 159.068 64.42 162.516Z" fill="#37474F"/>
<path d="M27.4662 10.2388C27.4017 10.5615 26.4336 11.1608 26.1662 11.5019C25.5847 12.099 25.0657 12.7539 24.6173 13.4566C23.7516 14.9777 23.2883 16.6945 23.2711 18.4446C23.3157 21.1421 24.059 23.782 25.4286 26.1064C26.7882 28.4191 28.3461 30.6094 30.0847 32.6526L34.4181 38.0555C34.6459 38.4844 35.0175 38.8194 35.4677 39.0015C35.918 39.1836 36.4179 39.2012 36.8799 39.0513C39.1388 38.7101 41.3977 38.3321 43.6381 37.9172C45.725 37.5953 47.7754 37.0703 49.7602 36.3498C53.0452 35.0256 55.8516 32.7367 57.8093 29.7852C58.7313 28.4575 59.893 26.5766 60.0589 24.9447C60.1327 24.2071 59.7823 23.5709 59.9667 22.8056C60.3542 21.876 60.8264 20.9841 61.3774 20.1411C62.42 18.0503 62.9028 15.725 62.7789 13.392C62.3363 8.5976 59.3767 2.38332 50.5808 0.603862C43.214 -0.880558 29.2457 0.714506 27.4662 10.2388Z" fill="#263238"/>
<path d="M137.562 58.109C136.771 57.6896 135.871 57.5193 134.981 57.6203C133.575 57.8507 132.189 58.1835 130.832 58.6161C128.711 59.1048 125.3 59.9069 123.179 59.2338C122.746 59.0955 121.898 58.6899 122.635 58.3118C123.625 57.8862 124.575 57.374 125.475 56.7813C125.923 56.4879 126.303 56.1027 126.591 55.6513C126.878 55.1999 127.067 54.6926 127.144 54.1628C127.192 53.8384 127.113 53.5078 126.922 53.2408C126.637 52.8813 126.342 52.9827 126 53.1118C125.635 53.2357 125.262 53.3373 124.885 53.416L122.561 54.0061C118.062 55.177 113.452 56.7721 110.077 60.0175C109.589 60.497 108.492 62.0459 103.476 64.941C98.6723 67.707 86.3452 74.6497 86.3452 74.6497C86.3452 74.6497 77.328 63.18 74.184 59.1601C68.652 52.0146 67.0016 49.9954 59.3675 48.6769L61.654 72.5291C61.654 72.5291 73.5294 86.23 77.6968 89.4754C83.404 93.9471 84.953 93.5046 89.563 90.757C95.6021 87.1797 98.0269 84.9208 102.831 80.8455C108.667 75.8944 110.732 74.2256 112.65 72.8333C114.568 71.4411 117.481 71.4135 118.91 71.3674C120.89 71.3624 122.86 71.0863 124.765 70.5468C126.445 70.1426 128.066 69.5228 129.587 68.7028C130.361 68.3768 131.06 67.8968 131.643 67.2921C131.913 66.6595 132.221 66.0437 132.565 65.4481C133.081 64.8212 133.884 64.4524 134.326 63.7793C134.607 63.2117 134.815 62.6106 134.944 61.9906C135.257 61.0686 136.023 60.6353 136.88 60.2019C137.314 60.0328 137.705 59.7681 138.023 59.4275C138.457 58.8558 138.079 58.4133 137.562 58.109Z" fill="#B16668"/>
<path d="M86.3544 74.6589C82.0671 77.1299 80.2876 80.5044 80.1217 83.5101C78.3883 76.8902 85.3033 73.3128 85.3033 73.3128L86.3544 74.6589Z" fill="#9A4A4D"/>
<path d="M120.238 60.414C118.582 62.5269 116.36 64.1257 113.83 65.024C115.234 65.2362 116.667 64.9456 117.878 64.2034C118.52 63.7782 119.063 63.2197 119.471 62.5658C119.878 61.9119 120.14 61.178 120.238 60.414Z" fill="#9A4A4D"/>
<path d="M19.1867 106.901C16.3654 104.615 19.8229 103.656 20.8279 89.7428C21.0952 86.1563 18.7626 75.0646 18.7626 75.0646C18.7626 75.0646 24.0549 67.3106 21.9158 49.9954L33.072 47.3124L49.7787 47.0635L59.3859 48.677C62.7236 51.8386 65.7042 55.3572 68.274 59.1693C72.884 65.9276 72.506 74.6128 67.4811 79.9881C67.3106 84.138 67.3876 88.2943 67.7116 92.4351C68.3385 98.216 71.5563 103.84 68.2002 106.698C58.3717 115.033 32.4911 115.614 19.1867 106.901Z" fill="#7F3A6A"/>
<path opacity="0.6" d="M19.1867 106.901C16.3654 104.615 19.8229 103.656 20.8279 89.7428C21.0952 86.1563 18.7626 75.0646 18.7626 75.0646C18.7626 75.0646 24.0549 67.3106 21.9158 49.9954L33.072 47.3124L49.7787 47.0635L59.3859 48.677C62.7236 51.8386 65.7042 55.3572 68.274 59.1693C72.884 65.9276 72.506 74.6128 67.4811 79.9881C67.3106 84.138 67.3876 88.2943 67.7116 92.4351C68.3385 98.216 71.5563 103.84 68.2002 106.698C58.3717 115.033 32.4911 115.614 19.1867 106.901Z" fill="white"/>
<path d="M30.9975 34.8377C30.0868 34.9645 29.1589 34.8623 28.2977 34.5403C27.4364 34.2184 26.669 33.6868 26.0648 32.9937C23.4648 30.2277 23.2251 27.3326 24.4329 25.4333C25.4286 23.8659 27.8719 22.8702 29.5961 23.9212C31.3202 24.9723 31.4954 25.9865 32.15 27.222C32.8046 28.4575 34.6302 27.4986 33.994 22.3723C37.5529 20.7219 36.9813 14.8488 38.9083 12.4516C41.9232 8.69902 46.8928 9.68556 48.5155 10.5522C49.4985 9.87371 50.6473 9.47499 51.8393 9.39867C53.0312 9.32234 54.2215 9.57128 55.283 10.1189C57.6894 11.382 59.2845 14.0374 60.1327 23.156C60.9994 32.4497 60.1327 37.2257 57.3667 39.752C55.2215 41.6912 52.4212 42.7454 49.5297 42.7024L49.6588 47.0266C49.6588 47.0266 59.1738 56.0529 46.8928 55.1678C44.1787 54.9389 41.5439 54.1378 39.1618 52.8172C36.7796 51.4967 34.7042 49.6865 33.072 47.506V33.381C33.072 33.381 32.8231 34.5058 30.9975 34.8377Z" fill="#B16668"/>
<path d="M51.134 33.1874C50.9767 33.8882 50.553 34.5004 49.9525 34.8945C49.352 35.2885 48.6217 35.4335 47.9162 35.2987C47.5672 35.2346 47.2344 35.1019 46.937 34.9082C46.6396 34.7146 46.3837 34.4638 46.1839 34.1706C45.9841 33.8773 45.8444 33.5473 45.773 33.1997C45.7016 32.8521 45.6999 32.4938 45.7679 32.1455L51.134 33.1874Z" fill="#9A4A4D"/>
<path d="M45.7495 33.0213C45.8266 33.5801 46.0772 34.1005 46.466 34.5091C46.8548 34.9177 47.362 35.1939 47.9162 35.2987C48.2365 35.3539 48.564 35.3539 48.8843 35.2987C48.7642 34.5841 48.3685 33.9453 47.7823 33.5194C47.1961 33.0935 46.4662 32.9147 45.7495 33.0213Z" fill="#F28F8F"/>
<path d="M57.5696 17.3658L54.0291 16.2133C54.1774 15.7498 54.5029 15.3637 54.9347 15.1392C55.3664 14.9147 55.8695 14.8699 56.3341 15.0147C56.805 15.1695 57.1973 15.5013 57.4279 15.9401C57.6585 16.3789 57.7093 16.8902 57.5696 17.3658Z" fill="#263238"/>
<path d="M44.4956 16.3424L40.9828 18.1864C40.8445 17.9688 40.7534 17.7247 40.7153 17.4697C40.6772 17.2148 40.6929 16.9547 40.7616 16.7062C40.8302 16.4577 40.9502 16.2264 41.1137 16.0272C41.2773 15.8279 41.4808 15.6652 41.7112 15.5495C42.1894 15.3042 42.7429 15.2496 43.2597 15.3968C43.7766 15.544 44.2184 15.882 44.4956 16.3424Z" fill="#263238"/>
<path d="M43.0481 22.9808C43.0481 23.2693 43.1337 23.5513 43.2942 23.7911C43.4547 24.0309 43.6828 24.2176 43.9495 24.3276C44.2162 24.4375 44.5096 24.4658 44.7924 24.4089C45.0753 24.3519 45.3348 24.2123 45.5382 24.0076C45.7415 23.803 45.8795 23.5425 45.9347 23.2593C45.9899 22.9762 45.9597 22.683 45.848 22.4169C45.7364 22.1509 45.5482 21.924 45.3074 21.7651C45.0667 21.6061 44.7841 21.5223 44.4956 21.5241C44.3047 21.5241 44.1157 21.5618 43.9395 21.6351C43.7633 21.7085 43.6033 21.8159 43.4688 21.9513C43.3342 22.0867 43.2278 22.2474 43.1556 22.424C43.0834 22.6007 43.0468 22.79 43.0481 22.9808Z" fill="#263238"/>
<path d="M56.1866 23.995C56.9911 23.995 57.6433 23.3428 57.6433 22.5382C57.6433 21.7337 56.9911 21.0815 56.1866 21.0815C55.382 21.0815 54.7298 21.7337 54.7298 22.5382C54.7298 23.3428 55.382 23.995 56.1866 23.995Z" fill="#263238"/>
<path d="M62.032 18.3247L61.3313 18.2694C59.0039 18.0651 56.6588 18.2426 54.3887 18.7949C52.2127 19.5325 51.4751 20.2886 50.2489 20.3531C49.0226 20.4177 48.0453 19.7169 45.6389 19.1822C43.1614 18.8389 40.6461 18.8762 38.1799 19.2928L37.4423 19.4035C37.1931 19.4838 36.9808 19.6507 36.8438 19.8739C36.7069 20.0971 36.6542 20.3619 36.6955 20.6205C36.8225 21.1366 37.1021 21.6024 37.4976 21.9574C37.6227 22.1215 37.7193 22.3053 37.7834 22.5014C38.0642 23.7767 38.4529 25.0259 38.9452 26.2355C39.2161 26.7302 39.5683 27.1759 39.987 27.5539C40.1514 27.6902 40.3238 27.8165 40.5033 27.932L40.7984 28.0979C41.071 28.2423 41.3585 28.3567 41.6558 28.4391H41.8034L42.0246 28.4944L42.2644 28.5405C42.5115 28.5805 42.761 28.6052 43.0112 28.6142H43.7211C46.7729 28.4852 47.9623 27.0468 48.6169 25.5809C49.2716 24.1149 48.9489 22.0957 50.3595 22.0404H50.4978H50.6177C51.678 22.2248 51.678 24.0872 52.4617 25.3965C52.7504 25.9218 53.1208 26.398 53.5589 26.8071L53.8078 27.0284L53.9461 27.1298L54.0844 27.222L54.2135 27.305L54.3518 27.388L54.4532 27.4433H54.5362C54.9297 27.6391 55.3486 27.7787 55.7809 27.8582H55.8915C56.3885 27.9359 56.8922 27.9606 57.3944 27.932C58.2949 27.9757 59.1852 27.7249 59.9305 27.2175C60.6758 26.7101 61.2355 25.9737 61.5249 25.1199C61.8422 23.868 62.0489 22.5908 62.1427 21.3028C62.1758 21.1171 62.2551 20.9427 62.3732 20.7957C62.702 20.3922 62.8956 19.8954 62.9264 19.3758C62.9051 19.1294 62.8076 18.8957 62.6473 18.7073C62.487 18.5189 62.2719 18.3852 62.032 18.3247ZM47.741 24.3085C47.6329 25.0641 47.3132 25.7736 46.819 26.3553C46.3971 26.7857 45.8892 27.1223 45.3284 27.3431C44.7676 27.564 44.1665 27.6641 43.5644 27.6369C42.946 27.6944 42.3229 27.6031 41.747 27.3705C41.1712 27.1379 40.6594 26.7708 40.2544 26.3L40.1438 26.1617L40.0423 26.0234L39.9594 25.8943L39.8856 25.7745C39.8607 25.7481 39.8418 25.7167 39.8303 25.6823L39.775 25.5993C39.7541 25.5483 39.7295 25.499 39.7012 25.4518C39.6274 25.3135 39.5721 25.1752 39.5168 25.0461C39.5168 24.9631 39.4523 24.8801 39.4246 24.8064C39.3969 24.7326 39.3324 24.5206 39.2955 24.4007V24.3269C39.2914 24.3025 39.2914 24.2776 39.2955 24.2532C38.9913 23.2666 38.5764 21.312 39.0742 20.8418C39.5721 20.3716 40.9182 19.8552 43.214 19.9198H43.4537C43.8061 19.9446 44.1569 19.9877 44.5048 20.0489L44.9197 20.1226C45.2682 20.1942 45.6129 20.2835 45.9524 20.39L46.2658 20.5006L46.6162 20.6389H46.6807L46.8098 20.6943C47.0817 20.8082 47.3266 20.9778 47.529 21.1921C47.9715 21.8836 47.9162 23.1837 47.741 24.3085ZM60.9717 23.3035C60.9402 23.9682 60.7485 24.6155 60.413 25.1902C60.0775 25.7649 59.6081 26.25 59.0448 26.6043C58.5256 26.8643 57.9563 27.0089 57.3759 27.0284C56.7258 27.1177 56.0637 27.0411 55.4511 26.8057C54.8385 26.5704 54.2954 26.1839 53.8723 25.6823L53.8078 25.5993L53.7248 25.4887V25.4333L53.6326 25.2858C53.5953 25.2263 53.5615 25.1648 53.5312 25.1014L53.4759 25.0184C53.4759 25.0184 53.4759 25.0184 53.4759 24.9631V24.8894V24.834C53.3657 24.5963 53.2762 24.3495 53.2085 24.0964C52.895 22.99 52.683 21.6992 53.0702 21.0723C53.4574 20.4453 55.0894 19.6893 56.6937 19.4219C57.0625 19.3666 57.4128 19.3297 57.7355 19.302H58.6575H58.9433C59.1229 19.3163 59.3014 19.3409 59.4781 19.3758H59.598H59.6809H59.81H59.9668L60.2157 19.4588C60.4248 19.5316 60.6209 19.6374 60.7966 19.7723C61.276 20.3162 61.1285 22.2985 60.9717 23.3035Z" fill="#37474F"/>
<path d="M55.3383 28.5036L50.1474 30.7164L49.0318 24.161C49.2254 23.1837 49.4191 22.1787 50.2673 22.0957L55.3383 28.5036Z" fill="#9A4A4D"/>
<path d="M37.599 20.1687L29.5961 23.9304C30.0372 24.2173 30.4508 24.5445 30.8315 24.9078L37.8111 21.8006L37.599 20.1687Z" fill="#37474F"/>
<path d="M49.668 42.7393C44.8736 42.5641 38.438 40.8953 36.76 37.8527C37.682 41.1258 41.1026 42.8222 43.7949 43.5691C45.7153 44.1065 47.6869 44.4403 49.6772 44.5648L49.668 42.7393Z" fill="#9A4A4D"/>
<path d="M50.0184 72.4C53.0794 70.3716 54.6284 69.634 56.0022 69.2744C57.3759 68.9149 62.3271 67.1907 64.1987 66.8219C65.3881 66.5914 65.7846 68.4446 64.1987 69.6432C63.0001 70.5652 59.9483 71.7085 58.6022 72.3539C57.2561 72.9993 54.527 75.9682 54.527 75.9682L50.0184 72.4Z" fill="#9A4A4D"/>
<path d="M8.40852 59.28C11.6079 53.2685 16.9001 51.3231 21.9158 49.9954C24.4605 56.4955 22.2846 70.1596 22.2846 70.1596L18.3938 85.0314C18.3938 85.0314 35.838 83.3349 37.8941 82.1732C39.9501 81.0115 45.5743 75.5809 47.446 73.9582C49.9999 71.7546 51.1985 72.1142 52.4432 72.3632C56.4908 73.1469 57.3759 73.5249 58.215 74.0965C58.4575 74.282 58.6502 74.5249 58.7758 74.8033C58.9013 75.0817 58.9557 75.3869 58.9341 75.6916C60.0129 75.876 61.6356 75.9129 61.7647 77.6647C61.8334 78.1293 61.8334 78.6015 61.7647 79.0661C62.0348 79.1286 62.2755 79.2815 62.4469 79.4994C63.3044 80.5597 61.5987 84.0449 60.6029 84.8655C60.1636 85.1405 59.6697 85.3167 59.1555 85.382C58.6413 85.4472 58.119 85.4 57.6249 85.2435C56.5277 85.0499 57.0901 83.9711 57.0901 83.9711H55.5504C52.1298 86.1378 51.761 90.7109 47.3261 91.5315C45.5053 91.6238 43.6967 91.883 41.9232 92.306C32.3252 95.0259 16.476 103.748 7.9844 104.117C-0.258282 104.449 0.165836 100.161 0.258036 95.2195C0.341016 90.84 5.20918 65.2637 8.40852 59.28Z" fill="#B16668"/>
<path d="M18.8179 83.3626L18.3938 85.0314C14.6136 85.8151 10.0036 90.462 9.01703 92.4074C9.85605 89.2818 12.1611 84.7917 18.8179 83.3626Z" fill="#9A4A4D"/>
<path d="M58.9341 75.6916L54.1305 74.5206L58.8604 75.0277C58.9251 75.2427 58.9501 75.4676 58.9341 75.6916Z" fill="#9A4A4D"/>
<path d="M61.7739 79.0661L56.2419 78.1441L61.7739 78.4668C61.7944 78.6661 61.7944 78.8669 61.7739 79.0661Z" fill="#9A4A4D"/>
<path d="M56.6475 83.1598C56.9913 82.8991 57.251 82.5433 57.3944 82.1364C58.0424 82.1693 58.6917 82.1693 59.3398 82.1364C59.596 82.0934 59.8486 82.0318 60.0958 81.952C60.406 81.8637 60.6905 81.7025 60.9256 81.4818C60.7317 81.7552 60.4627 81.9666 60.1511 82.0903C59.8814 82.2123 59.5959 82.2961 59.3029 82.3392L58.9525 83.003C59.1588 83.0285 59.3537 83.1116 59.515 83.2428C59.7384 83.4374 59.8989 83.6942 59.976 83.9804C59.8457 83.7346 59.6593 83.5229 59.432 83.3626C59.2126 83.2239 58.952 83.1652 58.6944 83.1967C58.0664 83.2455 57.4832 83.5404 57.0717 84.0173H55.5319C55.9222 83.7562 56.2949 83.4698 56.6475 83.1598Z" fill="#9A4A4D"/>
</svg>
