<svg width="59" height="66" viewBox="0 0 59 66" fill="none" xmlns="http://www.w3.org/2000/svg">
<path d="M29.4513 2.00708C22.5741 2.0308 15.9563 4.63536 10.9077 9.30531C5.85912 13.9753 2.74755 20.3703 2.1888 27.2248C1.63005 34.0794 3.66483 40.8939 7.89047 46.3198C12.1161 51.7458 18.2247 55.3877 25.0073 56.5249L28.096 64.4634C28.2116 64.7645 28.4158 65.0234 28.6816 65.2061C28.9475 65.3888 29.2624 65.4866 29.585 65.4866C29.9075 65.4866 30.2225 65.3888 30.4884 65.2061C30.7542 65.0234 30.9584 64.7645 31.074 64.4634L34.1351 56.5065C40.9241 55.3539 47.0315 51.6908 51.245 46.2442C55.4585 40.7976 57.47 33.9658 56.8803 27.105C56.2906 20.2442 53.1427 13.8559 48.0615 9.20826C42.9804 4.56062 36.3374 1.99344 29.4513 2.0163V2.00708ZM29.5251 54.7455C24.5201 54.7491 19.6265 53.2682 15.4633 50.49C11.3002 47.7119 8.05461 43.7613 6.13718 39.1382C4.21975 34.5151 3.71663 29.4271 4.69149 24.518C5.66635 19.6089 8.07537 15.0992 11.6138 11.5595C15.1522 8.01979 19.661 5.60913 24.5698 4.63248C29.4785 3.65583 34.5667 4.15709 39.1905 6.07283C43.8143 7.98858 47.7661 11.2327 50.5457 15.3948C53.3254 19.557 54.8081 24.45 54.8063 29.455C54.8063 36.1609 52.1431 42.5922 47.4022 47.3348C42.6613 52.0774 36.2309 54.743 29.5251 54.7455Z" fill="#455A64"/>
<path d="M54.5016 33.516C56.7396 19.7289 47.3772 6.73809 33.5901 4.50013C19.803 2.26217 6.81216 11.6246 4.5742 25.4117C2.33624 39.1987 11.6987 52.1896 25.4857 54.4275C39.2728 56.6655 52.2637 47.3031 54.5016 33.516Z" fill="white"/>
<path d="M19.254 16.5009C19.8812 15.9583 20.5401 15.4534 21.2271 14.9888C21.9648 14.5087 22.7421 14.0922 23.5505 13.7441C24.4191 13.3813 25.3207 13.1034 26.2427 12.9143C27.2807 12.7055 28.3373 12.6036 29.396 12.6101C30.8197 12.5926 32.2366 12.8075 33.5911 13.2462C34.7858 13.6367 35.8895 14.2639 36.8365 15.0902C37.7176 15.8764 38.4161 16.8456 38.8834 17.93C39.38 19.0956 39.6311 20.351 39.621 21.618C39.6475 22.8059 39.4505 23.9881 39.0401 25.1032C38.6839 26.022 38.193 26.8828 37.5834 27.6571C37.0201 28.3462 36.3763 28.9653 35.6656 29.5011L33.6925 31.004C33.1256 31.423 32.5895 31.8821 32.0883 32.3777C31.6606 32.7827 31.3786 33.3174 31.2861 33.899L30.6776 37.7622H26.1967L25.7541 33.4473C25.6311 32.7002 25.754 31.9333 26.1045 31.2621C26.4706 30.6201 26.9375 30.041 27.4875 29.5472C28.0887 29.0118 28.7264 28.5189 29.396 28.072C30.0946 27.5924 30.7571 27.0624 31.3783 26.4862C31.9895 25.9227 32.5117 25.2699 32.9272 24.55C33.3605 23.7699 33.577 22.888 33.5542 21.996C33.5667 21.4257 33.4514 20.8597 33.2169 20.3397C32.9824 19.8196 32.6346 19.3586 32.1989 18.9903C31.7506 18.6173 31.2339 18.3355 30.6776 18.1605C30.0582 17.9605 29.4107 17.8609 28.7598 17.8655C27.8966 17.8465 27.0355 17.9584 26.2059 18.1974C25.5885 18.384 24.9921 18.6343 24.4264 18.9442C23.947 19.2116 23.5044 19.4605 23.2002 19.6818C22.9327 19.8817 22.6117 19.9973 22.2782 20.0137C21.9968 20.0296 21.717 19.963 21.473 19.8222C21.229 19.6813 21.0314 19.4723 20.9044 19.2208L19.254 16.5009ZM24.2605 44.7878C24.258 44.2535 24.3614 43.7239 24.5647 43.2297C24.7528 42.7518 25.0385 42.3184 25.4038 41.9573C25.7675 41.5974 26.1961 41.3096 26.6669 41.1091C27.1715 40.8965 27.7144 40.7899 28.2619 40.7956C28.8006 40.7889 29.3347 40.8957 29.8293 41.1091C30.3016 41.3118 30.7329 41.5993 31.1017 41.9573C31.5604 42.4175 31.899 42.9834 32.0876 43.6051C32.2762 44.2269 32.3092 44.8855 32.1835 45.523C32.0578 46.1605 31.7774 46.7573 31.3669 47.261C30.9564 47.7646 30.4284 48.1596 29.8293 48.4113C29.3327 48.6172 28.7996 48.7207 28.2619 48.7156C27.7154 48.7197 27.1735 48.6163 26.6669 48.4113C26.193 48.2207 25.7631 47.9352 25.4038 47.5723C25.0407 47.2166 24.755 46.7897 24.5647 46.3184C24.3498 45.8357 24.2308 45.3159 24.2144 44.7878H24.2605Z" fill="#7F3A6A"/>
</svg>
