<svg width="81" height="58" viewBox="0 0 81 58" fill="none" xmlns="http://www.w3.org/2000/svg">
<path d="M77.006 15.0817C71.7783 7.47523 57.81 1.17797 40.5225 0.99357C24.8485 0.84605 5.6709 5.47449 0.876495 20.5769C-3.18952 33.448 9.36811 45.434 22.4052 47.9695C27.5892 48.9848 32.8528 49.5402 38.1345 49.6291C40.5502 54.1469 46.2205 56.9221 50.4893 57.2079C48.6608 54.9667 47.664 52.162 47.668 49.2695C51.732 48.9079 55.7632 48.2422 59.7278 47.278C82.3629 41.5708 82.8607 23.601 77.006 15.0817Z" fill="#7F3A6A"/>
<path opacity="0.4" d="M77.006 15.0817C71.7783 7.47523 57.81 1.17797 40.5225 0.99357C24.8485 0.84605 5.6709 5.47449 0.876495 20.5769C-3.18952 33.448 9.36811 45.434 22.4052 47.9695C27.5892 48.9848 32.8528 49.5402 38.1345 49.6291C40.5502 54.1469 46.2205 56.9221 50.4893 57.2079C48.6608 54.9667 47.664 52.162 47.668 49.2695C51.732 48.9079 55.7632 48.2422 59.7278 47.278C82.3629 41.5708 82.8607 23.601 77.006 15.0817Z" fill="white"/>
<path d="M18.164 20.4846C17.2343 20.4828 16.3249 20.7572 15.5514 21.273C14.7778 21.7888 14.1749 22.5227 13.8191 23.3817C13.4633 24.2407 13.3707 25.186 13.553 26.0977C13.7353 27.0094 14.1843 27.8464 14.843 28.5026C15.5017 29.1587 16.3405 29.6044 17.2529 29.7831C18.1653 29.9618 19.1103 29.8654 19.9678 29.5062C20.8254 29.1471 21.557 28.5413 22.0697 27.7657C22.5824 26.9901 22.8532 26.0797 22.8478 25.1499C22.8405 23.9117 22.3441 22.7265 21.4668 21.8526C20.5894 20.9787 19.4023 20.487 18.164 20.4846ZM40.1445 20.4846C39.2147 20.4828 38.3054 20.7572 37.5318 21.273C36.7583 21.7888 36.1554 22.5227 35.7996 23.3817C35.4438 24.2407 35.3512 25.186 35.5335 26.0977C35.7157 27.0094 36.1647 27.8464 36.8235 28.5026C37.4822 29.1587 38.321 29.6044 39.2334 29.7831C40.1458 29.9618 41.0907 29.8654 41.9483 29.5062C42.8059 29.1471 43.5374 28.5413 44.0502 27.7657C44.5629 26.9901 44.8337 26.0797 44.8282 25.1499C44.8209 23.9101 44.3233 22.7235 43.444 21.8494C42.5646 20.9752 41.3751 20.4846 40.1353 20.4846H40.1445ZM62.125 20.4846C61.1952 20.4828 60.2859 20.7572 59.5123 21.273C58.7388 21.7888 58.1358 22.5227 57.7801 23.3817C57.4243 24.2407 57.3316 25.186 57.5139 26.0977C57.6962 27.0094 58.1452 27.8464 58.8039 28.5026C59.4627 29.1587 60.3014 29.6044 61.2139 29.7831C62.1263 29.9618 63.0712 29.8654 63.9288 29.5062C64.7864 29.1471 65.5179 28.5413 66.0307 27.7657C66.5434 26.9901 66.8142 26.0797 66.8087 25.1499C66.8014 23.9101 66.3038 22.7235 65.4244 21.8494C64.5451 20.9752 63.3556 20.4846 62.1157 20.4846H62.125Z" fill="white"/>
</svg>
