<svg width="81" height="71" viewBox="0 0 81 71" fill="none" xmlns="http://www.w3.org/2000/svg">
<path d="M11.818 43.3556C13.9286 40.0641 16.8452 37.3664 20.2912 35.5186C34.1212 27.5156 56.6272 27.5156 70.4941 35.5186C73.94 37.3664 76.8566 40.0641 78.9672 43.3556H80.885V50.6117C80.6361 55.6551 77.197 60.6523 70.5217 64.4971C56.6917 72.5 34.1857 72.5 20.3188 64.4971C13.6528 60.6523 10.1768 55.6551 9.92789 50.6117V43.3556H11.818Z" fill="#7F3A6A"/>
<path opacity="0.25" d="M11.818 43.3556C13.9286 40.0641 16.8452 37.3664 20.2912 35.5186C34.1212 27.5156 56.6272 27.5156 70.4941 35.5186C73.94 37.3664 76.8566 40.0641 78.9672 43.3556H80.885V50.6117C80.6361 55.6551 77.197 60.6523 70.5217 64.4971C56.6917 72.5 34.1857 72.5 20.3188 64.4971C13.6528 60.6523 10.1768 55.6551 9.92789 50.6117V43.3556H11.818Z" fill="black"/>
<path opacity="0.1" d="M45.3511 29.5164C54.4328 29.5164 63.5238 31.5171 70.4572 35.5186C73.9031 37.3664 76.8198 40.064 78.9304 43.3556H80.8481V50.6117C80.5992 55.655 77.1601 60.6523 70.4849 64.497C63.5514 68.4985 54.4605 70.4992 45.3788 70.4992L45.3511 29.5164Z" fill="black"/>
<path opacity="0.1" d="M64.7408 32.8448C66.7143 33.5828 68.6258 34.4769 70.4572 35.5186C73.9031 37.3665 76.8197 40.0641 78.9304 43.3556H80.8481V50.6118C80.5992 55.6551 77.1601 60.6524 70.4849 64.4971C68.6538 65.542 66.7422 66.4392 64.7684 67.1801L64.7408 32.8448Z" fill="black"/>
<path opacity="0.5" d="M25.9707 32.8448C23.9972 33.5828 22.0857 34.4769 20.2543 35.5186C16.8084 37.3665 13.8918 40.0641 11.7811 43.3556H9.86337V50.6118C10.1123 55.6551 13.5514 60.6524 20.2543 64.4971C22.0854 65.542 23.9969 66.4392 25.9707 67.1801V32.8448Z" fill="#7F3A6A"/>
<path d="M70.4572 28.871C84.2872 36.874 84.2872 49.8557 70.4572 57.8494C58.3237 64.8566 39.6071 65.7326 25.8232 60.4772L25.27 60.2651C23.5415 59.5831 21.8651 58.7757 20.2543 57.8494C8.70162 51.1834 6.77465 41.0506 14.501 33.2228C16.2168 31.5229 18.1516 30.0594 20.2543 28.871C34.1119 20.868 56.5903 20.868 70.4572 28.871Z" fill="#7F3A6A"/>
<path opacity="0.2" d="M70.4572 28.871C84.2872 36.874 84.2872 49.8557 70.4572 57.8494C58.3237 64.8566 39.6071 65.7326 25.8232 60.4772L25.27 60.2651C23.5415 59.5831 21.8651 58.7757 20.2543 57.8494C8.70162 51.1834 6.77465 41.0506 14.501 33.2228C16.2168 31.5229 18.1516 30.0594 20.2543 28.871C34.1119 20.868 56.5903 20.868 70.4572 28.871Z" fill="black"/>
<path opacity="0.5" d="M14.501 33.2229C12.9979 34.933 11.8886 36.9522 11.2513 39.138C10.6141 41.3238 10.4644 43.6228 10.813 45.8727C12.0393 52.9168 21.877 58.8453 25.2976 60.2651C23.5691 59.5831 21.8928 58.7758 20.2819 57.8495C8.70162 51.1835 6.77465 41.0507 14.501 33.2229Z" fill="#F5F5F5"/>
<path opacity="0.5" d="M76.2105 53.4976C77.7139 51.7896 78.8235 49.772 79.4609 47.5877C80.0982 45.4033 80.2476 43.1055 79.8985 40.857C78.6722 33.8129 68.8345 27.8845 65.4046 26.4646C67.1328 27.1436 68.8092 27.9479 70.4203 28.871C82.0099 35.5463 83.9276 45.6791 76.2105 53.4976Z" fill="#F5F5F5"/>
<path d="M68.6962 56.8076C81.6041 49.3671 81.6041 37.3073 68.6962 29.8668C55.7882 22.4262 34.9233 22.4262 22.0337 29.8668C9.14418 37.3073 9.12574 49.3671 22.0337 56.8076C34.9417 64.2482 55.8158 64.2482 68.6962 56.8076Z" fill="#7F3A6A"/>
<path opacity="0.4" d="M68.6962 56.8076C81.6041 49.3671 81.6041 37.3073 68.6962 29.8668C55.7882 22.4262 34.9233 22.4262 22.0337 29.8668C9.14418 37.3073 9.12574 49.3671 22.0337 56.8076C34.9417 64.2482 55.8158 64.2482 68.6962 56.8076Z" fill="white"/>
<path opacity="0.2" d="M76.8651 49.0259C79.5112 44.1208 78.6538 38.7179 74.2743 34.1356C73.4217 33.243 72.4965 32.4226 71.5083 31.683C70.6492 31.0486 69.7566 30.4608 68.8345 29.9221C68.3089 29.6178 67.765 29.3227 67.2118 29.0461C68.5763 31.305 68.0784 33.7207 60.306 34.1725C45.0745 35.0576 64.372 49.616 64.372 49.616C64.372 49.616 74.1452 44.8584 76.8651 49.0259Z" fill="white"/>
<path opacity="0.5" d="M75.2977 45.006C77.5751 44.7479 78.7091 42.406 77.824 39.7598C76.9389 37.1137 74.3665 35.1498 72.0799 35.4449C69.7934 35.7399 68.6685 38.0449 69.5536 40.6911C70.4388 43.3372 73.0112 45.2642 75.2977 45.006Z" fill="white"/>
<path d="M51.2427 57.1118C50.4959 51.4692 25.8047 35.8321 25.8047 35.8321C25.8047 35.8321 20.328 33.6377 22.1167 29.8114C21.2088 30.3339 20.3286 30.9032 19.4798 31.5171C18.9082 31.9289 18.3734 32.3531 17.8755 32.7895C10.4995 39.1513 10.4995 47.5415 17.8755 53.8848C18.3642 54.3182 18.9082 54.7423 19.4706 55.1572C20.2601 55.7279 21.0787 56.2572 21.9231 56.743C22.7691 57.2448 23.64 57.7033 24.5324 58.1168C25.2515 58.458 25.9984 58.7807 26.7636 59.0388C27.5289 59.297 28.2849 59.6105 29.0778 59.8686C31.4849 60.6561 33.9516 61.2481 36.4538 61.6389C37.007 61.7311 37.5602 61.814 38.1134 61.8786C40.5593 62.1946 43.0233 62.3486 45.4894 62.3396C48.5072 62.3406 51.52 62.0939 54.4974 61.602C54.4974 61.602 50.542 60.8275 51.2427 57.1118Z" fill="#7F3A6A"/>
<path opacity="0.3" d="M51.2427 57.1118C50.4959 51.4692 25.8047 35.8321 25.8047 35.8321C25.8047 35.8321 20.328 33.6377 22.1167 29.8114C21.2088 30.3339 20.3286 30.9032 19.4798 31.5171C18.9082 31.9289 18.3734 32.3531 17.8755 32.7895C10.4995 39.1513 10.4995 47.5415 17.8755 53.8848C18.3642 54.3182 18.9082 54.7423 19.4706 55.1572C20.2601 55.7279 21.0787 56.2572 21.9231 56.743C22.7691 57.2448 23.64 57.7033 24.5324 58.1168C25.2515 58.458 25.9984 58.7807 26.7636 59.0388C27.5289 59.297 28.2849 59.6105 29.0778 59.8686C31.4849 60.6561 33.9516 61.2481 36.4538 61.6389C37.007 61.7311 37.5602 61.814 38.1134 61.8786C40.5593 62.1946 43.0233 62.3486 45.4894 62.3396C48.5072 62.3406 51.52 62.0939 54.4974 61.602C54.4974 61.602 50.542 60.8275 51.2427 57.1118Z" fill="white"/>
<path d="M27.9714 33.2966C18.7514 38.6165 18.3918 47.1266 26.8466 52.6586C27.2062 52.8891 27.5842 53.1288 27.9806 53.3501C37.5787 58.8821 53.1328 58.8821 62.74 53.3501C72.3473 47.8181 72.3381 38.8194 62.74 33.2782C62.3528 33.0569 61.9471 32.8356 61.5322 32.6328C51.8789 27.7646 37.1822 27.9859 27.9714 33.2966Z" fill="#7F3A6A"/>
<path opacity="0.2" d="M27.9714 33.2966C18.7514 38.6165 18.3918 47.1266 26.8466 52.6586C27.2062 52.8891 27.5842 53.1288 27.9806 53.3501C37.5787 58.8821 53.1328 58.8821 62.74 53.3501C72.3473 47.8181 72.3381 38.8194 62.74 33.2782C62.3528 33.0569 61.9471 32.8356 61.5322 32.6328C51.8789 27.7646 37.1822 27.9859 27.9714 33.2966Z" fill="black"/>
<path d="M45.3696 56.8998C58.3442 56.8998 68.8621 50.8276 68.8621 43.3371C68.8621 35.8467 58.3442 29.7745 45.3696 29.7745C32.395 29.7745 21.877 35.8467 21.877 43.3371C21.877 50.8276 32.395 56.8998 45.3696 56.8998Z" fill="#7F3A6A"/>
<path opacity="0.5" d="M45.3696 56.8998C58.3442 56.8998 68.8621 50.8276 68.8621 43.3371C68.8621 35.8467 58.3442 29.7745 45.3696 29.7745C32.395 29.7745 21.877 35.8467 21.877 43.3371C21.877 50.8276 32.395 56.8998 45.3696 56.8998Z" fill="black"/>
<path d="M28.7551 37.5286C37.929 32.2271 52.8101 32.2271 61.9471 37.5286C65.6997 39.6953 67.9125 42.406 68.5948 45.2273C67.9125 48.0394 65.6997 50.7593 61.9471 52.926C52.7732 58.2275 37.8922 58.2275 28.7551 52.926C25.0026 50.7593 22.7898 48.0394 22.0983 45.2273C22.7898 42.406 25.0026 39.6953 28.7551 37.5286Z" fill="#7F3A6A"/>
<path opacity="0.35" d="M28.7551 37.5286C37.929 32.2271 52.8101 32.2271 61.9471 37.5286C65.6997 39.6953 67.9125 42.406 68.5948 45.2273C67.9125 48.0394 65.6997 50.7593 61.9471 52.926C52.7732 58.2275 37.8922 58.2275 28.7551 52.926C25.0026 50.7593 22.7898 48.0394 22.0983 45.2273C22.7898 42.406 25.0026 39.6953 28.7551 37.5286Z" fill="black"/>
<path d="M60.1677 47.4216C60.1677 46.9606 60.1677 45.0982 60.1677 44.6556C60.1677 43.5031 59.3655 42.3875 57.6598 41.3825H57.5953C54.4421 39.5385 51.1413 39.8059 48.2831 40.5342C47.0476 40.8477 45.8767 41.2442 44.8072 41.613C43.5846 42.0681 42.338 42.4559 41.0731 42.7747C40.4935 42.9114 39.8977 42.9673 39.3028 42.9407C38.7895 42.9158 38.287 42.7839 37.8276 42.5534L37.9475 42.4705L38.3163 42.2492C38.6337 42.0615 38.9633 41.8952 39.3028 41.7513C40.1224 41.3898 41.0054 41.1939 41.901 41.1749C42.7966 41.1559 43.6871 41.3142 44.5213 41.6407L47.5363 38.598V35.832C44.8811 34.9251 42.0177 34.8193 39.3028 35.5278C38.4062 35.763 37.5305 36.0714 36.6843 36.4498L33.6694 34.7164L30.0736 36.7909V39.5569L31.3091 40.2669C30.9745 40.7465 30.7885 41.3141 30.7743 41.8988C30.7743 42.3598 30.7743 44.213 30.7743 44.6648C30.7743 45.8173 31.5949 46.9237 33.3283 47.9287C34.8412 48.8086 36.5486 49.2996 38.2978 49.3578C38.6298 49.3578 38.9617 49.3578 39.2936 49.3578C41.115 49.224 42.9088 48.8361 44.6228 48.2053L45.6646 47.8457L42.6312 50.8883V53.6543C44.501 54.3613 46.4949 54.6809 48.4919 54.5937C50.4889 54.5065 52.4474 54.0144 54.2484 53.1472L57.2265 54.8621L60.8223 52.7876V50.0216L59.5868 49.3025C59.9678 48.7495 60.1705 48.0931 60.1677 47.4216ZM52.5796 47.1819C52.3106 47.3348 52.0336 47.4733 51.7498 47.5968C49.8766 48.3961 47.7648 48.4292 45.8675 47.689C48.6335 46.6932 51.0307 45.845 53.0406 46.8868L52.5796 47.1819Z" fill="#7F3A6A"/>
<path d="M48.2831 40.4606C47.0476 40.774 45.8767 41.1797 44.8072 41.5393C43.5846 41.9944 42.338 42.3822 41.0731 42.701C40.4935 42.8377 39.8977 42.8936 39.3028 42.867C38.6991 42.8361 38.1113 42.6623 37.5879 42.3599C36.4354 41.6868 36.2694 40.7095 37.9475 39.5939L38.3163 39.3634C38.6338 39.1785 38.9633 39.0152 39.3028 38.8747C40.122 38.5122 41.0046 38.3151 41.9001 38.2945C42.7957 38.2739 43.6864 38.4304 44.5213 38.7549L47.4994 35.786C44.8442 34.8791 41.9808 34.7733 39.2659 35.4818C38.3694 35.717 37.4936 36.0253 36.6475 36.4038L33.6325 34.6704L30.0367 36.7449L33.0148 38.4598C29.9906 40.7556 29.9353 43.1344 33.3283 45.0982C34.8395 45.9821 36.548 46.4734 38.2978 46.5273C38.6298 46.5273 38.9617 46.5273 39.2936 46.5273C41.1144 46.3891 42.9075 46.0013 44.6228 45.3748C48.071 44.2223 50.8647 42.8578 53.1974 44.2039C54.7463 45.1259 54.3222 46.2323 52.6073 47.2188C52.3383 47.3718 52.0613 47.5103 51.7775 47.6337C50.8317 48.0392 49.8146 48.252 48.7856 48.2599C47.7566 48.2679 46.7364 48.0706 45.7845 47.6798L42.6312 50.8423C44.5004 51.5507 46.4939 51.8718 48.491 51.7862C50.488 51.7007 52.4468 51.2101 54.2484 50.3444L57.2265 52.0593L60.8223 49.9848L57.8442 48.2607C60.8315 45.9557 61.1819 43.4294 57.6875 41.3826H57.623C54.4421 39.474 51.1782 39.7322 48.2831 40.4606Z" fill="#7F3A6A"/>
<g opacity="0.3">
<path d="M48.2831 40.4606C47.0476 40.774 45.8767 41.1797 44.8072 41.5393C43.5846 41.9944 42.338 42.3822 41.0731 42.701C40.4935 42.8377 39.8977 42.8936 39.3028 42.867C38.6991 42.8361 38.1113 42.6623 37.5879 42.3599C36.4354 41.6868 36.2694 40.7095 37.9475 39.5939L38.3163 39.3634C38.6338 39.1785 38.9633 39.0152 39.3028 38.8747C40.122 38.5122 41.0046 38.3151 41.9001 38.2945C42.7957 38.2739 43.6864 38.4304 44.5213 38.7549L47.4994 35.786C44.8442 34.8791 41.9808 34.7733 39.2659 35.4818C38.3694 35.717 37.4936 36.0253 36.6475 36.4038L33.6325 34.6704L30.0367 36.7449L33.0148 38.4598C29.9906 40.7556 29.9353 43.1344 33.3283 45.0982C34.8395 45.9821 36.548 46.4734 38.2978 46.5273C38.6298 46.5273 38.9617 46.5273 39.2936 46.5273C41.1144 46.3891 42.9075 46.0013 44.6228 45.3748C48.071 44.2223 50.8647 42.8578 53.1974 44.2039C54.7463 45.1259 54.3222 46.2323 52.6073 47.2188C52.3383 47.3718 52.0613 47.5103 51.7775 47.6337C50.8317 48.0392 49.8146 48.252 48.7856 48.2599C47.7566 48.2679 46.7364 48.0706 45.7845 47.6798L42.6312 50.8423C44.5004 51.5507 46.4939 51.8718 48.491 51.7862C50.488 51.7007 52.4468 51.2101 54.2484 50.3444L57.2265 52.0593L60.8223 49.9848L57.8442 48.2607C60.8315 45.9557 61.1819 43.4294 57.6875 41.3826H57.623C54.4421 39.474 51.1782 39.7322 48.2831 40.4606Z" fill="white"/>
</g>
<path opacity="0.45" d="M30.0367 36.6803L33.6694 35.0392L36.6475 36.3484L33.6325 34.6058L30.0367 36.6803Z" fill="#F5F5F5"/>
<path opacity="0.45" d="M38.851 35.5555C41.4113 35.0367 44.0575 35.1251 46.5774 35.8137L44.4845 38.7733L47.4994 35.786C44.7099 34.8163 41.6882 34.7357 38.851 35.5555Z" fill="#F5F5F5"/>
<path opacity="0.45" d="M57.5953 41.318H57.6598C61.1542 43.3648 60.8038 45.928 57.8166 48.1961C60.4627 45.3102 59.9833 43.3003 57.1066 41.6407C54.385 40.2571 51.2764 39.8315 48.2831 40.4329C51.1782 39.7321 54.442 39.474 57.5953 41.318Z" fill="#F5F5F5"/>
<path opacity="0.45" d="M57.8166 48.233L60.0939 49.9848L57.1988 52.0224L60.7946 49.9479L57.8166 48.233Z" fill="#F5F5F5"/>
<path opacity="0.45" d="M51.7498 47.5968C49.9742 48.4971 47.9192 48.6756 46.015 48.0947L42.6036 50.8054L45.7568 47.6429C46.7087 48.0337 47.729 48.231 48.758 48.2231C49.7869 48.2151 50.804 48.0022 51.7498 47.5968Z" fill="#F5F5F5"/>
<path opacity="0.45" d="M41.0362 42.701C40.3389 42.9852 39.5832 43.0967 38.8336 43.0261C38.0839 42.9554 37.3624 42.7047 36.7304 42.2953C35.6978 41.3733 36.3616 40.4513 37.9106 39.6123C36.2326 40.7095 36.3985 41.6868 37.551 42.3783C38.0744 42.6808 38.6622 42.8546 39.2659 42.8854C39.8617 42.906 40.4575 42.8439 41.0362 42.701Z" fill="#F5F5F5"/>
<path opacity="0.45" d="M33.024 38.4229C32.7751 38.6441 30.6084 40.6633 31.558 42.6825C32.5077 44.7017 35.7531 46.2138 38.3071 46.4904C36.5572 46.4364 34.8487 45.9451 33.3375 45.0613C29.9076 43.0974 29.963 40.7186 33.024 38.4229Z" fill="#F5F5F5"/>
<path d="M7.67822 32.5221C9.78669 29.2231 12.7076 26.5213 16.1606 24.6759C29.9906 16.673 52.4966 16.673 66.3543 24.6759C69.8035 26.5267 72.7232 29.2274 74.8367 32.5221H76.7452V39.7691C76.4871 44.8124 73.0572 49.8097 66.3727 53.6636C52.5427 61.6666 30.0367 61.6666 16.1791 53.6636C9.513 49.8097 6.03706 44.8124 5.7789 39.7691V32.5221H7.67822Z" fill="#7F3A6A"/>
<path opacity="0.25" d="M7.67822 32.5221C9.78669 29.2231 12.7076 26.5213 16.1606 24.6759C29.9906 16.673 52.4966 16.673 66.3543 24.6759C69.8035 26.5267 72.7232 29.2274 74.8367 32.5221H76.7452V39.7691C76.4871 44.8124 73.0572 49.8097 66.3727 53.6636C52.5427 61.6666 30.0367 61.6666 16.1791 53.6636C9.513 49.8097 6.03706 44.8124 5.7789 39.7691V32.5221H7.67822Z" fill="black"/>
<path opacity="0.1" d="M41.2575 18.6737C50.3392 18.6737 59.4209 20.6745 66.3543 24.6759C69.8035 26.5267 72.7232 29.2274 74.8367 32.5221H76.7453V39.7691C76.4871 44.8124 73.0573 49.8097 66.3728 53.6636C59.4393 57.6651 50.3576 59.6658 41.2759 59.6658L41.2575 18.6737Z" fill="black"/>
<path opacity="0.1" d="M60.684 22.0021C62.6583 22.7382 64.5699 23.6324 66.4004 24.6759C69.8496 26.5267 72.7693 29.2273 74.8828 32.5221H76.7914V39.769C76.5332 44.8124 73.1034 49.8096 66.4189 53.6636C64.5884 54.7071 62.6767 55.6012 60.7025 56.3374L60.684 22.0021Z" fill="black"/>
<path opacity="0.5" d="M21.8678 22.0021C19.8965 22.7382 17.9879 23.6324 16.1606 24.6759C12.7076 26.5213 9.7867 29.2231 7.67823 32.5221H5.76047V39.769C6.01863 44.8124 9.44848 49.8096 16.1606 53.6636C17.9879 54.7071 19.8965 55.6013 21.8678 56.3374V22.0021Z" fill="#7F3A6A"/>
<path d="M66.3543 18.0283C80.1843 26.0405 80.1843 39.013 66.3543 47.016C54.23 54.0139 35.5042 54.8898 21.7295 49.6437L21.1763 49.4224C19.4489 48.7415 17.7726 47.9373 16.1606 47.016C4.59873 40.3407 2.68097 30.2079 10.3981 22.3893C12.1106 20.6882 14.046 19.2274 16.1514 18.0467C30.0183 10.0345 52.4966 10.0345 66.3543 18.0283Z" fill="#7F3A6A"/>
<path opacity="0.2" d="M66.3543 18.0283C80.1843 26.0405 80.1843 39.013 66.3543 47.016C54.23 54.0139 35.5042 54.8898 21.7295 49.6437L21.1763 49.4224C19.4489 48.7415 17.7726 47.9373 16.1606 47.016C4.59873 40.3407 2.68097 30.2079 10.3981 22.3893C12.1106 20.6882 14.046 19.2274 16.1514 18.0467C30.0183 10.0345 52.4966 10.0345 66.3543 18.0283Z" fill="black"/>
<path opacity="0.5" d="M10.3981 22.3894C8.89471 24.0974 7.78506 26.115 7.14775 28.2994C6.51045 30.4838 6.36105 32.7815 6.71014 35.03C7.94562 42.0741 17.7741 48.0026 21.204 49.4225C19.4765 48.7416 17.8003 47.9374 16.1883 47.016C4.59875 40.3407 2.681 30.2541 10.3981 22.3894Z" fill="#F5F5F5"/>
<path opacity="0.5" d="M72.1076 42.6641C73.6129 40.9553 74.7236 38.9362 75.361 36.7501C75.9983 34.5639 76.1467 32.2642 75.7956 30.0142C74.5693 22.9702 64.7316 17.0417 61.311 15.6218C63.0394 16.3039 64.7158 17.1112 66.3267 18.0375C77.9162 24.722 79.834 34.864 72.1076 42.6641Z" fill="#F5F5F5"/>
<path d="M64.6025 45.928C77.5105 38.4874 77.5105 26.4277 64.6025 18.9871C51.6945 11.5466 30.8204 11.5466 17.9401 18.9871C5.05976 26.4277 5.0321 38.4874 17.9401 45.928C30.8481 53.3685 51.713 53.4054 64.6025 45.928Z" fill="#7F3A6A"/>
<path opacity="0.4" d="M64.6025 45.928C77.5105 38.4874 77.5105 26.4277 64.6025 18.9871C51.6945 11.5466 30.8204 11.5466 17.9401 18.9871C5.05976 26.4277 5.0321 38.4874 17.9401 45.928C30.8481 53.3685 51.713 53.4054 64.6025 45.928Z" fill="white"/>
<path opacity="0.2" d="M72.7622 38.1832C75.4176 33.2782 74.5509 27.8753 70.1714 23.2929C69.3186 22.4034 68.3934 21.5861 67.4054 20.8496C66.5492 20.211 65.6564 19.623 64.7316 19.0886C64.206 18.7751 63.6713 18.4893 63.1089 18.1666C64.4826 20.4255 63.9755 22.8412 56.2031 23.2929C40.9993 24.2149 60.2691 38.718 60.2691 38.718C60.2691 38.718 70.0423 34.025 72.7622 38.1832Z" fill="white"/>
<path opacity="0.5" d="M71.1948 34.1633C73.4814 33.9051 74.6062 31.5632 73.7211 28.9263C72.836 26.2894 70.2636 24.3163 67.9863 24.6021C65.7089 24.8879 64.5656 27.2114 65.46 29.8483C66.3543 32.4852 68.9175 34.4214 71.1948 34.1633Z" fill="white"/>
<path d="M47.1398 46.2784C46.393 40.6265 21.7111 24.9986 21.7111 24.9986C21.7111 24.9986 16.2344 22.7951 18.0231 18.9688C17.1125 19.4869 16.2321 20.0564 15.3861 20.6744C14.8145 21.0863 14.2798 21.5104 13.7819 21.9468C6.40588 28.3086 6.40588 36.6988 13.7819 43.0422C14.2798 43.4724 14.8145 43.8965 15.3861 44.3145C16.1422 44.8677 16.9536 45.3933 17.8295 45.9096C18.7054 46.4259 19.5444 46.8316 20.4479 47.2741C21.1671 47.6153 21.9139 47.938 22.67 48.1961C23.426 48.4543 24.1913 48.777 24.9842 49.0352C27.3938 49.8135 29.8597 50.4054 32.3602 50.8054L34.0106 51.0451C36.4573 51.3517 38.9207 51.5057 41.3866 51.5061C44.4039 51.4979 47.416 51.2513 50.3945 50.7685C50.3945 50.7685 46.4391 49.994 47.1398 46.2784Z" fill="#7F3A6A"/>
<path opacity="0.3" d="M47.1398 46.2784C46.393 40.6265 21.7111 24.9986 21.7111 24.9986C21.7111 24.9986 16.2344 22.7951 18.0231 18.9688C17.1125 19.4869 16.2321 20.0564 15.3861 20.6744C14.8145 21.0863 14.2798 21.5104 13.7819 21.9468C6.40588 28.3086 6.40588 36.6988 13.7819 43.0422C14.2798 43.4724 14.8145 43.8965 15.3861 44.3145C16.1422 44.8677 16.9536 45.3933 17.8295 45.9096C18.7054 46.4259 19.5444 46.8316 20.4479 47.2741C21.1671 47.6153 21.9139 47.938 22.67 48.1961C23.426 48.4543 24.1913 48.777 24.9842 49.0352C27.3938 49.8135 29.8597 50.4054 32.3602 50.8054L34.0106 51.0451C36.4573 51.3517 38.9207 51.5057 41.3866 51.5061C44.4039 51.4979 47.416 51.2513 50.3945 50.7685C50.3945 50.7685 46.4391 49.994 47.1398 46.2784Z" fill="white"/>
<path d="M23.8778 22.463C14.6578 27.7738 14.289 36.293 22.7529 41.825C23.1125 42.0648 23.4906 42.2953 23.8778 42.5165C33.4758 48.0485 49.0392 48.0485 58.6372 42.5165C68.2352 36.9845 68.2444 27.9951 58.6372 22.4538C58.25 22.2233 57.8443 22.0113 57.4386 21.7992C47.776 16.9218 33.0794 17.1431 23.8778 22.463Z" fill="#7F3A6A"/>
<path opacity="0.2" d="M23.8778 22.463C14.6578 27.7738 14.289 36.293 22.7529 41.825C23.1125 42.0648 23.4906 42.2953 23.8778 42.5165C33.4758 48.0485 49.0392 48.0485 58.6372 42.5165C68.2352 36.9845 68.2444 27.9951 58.6372 22.4538C58.25 22.2233 57.8443 22.0113 57.4386 21.7992C47.776 16.9218 33.0794 17.1431 23.8778 22.463Z" fill="black"/>
<path d="M24.6522 22.8779C15.4783 28.1702 15.4783 36.7633 24.6522 42.0555C33.8261 47.3478 48.7072 47.357 57.8442 42.0555C66.9813 36.754 67.0642 28.1702 57.8442 22.8779C48.6242 17.5857 33.8354 17.6041 24.6522 22.8779Z" fill="#7F3A6A"/>
<path opacity="0.5" d="M24.6522 22.8779C15.4783 28.1702 15.4783 36.7633 24.6522 42.0555C33.8261 47.3478 48.7072 47.357 57.8442 42.0555C66.9813 36.754 67.0642 28.1702 57.8442 22.8779C48.6242 17.5857 33.8354 17.6041 24.6522 22.8779Z" fill="black"/>
<path d="M24.6523 26.6858C33.8723 21.3843 48.7072 21.3843 57.8442 26.6858C61.5968 28.8525 63.8188 31.5724 64.5011 34.3845C63.8188 37.2059 61.5968 39.9165 57.8442 42.0832C48.6243 47.3847 33.7985 47.3847 24.6523 42.0832C20.8997 39.9165 18.6869 37.2059 18.0046 34.3845C18.6869 31.5724 20.8997 28.8525 24.6523 26.6858Z" fill="#7F3A6A"/>
<path opacity="0.35" d="M24.6523 26.6858C33.8723 21.3843 48.7072 21.3843 57.8442 26.6858C61.5968 28.8525 63.8188 31.5724 64.5011 34.3845C63.8188 37.2059 61.5968 39.9165 57.8442 42.0832C48.6243 47.3847 33.7985 47.3847 24.6523 42.0832C20.8997 39.9165 18.6869 37.2059 18.0046 34.3845C18.6869 31.5724 20.8997 28.8525 24.6523 26.6858Z" fill="black"/>
<path d="M56.074 36.579C56.074 36.1272 56.074 34.2555 56.074 33.813C56.074 32.6605 55.2811 31.5449 53.5662 30.5491H53.5108C50.3576 28.7051 47.0568 28.9633 44.1894 29.6916C42.9539 29.9959 41.783 30.4016 40.7135 30.7704C39.4914 31.2243 38.2447 31.6091 36.9794 31.9229C36.3963 32.058 35.7982 32.1169 35.1999 32.098C34.69 32.0632 34.1919 31.9285 33.734 31.7016L33.8446 31.6186L34.2226 31.3973C34.5369 31.2125 34.8635 31.0492 35.1999 30.9087C36.0206 30.5459 36.9048 30.3486 37.8019 30.328C38.6989 30.3075 39.5912 30.464 40.4277 30.7888L43.4426 27.7462V24.9802C40.7842 24.0736 37.918 23.9678 35.1999 24.676C34.3034 24.9114 33.4277 25.2197 32.5815 25.598L29.5388 23.8L25.9431 25.8745V28.6405L27.1693 29.3505C26.8401 29.8288 26.6575 30.3927 26.6438 30.9732V33.7392C26.6438 34.8917 27.4736 35.9981 29.2069 37.0031C30.7148 37.8869 32.4203 38.3783 34.1673 38.4322C34.49 38.4322 34.8311 38.4322 35.1538 38.4322C36.9778 38.3014 38.7746 37.9166 40.4922 37.2889L41.5248 36.9293L38.4915 39.9719V42.7379C40.3612 43.4449 42.3551 43.7645 44.3521 43.6773C46.3492 43.5902 48.3076 43.098 50.1087 42.2308L53.0867 43.955L56.6825 41.8805V39.1145L55.4471 38.4045C55.8353 37.8731 56.0539 37.2368 56.074 36.579ZM48.4952 36.3393C48.225 36.4959 47.9447 36.6345 47.6561 36.7541C45.7871 37.5578 43.6763 37.591 41.783 36.8463C44.549 35.8506 46.9462 35.0024 48.947 36.0534C48.7994 36.1456 48.698 36.2471 48.486 36.3393H48.4952Z" fill="#7F3A6A"/>
<path d="M44.1802 29.6179C42.9447 29.9221 41.7738 30.3278 40.7043 30.6966C39.4822 31.1505 38.2355 31.5353 36.9702 31.8491C36.3871 31.9843 35.7889 32.0432 35.1907 32.0243C34.5892 31.9902 34.0044 31.8132 33.485 31.508C32.3233 30.8441 32.1573 29.8668 33.8354 28.742L34.2134 28.5115C34.5297 28.3302 34.856 28.1671 35.1907 28.0228C36.0113 27.659 36.896 27.462 37.7935 27.443C38.6909 27.424 39.5832 27.5835 40.4185 27.9122L43.4334 24.8696C40.7749 23.9629 37.9088 23.8571 35.1907 24.5653C34.2942 24.8007 33.4184 25.1091 32.5722 25.4873L29.5388 23.8L25.9431 25.8745L28.9211 27.5987C25.897 29.8945 25.8324 32.2824 29.2346 34.2463C30.746 35.1219 32.4494 35.6127 34.195 35.6754C34.5235 35.6938 34.8529 35.6938 35.1815 35.6754C37.0059 35.5416 38.8027 35.1537 40.5199 34.5229C43.9682 33.3704 46.7618 32.0151 49.0852 33.352C50.6434 34.274 50.2101 35.3804 48.5044 36.3669C48.2342 36.5236 47.9539 36.6622 47.6654 36.7818C46.7218 37.1895 45.706 37.4037 44.6782 37.4116C43.6503 37.4195 42.6313 37.221 41.6816 36.8279L38.5191 39.9996C40.3889 40.7066 42.3828 41.0262 44.3798 40.939C46.3768 40.8518 48.3353 40.3597 50.1363 39.4925L53.1144 41.2074L56.7102 39.1329L53.7321 37.418C56.7286 35.1038 57.0698 32.5867 53.5754 30.5399H53.5201C50.3484 28.6498 47.0845 28.8895 44.1802 29.6179Z" fill="#7F3A6A"/>
<g opacity="0.3">
<path d="M44.1802 29.6179C42.9447 29.9221 41.7738 30.3278 40.7043 30.6966C39.4822 31.1505 38.2355 31.5353 36.9702 31.8491C36.3871 31.9843 35.7889 32.0432 35.1907 32.0243C34.5892 31.9902 34.0044 31.8132 33.485 31.508C32.3233 30.8441 32.1573 29.8668 33.8354 28.742L34.2134 28.5115C34.5297 28.3302 34.856 28.1671 35.1907 28.0228C36.0113 27.659 36.896 27.462 37.7935 27.443C38.6909 27.424 39.5832 27.5835 40.4185 27.9122L43.4334 24.8696C40.7749 23.9629 37.9088 23.8571 35.1907 24.5653C34.2942 24.8007 33.4184 25.1091 32.5722 25.4873L29.5388 23.8L25.9431 25.8745L28.9211 27.5987C25.897 29.8945 25.8324 32.2824 29.2346 34.2463C30.746 35.1219 32.4494 35.6127 34.195 35.6754C34.5235 35.6938 34.8529 35.6938 35.1815 35.6754C37.0059 35.5416 38.8027 35.1537 40.5199 34.5229C43.9682 33.3704 46.7618 32.0151 49.0852 33.352C50.6434 34.274 50.2101 35.3804 48.5044 36.3669C48.2342 36.5236 47.9539 36.6622 47.6654 36.7818C46.7218 37.1895 45.706 37.4037 44.6782 37.4116C43.6503 37.4195 42.6313 37.221 41.6816 36.8279L38.5191 39.9996C40.3889 40.7066 42.3828 41.0262 44.3798 40.939C46.3768 40.8518 48.3353 40.3597 50.1363 39.4925L53.1144 41.2074L56.7102 39.1329L53.7321 37.418C56.7286 35.1038 57.0698 32.5867 53.5754 30.5399H53.5201C50.3484 28.6498 47.0845 28.8895 44.1802 29.6179Z" fill="white"/>
</g>
<path opacity="0.45" d="M25.9431 25.8376L29.5665 24.1964L32.5446 25.5057L29.5388 23.7631L25.9431 25.8376Z" fill="#F5F5F5"/>
<path opacity="0.45" d="M34.7481 24.7221C37.3084 24.2032 39.9546 24.2916 42.4745 24.9802L40.4 27.9306L43.4149 24.8973C40.6129 23.9484 37.5863 23.8872 34.7481 24.7221Z" fill="#F5F5F5"/>
<path opacity="0.45" d="M53.5017 30.4753H53.557C57.0514 32.5221 56.7102 35.0853 53.7137 37.3534C56.3691 34.4675 55.8896 32.4483 53.013 30.7887C50.2881 29.4051 47.1766 28.9796 44.1802 29.5809C47.0845 28.8894 50.3484 28.6497 53.5017 30.4753Z" fill="#F5F5F5"/>
<path opacity="0.45" d="M53.7137 37.3903L56.0002 39.1421L53.0959 41.1797L56.6917 39.1052L53.7137 37.3903Z" fill="#F5F5F5"/>
<path opacity="0.45" d="M47.6469 36.7542C45.8749 37.6542 43.8239 37.8358 41.9213 37.2613L38.5007 39.9719L41.6632 36.8003C42.6129 37.1934 43.6319 37.3919 44.6597 37.3839C45.6876 37.376 46.7034 37.1619 47.6469 36.7542Z" fill="#F5F5F5"/>
<path opacity="0.45" d="M36.9425 31.8583C36.2452 32.1425 35.4896 32.254 34.7399 32.1834C33.9902 32.1128 33.2687 31.8621 32.6368 31.4526C31.5949 30.5306 32.2588 29.6087 33.8077 28.7697C32.1297 29.8761 32.2956 30.8534 33.4574 31.5357C33.9768 31.8409 34.5615 32.0179 35.1631 32.052C35.7621 32.0648 36.3603 31.9997 36.9425 31.8583Z" fill="#F5F5F5"/>
<path opacity="0.45" d="M28.8935 27.5802C28.6353 27.8107 26.4686 29.8207 27.4275 31.8398C28.3864 33.859 31.6134 35.3711 34.1765 35.6477C32.4309 35.585 30.7275 35.0942 29.2162 34.2186C25.8048 32.2639 25.8693 29.876 28.8935 27.5802Z" fill="#F5F5F5"/>
<path d="M10.435 21.1999C12.5431 17.9063 15.4603 15.2081 18.9082 13.3629C32.7382 5.35998 55.2442 5.35998 69.1019 13.3629C72.554 15.2054 75.4749 17.904 77.5843 21.1999H79.502V28.4561C79.2531 33.4994 75.814 38.4967 69.1295 42.3414C55.2995 50.3443 32.8027 50.3443 18.9358 42.3414C12.2698 38.4967 8.79383 33.4994 8.54489 28.4561V21.1999H10.435Z" fill="#7F3A6A"/>
<path opacity="0.25" d="M10.435 21.1999C12.5431 17.9063 15.4603 15.2081 18.9082 13.3629C32.7382 5.35998 55.2442 5.35998 69.1019 13.3629C72.554 15.2054 75.4749 17.904 77.5843 21.1999H79.502V28.4561C79.2531 33.4994 75.814 38.4967 69.1295 42.3414C55.2995 50.3443 32.8027 50.3443 18.9358 42.3414C12.2698 38.4967 8.79383 33.4994 8.54489 28.4561V21.1999H10.435Z" fill="black"/>
<path opacity="0.1" d="M44.005 7.36072C53.0867 7.36072 62.1777 9.36144 69.1019 13.3629C72.5541 15.2054 75.4749 17.904 77.5843 21.1999H79.502V28.4561C79.2531 33.4994 75.814 38.4966 69.1295 42.3414C62.2053 46.3429 53.1144 48.3436 44.0327 48.3436L44.005 7.36072Z" fill="black"/>
<path opacity="0.1" d="M63.3947 10.6892C65.3676 11.4215 67.2765 12.3158 69.1019 13.363C72.554 15.2055 75.4749 17.9041 77.5843 21.2H79.502V28.4561C79.2531 33.4995 75.814 38.4967 69.1295 42.3415C67.3042 43.3887 65.3953 44.283 63.4223 45.0153L63.3947 10.6892Z" fill="black"/>
<path opacity="0.5" d="M24.6246 10.6892C22.6495 11.4235 20.7377 12.3177 18.9082 13.363C15.4603 15.2081 12.5431 17.9064 10.435 21.2H8.51724V28.4561C8.76618 33.4995 12.2052 38.4967 18.9082 42.3415C20.7377 43.3868 22.6495 44.281 24.6246 45.0153V10.6892Z" fill="#7F3A6A"/>
<path d="M69.1111 6.71535C82.9411 14.7183 82.9411 27.6908 69.1111 35.6938C56.9776 42.701 38.261 43.5769 24.4771 38.3215L23.9239 38.1094C22.1954 37.4274 20.519 36.6201 18.9082 35.6938C7.35553 29.0185 5.42855 18.895 13.1549 11.0672C14.8707 9.36724 16.8055 7.90372 18.9082 6.71535C32.7659 -1.28761 55.2442 -1.28761 69.1111 6.71535Z" fill="#7F3A6A"/>
<path opacity="0.2" d="M69.1111 6.71535C82.9411 14.7183 82.9411 27.6908 69.1111 35.6938C56.9776 42.701 38.261 43.5769 24.4771 38.3215L23.9239 38.1094C22.1954 37.4274 20.519 36.6201 18.9082 35.6938C7.35553 29.0185 5.42855 18.895 13.1549 11.0672C14.8707 9.36724 16.8055 7.90372 18.9082 6.71535C32.7659 -1.28761 55.2442 -1.28761 69.1111 6.71535Z" fill="black"/>
<path opacity="0.5" d="M13.1549 11.0671C11.6493 12.7738 10.5383 14.7913 9.90084 16.976C9.26341 19.1608 9.11525 21.4592 9.4669 23.7078C10.6932 30.7518 20.5309 36.6803 23.9515 38.1094C22.2231 37.4274 20.5467 36.62 18.9358 35.6938C7.35553 29.0185 5.42854 18.8949 13.1549 11.0671Z" fill="#F5F5F5"/>
<path opacity="0.5" d="M74.8644 31.3419C76.3678 29.6339 77.4774 27.6163 78.1147 25.4319C78.752 23.2476 78.9015 20.9498 78.5524 18.7013C77.3169 11.6572 67.4884 5.72878 64.0585 4.29968C65.787 4.98183 67.4633 5.78918 69.0742 6.71532C80.6638 13.3906 82.5815 23.5234 74.8644 31.3419Z" fill="#F5F5F5"/>
<path d="M44.0235 40.2208C62.248 40.2208 77.0219 31.6925 77.0219 21.1723C77.0219 10.6521 62.248 2.12378 44.0235 2.12378C25.799 2.12378 11.0251 10.6521 11.0251 21.1723C11.0251 31.6925 25.799 40.2208 44.0235 40.2208Z" fill="#7F3A6A"/>
<path opacity="0.4" d="M44.0235 40.2208C62.248 40.2208 77.0219 31.6925 77.0219 21.1723C77.0219 10.6521 62.248 2.12378 44.0235 2.12378C25.799 2.12378 11.0251 10.6521 11.0251 21.1723C11.0251 31.6925 25.799 40.2208 44.0235 40.2208Z" fill="white"/>
<path opacity="0.2" d="M12.528 26.8702C9.8726 21.9652 10.7393 16.5623 15.1188 11.9799C15.9693 11.0852 16.8946 10.2647 17.8848 9.52741C18.741 8.88879 19.6337 8.30078 20.5586 7.76639C21.0841 7.46213 21.6189 7.1671 22.1813 6.8905C20.8075 9.14018 21.3146 11.565 29.0779 12.0168C44.2909 12.9388 25.0211 27.4327 25.0211 27.4327C25.0211 27.4327 15.2386 22.7028 12.528 26.8702Z" fill="white"/>
<path opacity="0.5" d="M14.0953 22.878C11.8088 22.6198 10.6839 20.2687 11.5691 17.6318C12.4542 14.9949 15.0266 13.0218 17.3039 13.3168C19.5812 13.6119 20.7153 15.9169 19.8302 18.5538C18.9451 21.1907 16.3727 23.0993 14.0953 22.878Z" fill="white"/>
<path d="M38.1503 34.9562C38.8971 29.332 63.5791 13.658 63.5791 13.658C63.5791 13.658 69.0558 11.4636 67.2671 7.63733C68.1777 8.1555 69.0581 8.72499 69.904 9.34303C70.4616 9.73756 70.9972 10.1623 71.5083 10.6154C78.8843 16.9772 78.8843 25.3674 71.5083 31.7015C71.0104 32.1379 70.4757 32.5621 69.904 32.9739C69.1186 33.5488 68.303 34.0813 67.4607 34.5689C66.6217 35.0576 65.7458 35.491 64.8422 35.9427C64.1231 36.2839 63.3763 36.5974 62.6202 36.8647C61.8642 37.1321 61.0897 37.4364 60.306 37.6945C57.8976 38.4772 55.4313 39.0691 52.93 39.4648C52.386 39.557 51.8236 39.6307 51.2796 39.7045C48.8338 40.0203 46.3697 40.1743 43.9036 40.1655C40.8779 40.1833 37.8558 39.952 34.868 39.474C34.868 39.474 38.851 38.6719 38.1503 34.9562Z" fill="#7F3A6A"/>
<path opacity="0.3" d="M38.1503 34.9562C38.8971 29.332 63.5791 13.658 63.5791 13.658C63.5791 13.658 69.0558 11.4636 67.2671 7.63733C68.1777 8.1555 69.0581 8.72499 69.904 9.34303C70.4616 9.73756 70.9972 10.1623 71.5083 10.6154C78.8843 16.9772 78.8843 25.3674 71.5083 31.7015C71.0104 32.1379 70.4757 32.5621 69.904 32.9739C69.1186 33.5488 68.303 34.0813 67.4607 34.5689C66.6217 35.0576 65.7458 35.491 64.8422 35.9427C64.1231 36.2839 63.3763 36.5974 62.6202 36.8647C61.8642 37.1321 61.0897 37.4364 60.306 37.6945C57.8976 38.4772 55.4313 39.0691 52.93 39.4648C52.386 39.557 51.8236 39.6307 51.2796 39.7045C48.8338 40.0203 46.3697 40.1743 43.9036 40.1655C40.8779 40.1833 37.8558 39.952 34.868 39.474C34.868 39.474 38.851 38.6719 38.1503 34.9562Z" fill="white"/>
<path d="M61.4124 11.141C70.6324 16.4609 70.992 24.971 62.5372 30.503C62.1777 30.7427 61.7996 30.9732 61.4124 31.2037C51.8144 36.7357 36.251 36.7357 26.653 31.2037C17.055 25.6717 17.0458 16.673 26.653 11.1318C27.0402 10.9013 27.4459 10.6892 27.8516 10.4771C37.5142 5.60896 52.2108 5.82102 61.4124 11.141Z" fill="#7F3A6A"/>
<path opacity="0.2" d="M61.4124 11.141C70.6324 16.4609 70.992 24.971 62.5372 30.503C62.1777 30.7427 61.7996 30.9732 61.4124 31.2037C51.8144 36.7357 36.251 36.7357 26.653 31.2037C17.055 25.6717 17.0458 16.673 26.653 11.1318C27.0402 10.9013 27.4459 10.6892 27.8516 10.4771C37.5142 5.60896 52.2108 5.82102 61.4124 11.141Z" fill="black"/>
<path d="M44.0234 34.735C56.998 34.735 67.516 28.6628 67.516 21.1724C67.516 13.6819 56.998 7.60974 44.0234 7.60974C31.0489 7.60974 20.5309 13.6819 20.5309 21.1724C20.5309 28.6628 31.0489 34.735 44.0234 34.735Z" fill="#7F3A6A"/>
<path opacity="0.5" d="M44.0234 34.735C56.998 34.735 67.516 28.6628 67.516 21.1724C67.516 13.6819 56.998 7.60974 44.0234 7.60974C31.0489 7.60974 20.5309 13.6819 20.5309 21.1724C20.5309 28.6628 31.0489 34.735 44.0234 34.735Z" fill="black"/>
<path d="M60.684 15.3637C51.464 10.0715 36.629 10.0715 27.492 15.3637C23.7394 17.5304 21.5174 20.2503 20.8351 23.0716C21.5174 25.8837 23.7394 28.6037 27.492 30.7704C36.712 36.0626 51.5377 36.0626 60.684 30.7704C64.4365 28.6037 66.6493 25.8837 67.3316 23.0716C66.6032 20.2503 64.372 17.5304 60.684 15.3637Z" fill="#7F3A6A"/>
<path opacity="0.35" d="M60.684 15.3637C51.464 10.0715 36.629 10.0715 27.492 15.3637C23.7394 17.5304 21.5174 20.2503 20.8351 23.0716C21.5174 25.8837 23.7394 28.6037 27.492 30.7704C36.712 36.0626 51.5377 36.0626 60.684 30.7704C64.4365 28.6037 66.6493 25.8837 67.3316 23.0716C66.6032 20.2503 64.372 17.5304 60.684 15.3637Z" fill="black"/>
<path d="M58.84 25.266C58.84 24.805 58.84 22.9334 58.84 22.5C58.84 21.3567 58.0379 20.2411 56.3322 19.2361H56.2676C53.1144 17.3921 49.8136 17.6503 46.9554 18.3787C45.7199 18.6922 44.549 19.0886 43.4795 19.4574C42.2735 19.9126 41.0421 20.2974 39.7915 20.6099C39.2119 20.7467 38.6161 20.8025 38.0212 20.7759C37.5079 20.751 37.0054 20.6191 36.546 20.3886L36.6659 20.3057L37.0347 20.0752C37.3541 19.8939 37.6835 19.7307 38.0212 19.5865C38.8404 19.224 39.723 19.0268 40.6186 19.0063C41.5141 18.9857 42.4048 19.1421 43.2398 19.4666L46.2547 16.4333V13.6673C43.5986 12.7634 40.7352 12.6607 38.0212 13.3722C37.1247 13.6074 36.2489 13.9158 35.4028 14.2942L32.3878 12.5516L28.792 14.6354V17.4014L30.0275 18.1113C29.6919 18.5905 29.5058 19.1584 29.4927 19.7433C29.4927 20.2043 29.4927 22.0575 29.4927 22.5093C29.4927 23.6618 30.3133 24.7774 32.0467 25.7731C33.5579 26.657 35.2664 27.1483 37.0163 27.2022C37.3482 27.2022 37.6801 27.2022 38.012 27.2022C39.8335 27.0684 41.6272 26.6805 43.3412 26.0497L44.383 25.6901L41.3497 28.7328V31.4988C43.2188 32.2071 45.2124 32.5283 47.2094 32.4427C49.2064 32.3571 51.1652 31.8666 52.9669 31.0009L55.9449 32.7158L59.5315 30.6413V27.8753L58.3052 27.1653C58.6763 26.6031 58.8632 25.9393 58.84 25.266ZM51.2612 25.0263C50.9921 25.1792 50.7151 25.3178 50.4314 25.4412C48.558 26.2425 46.4442 26.2723 44.549 25.5242C47.3611 24.5376 49.7122 23.6802 51.7222 24.7313L51.2612 25.0263Z" fill="#7F3A6A"/>
<path d="M46.937 18.268C45.7015 18.5814 44.5306 18.9779 43.4611 19.3467C42.255 19.8019 41.0236 20.1867 39.7731 20.4992C39.1935 20.6359 38.5977 20.6918 38.0028 20.6652C37.3991 20.6343 36.8113 20.4605 36.2879 20.158C35.1354 19.485 34.9694 18.5077 36.6475 17.392L37.0163 17.1708C37.3318 16.9822 37.6616 16.8188 38.0028 16.6821C38.8219 16.3196 39.7046 16.1224 40.6001 16.1019C41.4956 16.0813 42.3864 16.2378 43.2213 16.5623L46.2363 13.5197C43.5802 12.6157 40.7168 12.5131 38.0028 13.2246C37.1062 13.4598 36.2305 13.7682 35.3843 14.1466L32.3694 12.4041L28.7736 14.4878L31.7516 16.2027C28.7275 18.4985 28.6722 20.8772 32.0651 22.8411C33.5763 23.7249 35.2848 24.2163 37.0347 24.2702C37.3666 24.2702 37.6985 24.2702 38.0305 24.2702C39.8525 24.1409 41.647 23.7529 43.3596 23.1177C46.8079 21.9652 49.6016 20.6098 51.925 21.9467C53.4832 22.8687 53.0591 23.9751 51.3441 24.9709C51.0751 25.1238 50.7981 25.2624 50.5144 25.3858C49.5656 25.7844 48.5469 25.9897 47.5179 25.9897C46.4888 25.9897 45.4701 25.7844 44.5214 25.3858L41.3681 28.5575C43.2379 29.2644 45.2318 29.584 47.2288 29.4969C49.2258 29.4097 51.1843 28.9176 52.9853 28.0504L55.9634 29.7745L59.5592 27.6908L56.5811 25.9759C59.5684 23.6616 59.9188 21.1446 56.4244 19.0978H56.3598C53.0959 17.346 49.8321 17.5672 46.937 18.268Z" fill="#7F3A6A"/>
<g opacity="0.3">
<path d="M46.937 18.268C45.7015 18.5814 44.5306 18.9779 43.4611 19.3467C42.255 19.8019 41.0236 20.1867 39.7731 20.4992C39.1935 20.6359 38.5977 20.6918 38.0028 20.6652C37.3991 20.6343 36.8113 20.4605 36.2879 20.158C35.1354 19.485 34.9694 18.5077 36.6475 17.392L37.0163 17.1708C37.3318 16.9822 37.6616 16.8188 38.0028 16.6821C38.8219 16.3196 39.7046 16.1224 40.6001 16.1019C41.4956 16.0813 42.3864 16.2378 43.2213 16.5623L46.2363 13.5197C43.5802 12.6157 40.7168 12.5131 38.0028 13.2246C37.1062 13.4598 36.2305 13.7682 35.3843 14.1466L32.3694 12.4041L28.7736 14.4878L31.7516 16.2027C28.7275 18.4985 28.6722 20.8772 32.0651 22.8411C33.5763 23.7249 35.2848 24.2163 37.0347 24.2702C37.3666 24.2702 37.6985 24.2702 38.0305 24.2702C39.8525 24.1409 41.647 23.7529 43.3596 23.1177C46.8079 21.9652 49.6016 20.6098 51.925 21.9467C53.4832 22.8687 53.0591 23.9751 51.3441 24.9709C51.0751 25.1238 50.7981 25.2624 50.5144 25.3858C49.5656 25.7844 48.5469 25.9897 47.5179 25.9897C46.4888 25.9897 45.4701 25.7844 44.5214 25.3858L41.3681 28.5575C43.2379 29.2644 45.2318 29.584 47.2288 29.4969C49.2258 29.4097 51.1843 28.9176 52.9853 28.0504L55.9634 29.7745L59.5592 27.6908L56.5811 25.9759C59.5684 23.6616 59.9188 21.1446 56.4244 19.0978H56.3598C53.0959 17.346 49.8321 17.5672 46.937 18.268Z" fill="white"/>
</g>
<path opacity="0.45" d="M28.6906 14.5247L32.3233 12.8743L35.3014 14.1836L32.2864 12.4502L28.6906 14.5247Z" fill="#F5F5F5"/>
<path opacity="0.45" d="M37.5049 13.3906C40.0659 12.8812 42.71 12.9696 45.2313 13.6488L43.166 16.6176L46.1809 13.575C43.3774 12.6188 40.3465 12.5543 37.5049 13.3906Z" fill="#F5F5F5"/>
<path opacity="0.45" d="M56.2492 19.19H56.3137C59.8081 21.2369 59.4577 23.7539 56.4705 26.0681C59.1166 23.1823 58.6372 21.1723 55.7605 19.5035C53.0376 18.124 49.9304 17.6987 46.937 18.2957C49.8321 17.5673 53.0959 17.346 56.2492 19.19Z" fill="#F5F5F5"/>
<path opacity="0.45" d="M56.4705 26.0681L58.7478 27.8199L55.8527 29.8668L59.4485 27.783L56.4705 26.0681Z" fill="#F5F5F5"/>
<path opacity="0.45" d="M50.4037 25.4412C48.6265 26.3359 46.5736 26.5141 44.6689 25.939L41.2574 28.6497L44.4107 25.478C45.3619 25.8708 46.3818 26.0699 47.4109 26.0636C48.44 26.0572 49.4574 25.8456 50.4037 25.4412Z" fill="#F5F5F5"/>
<path opacity="0.45" d="M39.6901 20.5453C38.9932 20.8336 38.2362 20.9466 37.4855 20.8742C36.7348 20.8019 36.0133 20.5465 35.3843 20.1304C34.3425 19.2084 35.0155 18.2864 36.5645 17.4474C34.8864 18.5538 35.0524 19.5311 36.2049 20.2134C36.7283 20.5158 37.3161 20.6897 37.9198 20.7205C38.5152 20.7441 39.1109 20.6851 39.6901 20.5453Z" fill="#F5F5F5"/>
<path opacity="0.45" d="M31.641 16.2672C31.3921 16.4885 29.2254 18.5077 30.175 20.5269C31.1247 22.5461 34.3609 24.0581 36.9241 24.3347C35.1742 24.2808 33.4657 23.7895 31.9545 22.9056C28.5615 20.9418 28.6168 18.563 31.641 16.2672Z" fill="#F5F5F5"/>
<path d="M12.657 17.5949L13.5514 10.7998L14.4457 17.5949L26.2104 18.1113L14.4457 18.6276L13.5514 25.4135L12.657 18.6276L0.90152 18.1113L12.657 17.5949Z" fill="white"/>
</svg>
