<svg width="43" height="52" viewBox="0 0 43 52" fill="none" xmlns="http://www.w3.org/2000/svg">
<path d="M31.2343 35.6556C31.8246 34.801 32.6435 34.1299 33.5974 33.719C34.5513 33.3082 35.6015 33.1741 36.628 33.3322C39.4678 33.6825 42.0494 35.3329 42.1139 35.674C42.1785 36.0152 39.7628 37.85 36.4067 37.85C35.4349 37.8977 34.4649 37.7252 33.5692 37.3452C32.6735 36.9652 31.8753 36.3876 31.2343 35.6556Z" fill="#455A64"/>
<path d="M25.2505 39.4911C26.1645 39.0001 27.1982 38.7761 28.2334 38.8446C29.2687 38.9131 30.2638 39.2713 31.1052 39.8784C33.4748 41.4827 35.0237 44.138 34.9223 44.4884C34.8209 44.8387 31.8336 45.4104 28.8463 43.8522C27.9554 43.4457 27.1686 42.8418 26.5456 42.0862C25.9226 41.3306 25.4797 40.4432 25.2505 39.4911Z" fill="#455A64"/>
<path d="M20.8157 36.301C20.4914 35.3154 20.4509 34.2585 20.6987 33.2509C20.9465 32.2433 21.4727 31.3258 22.2171 30.603C24.2086 28.547 26.7718 27.4221 27.0853 27.5697C27.3988 27.7172 27.4725 31.1101 25.8406 33.6364C25.3031 34.4754 24.5581 35.1614 23.6779 35.6282C22.7976 36.095 21.8117 36.3267 20.8157 36.301Z" fill="#455A64"/>
<path d="M1.08491 50.5643C2.60356 48.4552 4.47506 46.6242 6.61691 45.1521C8.53032 43.7064 10.5594 42.4205 12.6837 41.3074C17.1084 38.9854 21.8207 37.2586 26.6981 36.1719C29.8218 35.3564 33.0557 35.0451 36.2776 35.2499C36.3514 35.2499 36.3698 35.425 36.2776 35.425C33.3668 35.6368 30.4831 36.1277 27.6662 36.891C20.7677 38.4317 14.2532 41.355 8.51623 45.4841C6.18231 47.2521 3.95344 49.1546 1.84095 51.182C1.75705 51.2757 1.64025 51.3334 1.51486 51.3432C1.38946 51.353 1.26512 51.314 1.16773 51.2344C1.07033 51.1548 1.00737 51.0408 0.991942 50.916C0.976515 50.7911 1.00982 50.6652 1.08491 50.5643Z" fill="#37474F"/>
<path d="M19.5618 38.2556C20.0041 37.0346 20.5792 35.8659 21.2767 34.7705C21.9091 33.7052 22.7346 32.7672 23.7108 32.0045C23.8491 31.903 23.7753 32.152 23.7108 32.2442C23.0444 33.1306 22.4288 34.0541 21.8668 35.0102C21.2849 36.0352 20.8504 37.137 20.576 38.2833C20.5348 38.4372 20.4473 38.5746 20.3252 38.6769C20.2031 38.7792 20.0524 38.8414 19.8937 38.8549C19.8265 38.8486 19.7619 38.826 19.7054 38.789C19.6489 38.7521 19.6023 38.7019 19.5696 38.6429C19.5369 38.5838 19.5191 38.5177 19.5177 38.4502C19.5164 38.3827 19.5315 38.3159 19.5618 38.2556Z" fill="#37474F"/>
<path d="M20.032 38.2003C21.8506 38.1433 23.6632 38.4376 25.3704 39.067C26.1615 39.3139 26.9322 39.6222 27.6754 39.989C28.5683 40.4051 29.3923 40.9554 30.1187 41.6209C30.1187 41.6209 30.2478 41.8699 30.1832 41.833C29.3451 41.3649 28.4834 40.9402 27.6016 40.5606C26.7996 40.2126 25.97 39.9319 25.1214 39.7216C23.4356 39.2656 21.7034 39.0027 19.9582 38.9379C19.6079 38.901 19.7277 38.2187 20.032 38.2003Z" fill="#37474F"/>
<path d="M15.422 43.3819C16.214 42.7113 17.1787 42.277 18.2059 42.1286C19.233 41.9802 20.2812 42.1238 21.2306 42.5429C23.8767 43.6216 25.942 45.8897 25.9144 46.2309C25.8867 46.572 23.0746 47.7337 19.8384 46.867C18.8869 46.6572 17.9953 46.2346 17.2305 45.631C16.4656 45.0274 15.8473 44.2585 15.422 43.3819Z" fill="#455A64"/>
<path d="M10.0099 43.1699C11.7772 42.736 13.6113 42.6453 15.4128 42.9025C16.2367 42.9731 17.0536 43.1087 17.8561 43.3082C18.828 43.5283 19.7607 43.8951 20.6221 44.3962C20.6221 44.3962 20.7973 44.6174 20.7235 44.5898C19.8146 44.3071 18.8913 44.0732 17.9575 43.889C17.1018 43.708 16.2317 43.6032 15.3575 43.5756C13.6148 43.4863 11.8676 43.5914 10.1482 43.889C9.72405 43.9444 9.70561 43.2529 10.0099 43.1699Z" fill="#37474F"/>
<path d="M22.9086 12.5411C23.831 11.8723 24.5461 10.9569 24.9717 9.90014C25.3974 8.84333 25.5164 7.68791 25.3151 6.56653C24.8633 3.45939 22.9824 0.674925 22.6136 0.610385C22.2448 0.545845 20.2625 3.24733 20.3455 6.91689C20.3156 7.98773 20.5311 9.05118 20.9753 10.026C21.4196 11.0008 22.0809 11.8611 22.9086 12.5411Z" fill="#455A64"/>
<path d="M18.8519 19.1979C19.3723 18.1851 19.5949 17.0454 19.4937 15.9112C19.3925 14.777 18.9717 13.6948 18.2802 12.79C16.4362 10.2269 13.5042 8.60416 13.1447 8.7148C12.7851 8.82544 12.2227 12.1354 14.0113 15.3716C14.4727 16.3365 15.1488 17.183 15.9878 17.8462C16.8268 18.5095 17.8065 18.9718 18.8519 19.1979Z" fill="#455A64"/>
<path d="M22.4661 24.02C23.5545 24.357 24.7163 24.3782 25.8163 24.0811C26.9163 23.7841 27.9095 23.181 28.6804 22.3419C30.8839 20.1107 32.0549 17.2617 31.8797 16.9298C31.7045 16.5979 27.9981 16.5886 25.269 18.4511C22.2909 20.4426 22.5952 23.098 22.4661 24.02Z" fill="#455A64"/>
<path d="M7.32685 46.0004C9.60185 44.2912 11.5639 42.2013 13.1262 39.823C14.6605 37.6879 16.0173 35.4307 17.183 33.074C19.6239 28.1626 21.3976 22.9471 22.4569 17.5659C23.2751 14.12 23.5366 10.5653 23.2313 7.03669C23.2313 6.95371 23.0377 6.94449 23.0285 7.03669C22.8777 10.2367 22.4145 13.4142 21.6455 16.5241C21.0874 19.3433 20.32 22.1169 19.3497 24.8221C17.6806 29.4019 15.4541 33.7588 12.7206 37.7946C10.8367 40.4013 8.80498 42.8979 6.63535 45.272C6.20201 45.733 6.74599 46.4061 7.32685 46.0004Z" fill="#37474F"/>
<path d="M20.3547 25.4122C21.6852 24.8992 22.9533 24.2372 24.1349 23.4391C25.3056 22.7193 26.3262 21.7801 27.1406 20.6731C27.2512 20.5163 26.9746 20.5993 26.8824 20.6731C25.9246 21.4247 24.9241 22.1205 23.8859 22.7568C22.775 23.418 21.5771 23.9208 20.327 24.2504C20.1573 24.3009 20.007 24.4022 19.8966 24.5407C19.7862 24.6792 19.7208 24.8482 19.7093 25.0249C19.7127 25.0993 19.7345 25.1718 19.7727 25.2357C19.8109 25.2997 19.8643 25.3533 19.9282 25.3916C19.992 25.4299 20.0644 25.4518 20.1388 25.4554C20.2133 25.459 20.2874 25.4442 20.3547 25.4122Z" fill="#37474F"/>
<path d="M20.41 24.8866C20.4225 22.8897 20.0532 20.9087 19.322 19.0503C19.0321 18.1889 18.6777 17.3506 18.2618 16.5425C17.7886 15.5726 17.1664 14.6828 16.4178 13.9056C16.4178 13.9056 16.1412 13.7765 16.1873 13.8503C16.7234 14.7448 17.2097 15.6682 17.644 16.6163C18.0536 17.4862 18.3867 18.3901 18.6398 19.3177C19.1762 21.1532 19.5071 23.0426 19.6263 24.9512C19.6447 25.3845 20.3916 25.2278 20.41 24.8866Z" fill="#37474F"/>
<path d="M14.878 30.1421C15.5982 29.2575 16.0532 28.1871 16.1903 27.0547C16.3273 25.9223 16.1409 24.7742 15.6525 23.7434C14.4078 20.8667 11.8631 18.6632 11.4851 18.7C11.107 18.7369 9.90845 21.8533 10.9411 25.3845C11.1948 26.4236 11.6809 27.3917 12.3628 28.2157C13.0448 29.0398 13.9047 29.6984 14.878 30.1421Z" fill="#455A64"/>
<path d="M15.2192 36.0059C15.6463 34.0542 15.6964 32.0388 15.3667 30.0682C15.2619 29.166 15.0924 28.2724 14.8596 27.3945C14.5889 26.3503 14.1631 25.3527 13.5964 24.4348C13.5964 24.4348 13.3475 24.2504 13.3752 24.3242C13.7148 25.3216 13.998 26.3375 14.2234 27.3668C14.4374 28.3036 14.5731 29.2565 14.6291 30.2158C14.7751 32.1228 14.7071 34.0403 14.4262 35.9322C14.3709 36.3471 15.127 36.3563 15.2192 36.0059Z" fill="#37474F"/>
</svg>
