<svg width="53" height="96" viewBox="0 0 53 96" fill="none" xmlns="http://www.w3.org/2000/svg">
<g opacity="0.2">
<path d="M1.1847 28.2801L49.1287 0.620138C49.5897 0.352758 49.9677 0.574037 49.9677 1.1088V63.3161C49.9533 63.6081 49.8697 63.8924 49.7239 64.1457C49.578 64.399 49.374 64.614 49.1287 64.7729L1.1847 92.4329C0.714476 92.7003 0.345673 92.4882 0.345673 91.9535V29.7277C0.36149 29.4373 0.445748 29.1548 0.591564 28.9033C0.737379 28.6517 0.94062 28.4382 1.1847 28.2801Z" fill="black"/>
</g>
<path d="M47.884 4.48331L3.48047 30.0965C3.21211 30.2732 2.98893 30.5104 2.82881 30.789C2.6687 31.0676 2.5761 31.3799 2.55847 31.7007V92.2669C2.57386 92.587 2.66556 92.8988 2.82594 93.1763C2.98633 93.4538 3.21075 93.6889 3.48047 93.862L5.2415 94.8577C5.52743 95.002 5.84323 95.0772 6.1635 95.0772C6.48376 95.0772 6.79956 95.002 7.08549 94.8577L51.4982 69.2538C51.7789 69.0883 52.0158 68.858 52.1891 68.582C52.3623 68.3061 52.4669 67.9927 52.494 67.668V7.07413C52.4786 6.75401 52.3869 6.44221 52.2265 6.16474C52.0661 5.88727 51.8417 5.65217 51.572 5.47907L49.728 4.47409C49.4401 4.33538 49.1245 4.26411 48.8049 4.26571C48.4854 4.26731 48.1704 4.34173 47.884 4.48331Z" fill="#7F3A6A"/>
<path opacity="0.2" d="M7.10393 94.8485C6.81658 94.988 6.50134 95.0605 6.18193 95.0605C5.86252 95.0605 5.54727 94.988 5.25993 94.8485L3.4989 93.8435C3.22919 93.6704 3.00479 93.4353 2.8444 93.1579C2.68402 92.8804 2.59229 92.5686 2.5769 92.2485V31.71C2.59139 31.3818 2.69325 31.0635 2.87195 30.788L6.47697 32.8717C6.30477 33.1491 6.20933 33.4673 6.20039 33.7937V94.3138C6.18195 94.8577 6.55995 95.1712 7.10393 94.8485Z" fill="black"/>
<g opacity="0.2">
<path d="M52.4294 6.89897C52.3649 6.43797 51.9776 6.27201 51.5074 6.53017L7.1039 32.1433C6.83728 32.3197 6.61615 32.5567 6.45852 32.8348L2.84427 30.788C2.99812 30.5199 3.21688 30.2948 3.48045 30.1334L47.884 4.48333C48.1707 4.34184 48.4862 4.26825 48.806 4.26825C49.1257 4.26825 49.4412 4.34184 49.728 4.48333L51.489 5.48831C51.7378 5.64215 51.9506 5.84777 52.1129 6.09119C52.2752 6.3346 52.3831 6.61011 52.4294 6.89897Z" fill="white"/>
</g>
<path d="M51.5167 6.53935L7.10392 32.1433C6.83556 32.32 6.61238 32.5572 6.45226 32.8358C6.29214 33.1145 6.19954 33.4267 6.18192 33.7476V94.323C6.18192 94.913 6.59682 95.1435 7.10392 94.8485L51.5167 69.2446C51.7927 69.0779 52.0252 68.848 52.1951 68.5739C52.365 68.2998 52.4675 67.9893 52.494 67.6679V7.07411C52.494 6.48403 52.033 6.24431 51.5167 6.53935Z" fill="white"/>
<path d="M51.7011 7.28618V67.668C51.68 67.8522 51.6197 68.0298 51.5243 68.1888C51.4288 68.3479 51.3005 68.4846 51.1479 68.59L6.89187 94.0925V33.7476C6.91469 33.5638 6.9757 33.3869 7.07097 33.2281C7.16624 33.0693 7.29367 32.9322 7.44508 32.8256L51.7011 7.32306M51.9316 6.40106C51.7842 6.40603 51.6409 6.45062 51.5167 6.53014L7.10392 32.1433C6.83556 32.3201 6.61238 32.5573 6.45226 32.8359C6.29214 33.1145 6.19954 33.4267 6.18192 33.7476V94.323C6.18192 94.7379 6.38477 94.9776 6.68903 94.9776C6.83682 94.9751 6.98077 94.9303 7.10392 94.8485L51.5167 69.2446C51.7927 69.0779 52.0252 68.848 52.1951 68.5739C52.365 68.2998 52.4675 67.9893 52.494 67.668V7.07412C52.494 6.65 52.2819 6.41028 51.9777 6.41028L51.9316 6.40106Z" fill="#7F3A6A"/>
<path d="M21.3396 35.3979V41.7874C18.5736 43.3825 16.3331 47.6698 16.3331 51.3486L11.5387 54.1146C11.5387 46.8861 15.9275 38.5051 21.3396 35.3979Z" fill="#7F3A6A"/>
<path d="M17.7346 55.1564L14.2863 61.6104C12.4423 60.1629 11.5203 57.5813 11.5203 54.1146L16.3147 51.3486C16.2568 52.0486 16.354 52.7529 16.5994 53.4111C16.8448 54.0692 17.2324 54.6652 17.7346 55.1564Z" fill="#7F3A6A"/>
<g opacity="0.3">
<path d="M17.7346 55.1564L14.2863 61.6104C12.4423 60.1629 11.5203 57.5813 11.5203 54.1146L16.3147 51.3486C16.2568 52.0486 16.354 52.7529 16.5994 53.4111C16.8448 54.0692 17.2324 54.6652 17.7346 55.1564Z" fill="black"/>
</g>
<path d="M31.1312 42.774C31.1312 49.9932 26.7425 58.3742 21.3396 61.4998C18.5183 63.1225 16.241 63.1502 14.2863 61.5828L17.7346 55.1288C18.6566 55.8571 19.9197 55.9032 21.3396 55.1288C24.1056 53.5245 26.3369 49.2464 26.3369 45.5676C26.3369 41.8888 24.0964 40.1831 21.3396 41.7782V35.398C26.7425 32.2539 31.1312 35.5731 31.1312 42.774Z" fill="#7F3A6A"/>
<g opacity="0.4">
<path d="M31.1312 42.774C31.1312 49.9932 26.7425 58.3742 21.3396 61.4998C18.5183 63.1225 16.241 63.1502 14.2863 61.5828L17.7346 55.1288C18.6566 55.8571 19.9197 55.9032 21.3396 55.1288C24.1056 53.5245 26.3369 49.2464 26.3369 45.5676C26.3369 41.8888 24.0964 40.1831 21.3396 41.7782V35.398C26.7425 32.2539 31.1312 35.5731 31.1312 42.774Z" fill="white"/>
</g>
<path d="M37.1611 31.4149L34.3029 33.0561C34.2869 33.068 34.2737 33.0832 34.2642 33.1008C34.2546 33.1183 34.249 33.1376 34.2476 33.1575V36.4583C34.2476 36.4583 34.2476 36.5044 34.3029 36.4583L37.1611 34.8171C37.1771 34.8052 37.1903 34.79 37.1999 34.7725C37.2094 34.755 37.2151 34.7356 37.2164 34.7157V31.4426C37.2164 31.4426 37.1888 31.3965 37.1611 31.4149Z" fill="#7F3A6A"/>
<path opacity="0.4" d="M37.1611 31.4149L34.3029 33.0561C34.2869 33.068 34.2737 33.0832 34.2642 33.1008C34.2546 33.1183 34.249 33.1376 34.2476 33.1575V36.4583C34.2476 36.4583 34.2476 36.5044 34.3029 36.4583L37.1611 34.8171C37.1771 34.8052 37.1903 34.79 37.1999 34.7725C37.2094 34.755 37.2151 34.7356 37.2164 34.7157V31.4426C37.2164 31.4426 37.1888 31.3965 37.1611 31.4149Z" fill="white"/>
<path d="M39.2725 31.3689C39.2356 31.3695 39.1992 31.3604 39.1668 31.3426C39.1345 31.3248 39.1074 31.2989 39.0881 31.2674C39.0604 31.2181 39.0526 31.1601 39.0663 31.1052C39.08 31.0504 39.1142 31.0028 39.1619 30.9724L47.1648 26.3624C47.2127 26.3352 47.2693 26.3276 47.3227 26.3414C47.376 26.3552 47.4219 26.3891 47.4507 26.4362C47.4656 26.4603 47.4755 26.4871 47.4799 26.5151C47.4843 26.5431 47.483 26.5718 47.4761 26.5993C47.4692 26.6268 47.4569 26.6526 47.4399 26.6753C47.4228 26.6979 47.4014 26.717 47.3769 26.7312L39.3739 31.3412C39.3435 31.3601 39.3083 31.3697 39.2725 31.3689Z" fill="#455A64"/>
<path d="M39.2725 33.1852C39.2356 33.1858 39.1992 33.1768 39.1668 33.159C39.1345 33.1412 39.1074 33.1153 39.0881 33.0838C39.0609 33.0359 39.0533 32.9793 39.0671 32.9259C39.0809 32.8726 39.1149 32.8267 39.1619 32.798L47.1648 28.188C47.2138 28.1615 47.2713 28.1554 47.3247 28.1709C47.3782 28.1864 47.4235 28.2223 47.4507 28.2709C47.4654 28.2943 47.4752 28.3205 47.4795 28.3478C47.4837 28.3751 47.4824 28.403 47.4754 28.4298C47.4685 28.4565 47.4562 28.4816 47.4393 28.5034C47.4223 28.5253 47.4011 28.5434 47.3769 28.5568L39.3739 33.1668C39.3592 33.1766 39.3426 33.1834 39.3251 33.1865C39.3077 33.1897 39.2898 33.1893 39.2725 33.1852Z" fill="#455A64"/>
<path d="M37.1611 38.164L34.3029 39.8144C34.2869 39.8263 34.2737 39.8415 34.2642 39.859C34.2546 39.8765 34.249 39.8959 34.2476 39.9158V43.2166H34.3029L37.1611 41.5662C37.1769 41.5562 37.1901 41.5426 37.1997 41.5266C37.2093 41.5106 37.215 41.4926 37.2164 41.474V38.164C37.2164 38.164 37.1888 38.164 37.1611 38.164Z" fill="#7F3A6A"/>
<path d="M39.2725 38.164C39.2345 38.1647 39.197 38.1546 39.1644 38.1351C39.1318 38.1155 39.1054 38.0872 39.0881 38.0533C39.0609 38.0054 39.0533 37.9488 39.0671 37.8955C39.0809 37.8421 39.1149 37.7962 39.1619 37.7675L47.1648 33.1575C47.1884 33.1373 47.216 33.1224 47.2459 33.1141C47.2758 33.1057 47.3071 33.104 47.3377 33.109C47.3683 33.1141 47.3974 33.1258 47.423 33.1433C47.4486 33.1609 47.47 33.1838 47.4858 33.2105C47.5016 33.2373 47.5113 33.2671 47.5142 33.298C47.5172 33.3289 47.5133 33.36 47.503 33.3892C47.4926 33.4185 47.4759 33.4451 47.4541 33.4672C47.4323 33.4892 47.406 33.5063 47.3769 33.5171L39.3739 38.1271C39.3446 38.1492 39.3092 38.1621 39.2725 38.164Z" fill="#455A64"/>
<path d="M39.2725 39.9342C39.2356 39.9348 39.1992 39.9258 39.1668 39.908C39.1345 39.8902 39.1074 39.8643 39.0881 39.8328C39.0604 39.7835 39.0526 39.7255 39.0663 39.6706C39.08 39.6157 39.1142 39.5682 39.1619 39.5378L47.1648 34.9278C47.2127 34.9005 47.2693 34.893 47.3227 34.9068C47.376 34.9205 47.4219 34.9545 47.4507 35.0015C47.4656 35.0256 47.4755 35.0525 47.4799 35.0805C47.4843 35.1085 47.483 35.1371 47.4761 35.1646C47.4692 35.1921 47.4569 35.218 47.4399 35.2406C47.4228 35.2633 47.4014 35.2823 47.3769 35.2966L39.3739 39.9066C39.3435 39.9254 39.3083 39.935 39.2725 39.9342Z" fill="#455A64"/>
<path d="M37.1611 44.9038L34.3029 46.5542C34.2871 46.5642 34.2739 46.5777 34.2643 46.5937C34.2547 46.6097 34.249 46.6278 34.2476 46.6464V49.9471C34.2476 49.9471 34.2476 50.0025 34.3029 49.9471L37.1611 48.2968C37.1771 48.2849 37.1903 48.2696 37.1999 48.2521C37.2094 48.2346 37.2151 48.2152 37.2164 48.1953V44.9315L37.1611 44.9038Z" fill="#7F3A6A"/>
<path opacity="0.3" d="M37.1611 44.9038L34.3029 46.5542C34.2871 46.5642 34.2739 46.5777 34.2643 46.5937C34.2547 46.6097 34.249 46.6278 34.2476 46.6464V49.9471C34.2476 49.9471 34.2476 50.0025 34.3029 49.9471L37.1611 48.2968C37.1771 48.2849 37.1903 48.2696 37.1999 48.2521C37.2094 48.2346 37.2151 48.2152 37.2164 48.1953V44.9315L37.1611 44.9038Z" fill="black"/>
<path d="M39.2725 44.8577C39.2356 44.8583 39.1992 44.8492 39.1668 44.8315C39.1345 44.8137 39.1074 44.7878 39.0881 44.7563C39.0609 44.7084 39.0533 44.6518 39.0671 44.5984C39.0809 44.5451 39.1149 44.4992 39.1619 44.4704L47.1648 39.8604C47.2138 39.834 47.2713 39.8278 47.3247 39.8434C47.3782 39.8589 47.4235 39.8948 47.4507 39.9434C47.4654 39.9668 47.4752 39.993 47.4795 40.0203C47.4837 40.0476 47.4824 40.0755 47.4754 40.1023C47.4685 40.129 47.4562 40.1541 47.4393 40.1759C47.4223 40.1978 47.4011 40.2159 47.3769 40.2292L39.3739 44.8392C39.3426 44.8549 39.3074 44.8613 39.2725 44.8577Z" fill="#455A64"/>
<path d="M39.2725 46.6832C39.2345 46.6839 39.197 46.6739 39.1644 46.6544C39.1318 46.6348 39.1054 46.6065 39.0881 46.5726C39.0609 46.5247 39.0533 46.4681 39.0671 46.4148C39.0809 46.3614 39.1149 46.3155 39.1619 46.2868L47.1648 41.6768C47.1884 41.6566 47.216 41.6417 47.2459 41.6334C47.2758 41.625 47.3071 41.6233 47.3377 41.6283C47.3683 41.6334 47.3974 41.6451 47.423 41.6626C47.4486 41.6802 47.47 41.7031 47.4858 41.7298C47.5016 41.7565 47.5113 41.7864 47.5142 41.8173C47.5172 41.8481 47.5133 41.8793 47.503 41.9085C47.4926 41.9378 47.4759 41.9644 47.4541 41.9864C47.4323 42.0085 47.406 42.0256 47.3769 42.0364L39.3739 46.6464C39.3446 46.6685 39.3092 46.6813 39.2725 46.6832Z" fill="#455A64"/>
<path d="M11.5387 75.505C11.5007 75.5057 11.4633 75.4957 11.4307 75.4761C11.3981 75.4565 11.3716 75.4282 11.3543 75.3943C11.3271 75.3464 11.3196 75.2898 11.3333 75.2365C11.3471 75.1831 11.3811 75.1372 11.4281 75.1085L47.1648 54.5018C47.2138 54.4753 47.2712 54.4692 47.3247 54.4847C47.3782 54.5003 47.4234 54.5362 47.4506 54.5848C47.4654 54.6082 47.4752 54.6343 47.4795 54.6616C47.4837 54.6889 47.4823 54.7168 47.4754 54.7436C47.4685 54.7704 47.4562 54.7954 47.4393 54.8173C47.4223 54.8391 47.4011 54.8573 47.3769 54.8706L11.6402 75.4773C11.6098 75.4962 11.5745 75.5058 11.5387 75.505Z" fill="#455A64"/>
<path d="M11.5387 79.1929C11.5018 79.1936 11.4654 79.1845 11.4331 79.1667C11.4007 79.1489 11.3736 79.123 11.3543 79.0915C11.3271 79.0436 11.3196 78.987 11.3333 78.9337C11.3471 78.8803 11.3811 78.8344 11.4281 78.8057L47.1648 58.199C47.2127 58.1718 47.2693 58.1642 47.3227 58.178C47.376 58.1918 47.4219 58.2257 47.4506 58.2728C47.4656 58.2969 47.4755 58.3237 47.4799 58.3517C47.4843 58.3798 47.483 58.4084 47.4761 58.4359C47.4692 58.4634 47.4569 58.4892 47.4399 58.5119C47.4228 58.5346 47.4014 58.5536 47.3769 58.5678L11.6402 79.1653C11.6098 79.1842 11.5745 79.1938 11.5387 79.1929Z" fill="#455A64"/>
<path d="M11.5387 82.8902C11.5007 82.8909 11.4633 82.8809 11.4307 82.8613C11.3981 82.8418 11.3716 82.8134 11.3543 82.7796C11.3271 82.7317 11.3196 82.6751 11.3333 82.6217C11.3471 82.5684 11.3811 82.5225 11.4281 82.4938L47.1648 61.8871C47.2138 61.8606 47.2712 61.8545 47.3247 61.87C47.3782 61.8855 47.4234 61.9214 47.4506 61.97C47.4654 61.9934 47.4752 62.0196 47.4795 62.0469C47.4837 62.0742 47.4823 62.1021 47.4754 62.1289C47.4685 62.1556 47.4562 62.1807 47.4393 62.2025C47.4223 62.2244 47.4011 62.2425 47.3769 62.2559L11.6402 82.8626C11.6098 82.8814 11.5745 82.891 11.5387 82.8902Z" fill="#455A64"/>
</svg>
