<svg width="53" height="95" viewBox="0 0 53 95" fill="none" xmlns="http://www.w3.org/2000/svg">
<g opacity="0.2">
<path d="M1.14052 28.214L49.0845 0.553981C49.5455 0.286601 49.9236 0.55398 49.9236 1.04264V63.25C49.9092 63.5419 49.8256 63.8263 49.6797 64.0795C49.5338 64.3328 49.3298 64.5478 49.0845 64.7067L1.14052 92.3667C0.679523 92.6341 0.301514 92.3667 0.301514 91.8781V29.6339C0.321559 29.3483 0.407799 29.0713 0.553426 28.8249C0.699054 28.5784 0.900059 28.3693 1.14052 28.214Z" fill="black"/>
</g>
<path d="M47.8583 4.38952L3.46396 29.9935C3.1956 30.1702 2.97241 30.4074 2.81229 30.686C2.65217 30.9646 2.55959 31.2769 2.54196 31.5977V92.1731C2.55728 92.492 2.64904 92.8025 2.8095 93.0785C2.96996 93.3545 3.19442 93.5879 3.46396 93.759L5.22499 94.7639C5.51174 94.9054 5.82722 94.979 6.14699 94.979C6.46675 94.979 6.78223 94.9054 7.06898 94.7639L51.4909 69.1508C51.7593 68.974 51.9825 68.7368 52.1426 68.4582C52.3027 68.1796 52.3953 67.8674 52.4129 67.5465V7.008C52.3968 6.68805 52.3048 6.37654 52.1445 6.09919C51.9841 5.82183 51.7601 5.58661 51.4909 5.41294L49.7299 4.41718C49.4426 4.26406 49.123 4.18167 48.7974 4.17686C48.4719 4.17205 48.1499 4.24495 47.8583 4.38952Z" fill="#7F3A6A"/>
<path opacity="0.2" d="M7.05976 94.7547C6.77241 94.8942 6.45716 94.9667 6.13776 94.9667C5.81835 94.9667 5.5031 94.8942 5.21576 94.7547L3.46396 93.759C3.19442 93.5879 2.96996 93.3545 2.8095 93.0785C2.64904 92.8025 2.55728 92.492 2.54196 92.1731V31.5977C2.55644 31.2696 2.65831 30.9513 2.83701 30.6757L6.44202 32.7594C6.26981 33.0369 6.17436 33.355 6.16541 33.6814V94.2476C6.13775 94.7547 6.51578 95.0682 7.05976 94.7547Z" fill="black"/>
<g opacity="0.2">
<path d="M52.3945 6.80517C52.3208 6.33495 51.9335 6.16899 51.4725 6.43637L7.06901 32.0495C6.79402 32.2187 6.56828 32.4572 6.41438 32.741L2.80014 30.6573C2.96122 30.3892 3.1821 30.162 3.44554 29.9935L47.8583 4.38031C48.1442 4.23605 48.46 4.16089 48.7803 4.16089C49.1005 4.16089 49.4163 4.23605 49.7023 4.38031L51.4633 5.37607C51.7113 5.53422 51.9227 5.74353 52.0833 5.98999C52.2439 6.23645 52.35 6.51438 52.3945 6.80517Z" fill="white"/>
</g>
<path d="M51.4817 6.43635L7.05976 32.0495C6.7914 32.2263 6.56822 32.4635 6.4081 32.7421C6.24798 33.0207 6.15538 33.3329 6.13776 33.6538V94.22C6.13776 94.81 6.55266 95.0498 7.05976 94.7547L51.4817 69.1416C51.7501 68.9648 51.9733 68.7276 52.1334 68.449C52.2935 68.1704 52.3861 67.8581 52.4037 67.5373V7.00799C52.4037 6.38103 51.9888 6.14131 51.4817 6.43635Z" fill="white"/>
<path d="M51.6661 7.18315V67.5373C51.6433 67.7221 51.5814 67.9 51.4844 68.059C51.3874 68.218 51.2576 68.3544 51.1037 68.4593L6.8477 93.971V33.6538C6.8654 33.4622 6.92393 33.2767 7.01935 33.1098C7.11478 32.9428 7.24489 32.7981 7.40091 32.6857L51.6569 7.18315M51.8782 6.30725C51.7343 6.31549 51.5947 6.35988 51.4725 6.43633L7.05976 32.0495C6.7914 32.2262 6.56822 32.4634 6.4081 32.742C6.24798 33.0207 6.15538 33.3329 6.13776 33.6538V94.2199C6.13776 94.6348 6.34983 94.8838 6.65409 94.8838C6.79802 94.8755 6.93753 94.8311 7.05976 94.7547L51.4817 69.1415C51.7501 68.9648 51.9733 68.7276 52.1334 68.449C52.2935 68.1704 52.3861 67.8581 52.4037 67.5373V7.00797C52.4037 6.58385 52.1917 6.34413 51.8874 6.34413L51.8782 6.30725Z" fill="#7F3A6A"/>
<path d="M21.2954 35.2765V41.6752C18.5294 43.2702 16.289 47.5483 16.289 51.2363L11.4946 54.0023C11.4946 46.783 15.8833 38.4021 21.2954 35.2765Z" fill="#7F3A6A"/>
<path d="M17.6904 55.0534L14.2422 61.5074C12.3982 60.0599 11.4762 57.4875 11.4762 54.0208L16.2706 51.2548C16.214 51.9533 16.3119 52.6558 16.5573 53.3123C16.8027 53.9688 17.1895 54.5632 17.6904 55.0534Z" fill="#7F3A6A"/>
<path d="M31.124 42.6894C31.124 49.8994 26.7445 58.2896 21.3323 61.406C18.511 63.0379 16.2337 63.0564 14.279 61.489L17.7273 55.035C18.6493 55.7726 19.9125 55.8187 21.3323 55.035C24.0983 53.4399 26.3296 49.1618 26.3296 45.4738C26.3296 41.7858 24.0983 40.0894 21.3323 41.6936V35.2765C26.7076 32.1509 31.124 35.4701 31.124 42.6894Z" fill="#7F3A6A"/>
<g opacity="0.4">
<path d="M31.124 42.6894C31.124 49.8994 26.7445 58.2896 21.3323 61.406C18.511 63.0379 16.2337 63.0564 14.279 61.489L17.7273 55.035C18.6493 55.7726 19.9125 55.8187 21.3323 55.035C24.0983 53.4399 26.3296 49.1618 26.3296 45.4738C26.3296 41.7858 24.0983 40.0894 21.3323 41.6936V35.2765C26.7076 32.1509 31.124 35.4701 31.124 42.6894Z" fill="white"/>
</g>
<path d="M23.9047 52.5271C23.2175 53.5293 22.3288 54.3771 21.2954 55.0165C19.8756 55.8371 18.6032 55.791 17.6904 55.0165C17.1903 54.5226 16.8054 53.9244 16.5632 53.2646C16.3209 52.6048 16.2273 51.8996 16.289 51.1995L11.4946 53.9655C11.4946 57.4322 12.4166 60.0046 14.2606 61.4521C16.2152 63.0195 18.4926 63.0011 21.3139 61.3691C23.3732 60.0939 25.1391 58.397 26.4955 56.3903L23.9047 52.5271Z" fill="#7F3A6A"/>
<path opacity="0.3" d="M23.9047 52.5271C23.2175 53.5293 22.3288 54.3771 21.2954 55.0165C19.8756 55.8371 18.6032 55.791 17.6904 55.0165C17.1903 54.5226 16.8054 53.9244 16.5632 53.2646C16.3209 52.6048 16.2273 51.8996 16.289 51.1995L11.4946 53.9655C11.4946 57.4322 12.4166 60.0046 14.2606 61.4521C16.2152 63.0195 18.4926 63.0011 21.3139 61.3691C23.3732 60.0939 25.1391 58.397 26.4955 56.3903L23.9047 52.5271Z" fill="black"/>
<path d="M37.117 31.3119L34.2587 32.9623C34.243 32.9723 34.2298 32.9858 34.2202 33.0018C34.2106 33.0178 34.2048 33.0359 34.2034 33.0545V36.3553C34.2034 36.3553 34.2034 36.4106 34.2587 36.3553L37.117 34.7049C37.134 34.694 37.148 34.679 37.1576 34.6613C37.1673 34.6435 37.1723 34.6236 37.1723 34.6035V31.3396C37.1723 31.3396 37.1538 31.2935 37.117 31.3119Z" fill="#7F3A6A"/>
<path opacity="0.4" d="M37.117 31.3119L34.2587 32.9623C34.243 32.9723 34.2298 32.9858 34.2202 33.0018C34.2106 33.0178 34.2048 33.0359 34.2034 33.0545V36.3553C34.2034 36.3553 34.2034 36.4106 34.2587 36.3553L37.117 34.7049C37.134 34.694 37.148 34.679 37.1576 34.6613C37.1673 34.6435 37.1723 34.6236 37.1723 34.6035V31.3396C37.1723 31.3396 37.1538 31.2935 37.117 31.3119Z" fill="white"/>
<path d="M39.2283 31.2658C39.1914 31.2664 39.155 31.2574 39.1227 31.2396C39.0903 31.2218 39.0632 31.1959 39.0439 31.1644C39.0167 31.1165 39.0092 31.0599 39.0229 31.0066C39.0367 30.9532 39.0707 30.9073 39.1177 30.8786L47.1207 26.2686C47.1697 26.2421 47.2271 26.236 47.2806 26.2515C47.3341 26.267 47.3793 26.303 47.4065 26.3516C47.4212 26.375 47.431 26.4011 47.4353 26.4284C47.4396 26.4557 47.4382 26.4836 47.4313 26.5104C47.4244 26.5372 47.4121 26.5622 47.3951 26.5841C47.3782 26.6059 47.3569 26.6241 47.3327 26.6374L39.3298 31.2474C39.2984 31.263 39.2632 31.2694 39.2283 31.2658Z" fill="#455A64"/>
<path d="M39.2283 33.0914C39.1903 33.0921 39.1529 33.0821 39.1203 33.0625C39.0877 33.0429 39.0612 33.0146 39.0439 32.9807C39.0167 32.9329 39.0092 32.8762 39.0229 32.8229C39.0367 32.7695 39.0707 32.7237 39.1177 32.6949L47.1207 28.0849C47.1442 28.0647 47.1718 28.0499 47.2017 28.0415C47.2316 28.0331 47.2629 28.0314 47.2935 28.0365C47.3241 28.0415 47.3533 28.0532 47.3789 28.0708C47.4044 28.0883 47.4258 28.1112 47.4416 28.138C47.4574 28.1647 47.4671 28.1945 47.47 28.2254C47.473 28.2563 47.4692 28.2874 47.4588 28.3167C47.4484 28.3459 47.4317 28.3725 47.4099 28.3946C47.3882 28.4167 47.3618 28.4337 47.3327 28.4445L39.3298 33.0545C39.3004 33.0766 39.2651 33.0895 39.2283 33.0914Z" fill="#455A64"/>
<path d="M37.117 38.0609L34.2587 39.7021C34.2428 39.714 34.2296 39.7292 34.22 39.7468C34.2105 39.7643 34.2048 39.7836 34.2034 39.8035V43.1043C34.2034 43.1043 34.2034 43.1043 34.2587 43.1043L37.117 41.4631C37.134 41.4522 37.148 41.4372 37.1576 41.4195C37.1673 41.4018 37.1723 41.3819 37.1723 41.3617V38.0886C37.1723 38.0886 37.1538 38.0425 37.117 38.0609Z" fill="#7F3A6A"/>
<path d="M39.2283 38.0149C39.1914 38.0155 39.155 38.0064 39.1227 37.9886C39.0903 37.9708 39.0632 37.9449 39.0439 37.9134C39.0162 37.8641 39.0084 37.8061 39.0221 37.7512C39.0358 37.6964 39.07 37.6488 39.1177 37.6184L47.1207 33.0084C47.1686 32.9811 47.2252 32.9736 47.2785 32.9874C47.3319 33.0011 47.3778 33.0351 47.4065 33.0822C47.4214 33.1063 47.4314 33.1331 47.4357 33.1611C47.4401 33.1891 47.4388 33.2177 47.432 33.2453C47.4251 33.2728 47.4127 33.2986 47.3957 33.3213C47.3786 33.3439 47.3572 33.363 47.3327 33.3772L39.3298 37.9872C39.2994 38.0061 39.2641 38.0157 39.2283 38.0149Z" fill="#455A64"/>
<path d="M39.2283 39.8312C39.1914 39.8318 39.155 39.8228 39.1227 39.805C39.0903 39.7872 39.0632 39.7613 39.0439 39.7298C39.0167 39.6819 39.0092 39.6253 39.0229 39.5719C39.0367 39.5186 39.0707 39.4727 39.1177 39.444L47.1207 34.834C47.1697 34.8075 47.2271 34.8014 47.2806 34.8169C47.3341 34.8324 47.3793 34.8683 47.4065 34.9169C47.4212 34.9403 47.431 34.9665 47.4353 34.9938C47.4396 35.0211 47.4382 35.049 47.4313 35.0758C47.4244 35.1025 47.4121 35.1276 47.3951 35.1494C47.3782 35.1713 47.3569 35.1894 47.3327 35.2028L39.3298 39.8128C39.315 39.8226 39.2984 39.8294 39.281 39.8325C39.2635 39.8357 39.2456 39.8353 39.2283 39.8312Z" fill="#455A64"/>
<path d="M37.117 44.81L34.2587 46.4604C34.2428 46.4723 34.2296 46.4875 34.22 46.505C34.2105 46.5225 34.2048 46.5419 34.2034 46.5618V49.8626H34.2587L37.117 48.2122C37.1339 48.2035 37.1481 48.1903 37.1578 48.174C37.1676 48.1577 37.1726 48.139 37.1723 48.12V44.81C37.1723 44.81 37.1538 44.81 37.117 44.81Z" fill="#7F3A6A"/>
<path opacity="0.3" d="M37.117 44.81L34.2587 46.4604C34.2428 46.4723 34.2296 46.4875 34.22 46.505C34.2105 46.5225 34.2048 46.5419 34.2034 46.5618V49.8626H34.2587L37.117 48.2122C37.1339 48.2035 37.1481 48.1903 37.1578 48.174C37.1676 48.1577 37.1726 48.139 37.1723 48.12V44.81C37.1723 44.81 37.1538 44.81 37.117 44.81Z" fill="black"/>
<path d="M39.2283 44.81C39.1903 44.8106 39.1529 44.8006 39.1203 44.7811C39.0877 44.7615 39.0612 44.7332 39.0439 44.6993C39.0167 44.6514 39.0092 44.5948 39.0229 44.5415C39.0367 44.4881 39.0707 44.4422 39.1177 44.4135L47.1207 39.8035C47.1442 39.7833 47.1718 39.7684 47.2017 39.7601C47.2316 39.7517 47.2629 39.75 47.2935 39.755C47.3241 39.7601 47.3533 39.7718 47.3789 39.7893C47.4044 39.8069 47.4258 39.8298 47.4416 39.8565C47.4574 39.8833 47.4671 39.9131 47.47 39.944C47.473 39.9749 47.4692 40.006 47.4588 40.0352C47.4484 40.0645 47.4317 40.0911 47.4099 40.1132C47.3882 40.1352 47.3618 40.1523 47.3327 40.1631L39.3298 44.7731C39.3004 44.7952 39.2651 44.808 39.2283 44.81Z" fill="#455A64"/>
<path d="M39.2283 46.5802C39.1914 46.5808 39.155 46.5718 39.1227 46.554C39.0903 46.5362 39.0632 46.5103 39.0439 46.4788C39.0162 46.4295 39.0084 46.3715 39.0221 46.3166C39.0358 46.2617 39.07 46.2142 39.1177 46.1838L47.1207 41.5738C47.1686 41.5465 47.2252 41.539 47.2785 41.5527C47.3319 41.5665 47.3778 41.6005 47.4065 41.6475C47.4214 41.6716 47.4314 41.6985 47.4357 41.7265C47.4401 41.7545 47.4388 41.7831 47.432 41.8106C47.4251 41.8381 47.4127 41.864 47.3957 41.8866C47.3786 41.9093 47.3572 41.9283 47.3327 41.9426L39.3298 46.5526C39.2994 46.5714 39.2641 46.581 39.2283 46.5802Z" fill="#455A64"/>
<path d="M11.4946 75.4019C11.4577 75.4025 11.4213 75.3935 11.3889 75.3757C11.3566 75.3579 11.3294 75.332 11.3102 75.3005C11.2833 75.2501 11.2769 75.1913 11.2923 75.1363C11.3078 75.0813 11.3439 75.0344 11.3932 75.0055L47.1207 54.408C47.1686 54.3807 47.2252 54.3732 47.2785 54.387C47.3319 54.4007 47.3778 54.4347 47.4065 54.4817C47.4214 54.5059 47.4314 54.5327 47.4357 54.5607C47.4401 54.5887 47.4388 54.6173 47.4319 54.6449C47.4251 54.6724 47.4127 54.6982 47.3957 54.7209C47.3786 54.7435 47.3572 54.7625 47.3327 54.7768L11.6052 75.3743L11.4946 75.4019Z" fill="#455A64"/>
<path d="M11.4946 79.0991C11.4566 79.0998 11.4191 79.0898 11.3865 79.0703C11.3539 79.0507 11.3275 79.0224 11.3102 78.9885C11.2837 78.9395 11.2776 78.8821 11.2931 78.8286C11.3086 78.7751 11.3446 78.7299 11.3932 78.7027L47.1207 58.096C47.1697 58.0695 47.2271 58.0634 47.2806 58.0789C47.334 58.0944 47.3793 58.1304 47.4065 58.179C47.4212 58.2023 47.431 58.2285 47.4353 58.2558C47.4396 58.2831 47.4382 58.311 47.4313 58.3378C47.4244 58.3646 47.4121 58.3896 47.3951 58.4115C47.3782 58.4333 47.3569 58.4514 47.3327 58.4648L11.6052 79.0715L11.4946 79.0991Z" fill="#455A64"/>
<path d="M11.4946 82.7872C11.4577 82.7878 11.4213 82.7787 11.3889 82.761C11.3566 82.7432 11.3294 82.7172 11.3102 82.6858C11.2833 82.6354 11.2769 82.5765 11.2923 82.5215C11.3078 82.4666 11.3439 82.4197 11.3932 82.3907L47.1207 61.7932C47.1442 61.773 47.1718 61.7582 47.2017 61.7498C47.2316 61.7414 47.2629 61.7397 47.2935 61.7448C47.3241 61.7498 47.3533 61.7615 47.3789 61.7791C47.4044 61.7966 47.4258 61.8196 47.4416 61.8463C47.4574 61.873 47.4671 61.9028 47.47 61.9337C47.473 61.9646 47.4692 61.9958 47.4588 62.025C47.4484 62.0542 47.4317 62.0808 47.4099 62.1029C47.3882 62.125 47.3618 62.142 47.3327 62.1528L11.6052 82.7595L11.4946 82.7872Z" fill="#455A64"/>
</svg>
