<svg width="53" height="95" viewBox="0 0 53 95" fill="none" xmlns="http://www.w3.org/2000/svg">
<g opacity="0.2">
<path d="M1.09641 28.0833L49.0404 0.423305C49.5014 0.155925 49.8794 0.423304 49.8794 0.911964V63.1009C49.865 63.3928 49.7815 63.6771 49.6356 63.9304C49.4897 64.1837 49.2857 64.3987 49.0404 64.5576L1.09641 92.2176C0.635409 92.485 0.257385 92.2729 0.257385 91.7382V29.5308C0.273202 29.2405 0.357461 28.958 0.503276 28.7064C0.649092 28.4549 0.852333 28.2413 1.09641 28.0833Z" fill="black"/>
</g>
<path d="M47.8141 4.28645L3.4014 29.8996C3.13202 30.0753 2.90805 30.3122 2.7478 30.5911C2.58755 30.8699 2.49558 31.1827 2.4794 31.5039V92.0701C2.49478 92.3902 2.5865 92.702 2.74689 92.9795C2.90727 93.2569 3.13168 93.492 3.4014 93.6651L5.16242 94.6701C5.44918 94.8116 5.76466 94.8852 6.08442 94.8852C6.40419 94.8852 6.71967 94.8116 7.00642 94.6701L51.4284 69.057C51.6967 68.8802 51.9199 68.643 52.08 68.3644C52.2402 68.0858 52.3327 67.7735 52.3504 67.4527V6.87728C52.335 6.55716 52.2433 6.24535 52.0829 5.96788C51.9225 5.69041 51.6981 5.45532 51.4284 5.28222L49.6674 4.27724C49.3787 4.1357 49.0612 4.06288 48.7397 4.06448C48.4182 4.06608 48.1014 4.14205 47.8141 4.28645Z" fill="#7F3A6A"/>
<path opacity="0.2" d="M6.98799 94.6609C6.70065 94.8004 6.3854 94.8728 6.06599 94.8728C5.74658 94.8728 5.43134 94.8004 5.14399 94.6609L3.38297 93.6559C3.1148 93.4812 2.89158 93.2457 2.73139 92.9686C2.57121 92.6914 2.47857 92.3805 2.46097 92.0609V31.5039C2.48236 31.1771 2.58368 30.8605 2.75601 30.5819L6.36104 32.6748C6.18588 32.9509 6.09018 33.2699 6.08444 33.5969V94.163C6.066 94.6609 6.47167 94.9744 6.98799 94.6609Z" fill="black"/>
<g opacity="0.2">
<path d="M52.3504 6.70213C52.2766 6.24113 51.8986 6.07518 51.4284 6.34256L6.988 31.9465C6.71423 32.1212 6.48905 32.3622 6.33337 32.6472L2.72836 30.5543C2.88221 30.2862 3.10097 30.0611 3.36455 29.8997L47.7773 4.28649C48.064 4.145 48.3795 4.07141 48.6993 4.07141C49.019 4.07141 49.3345 4.145 49.6213 4.28649L51.3823 5.29148C51.6371 5.4414 51.8559 5.64545 52.0231 5.8892C52.1904 6.13295 52.3021 6.41047 52.3504 6.70213Z" fill="white"/>
</g>
<path d="M51.4376 6.34253L6.98798 31.9465C6.71962 32.1232 6.49643 32.3604 6.33631 32.639C6.17619 32.9176 6.08361 33.2299 6.06598 33.5508V94.1262C6.06598 94.7162 6.48088 94.956 6.98798 94.6609L51.4099 69.0478C51.6783 68.871 51.9015 68.6338 52.0616 68.3552C52.2217 68.0766 52.3143 67.7643 52.3319 67.4435V6.87729C52.3596 6.27799 51.9447 6.04749 51.4376 6.34253Z" fill="white"/>
<path d="M51.622 7.08934V67.4435C51.5992 67.6272 51.5382 67.8042 51.4429 67.963C51.3476 68.1218 51.2202 68.2589 51.0688 68.3655L6.8128 93.868V33.5507C6.83671 33.3662 6.89914 33.1888 6.99603 33.03C7.09292 32.8711 7.2221 32.7344 7.37522 32.6287L51.6312 7.12622M51.8525 6.25032C51.7078 6.25411 51.5671 6.29887 51.4468 6.3794L6.98798 31.9465C6.71962 32.1232 6.49643 32.3604 6.33631 32.639C6.17619 32.9176 6.08361 33.2299 6.06598 33.5507V94.1261C6.06598 94.541 6.27804 94.7808 6.5823 94.7808C6.72554 94.7761 6.86521 94.7348 6.98798 94.6609L51.4099 69.0477C51.6783 68.871 51.9015 68.6338 52.0616 68.3552C52.2217 68.0766 52.3143 67.7643 52.3319 67.4435V6.87728C52.3319 6.45316 52.1199 6.21344 51.8156 6.21344L51.8525 6.25032Z" fill="#7F3A6A"/>
<path d="M17.6463 54.9596L14.198 61.4136C12.354 59.9661 11.432 57.3844 11.432 53.9269L16.2264 51.1609C16.1699 51.8595 16.2678 52.562 16.5132 53.2185C16.7586 53.875 17.1454 54.4694 17.6463 54.9596Z" fill="#7F3A6A"/>
<g opacity="0.3">
<path d="M17.6463 54.9596L14.198 61.4136C12.354 59.9661 11.432 57.3844 11.432 53.9269L16.2264 51.1609C16.1699 51.8595 16.2678 52.562 16.5132 53.2185C16.7586 53.875 17.1454 54.4694 17.6463 54.9596Z" fill="black"/>
</g>
<path d="M31.043 42.5864C31.043 49.8056 26.6635 58.1866 21.2513 61.3122C18.43 62.9349 16.1527 62.9626 14.198 61.3952L17.6463 54.9412C18.5683 55.6696 19.8314 55.7157 21.2513 54.9412C24.0173 53.3461 26.2578 49.0588 26.2578 45.38C26.2578 41.7013 24.0173 39.9956 21.2513 41.5906V35.2012C26.6635 32.094 31.043 35.3763 31.043 42.5864Z" fill="#7F3A6A"/>
<g opacity="0.4">
<path d="M31.043 42.5864C31.043 49.8056 26.6635 58.1866 21.2513 61.3122C18.43 62.9349 16.1527 62.9626 14.198 61.3952L17.6463 54.9412C18.5683 55.6696 19.8314 55.7157 21.2513 54.9412C24.0173 53.3461 26.2578 49.0588 26.2578 45.38C26.2578 41.7013 24.0173 39.9956 21.2513 41.5906V35.2012C26.6635 32.094 31.043 35.3763 31.043 42.5864Z" fill="white"/>
</g>
<path d="M21.2513 35.1827C15.8392 38.3083 11.4505 46.6893 11.4505 53.9085L16.2449 51.1425C16.2449 47.4545 18.4853 43.1764 21.2513 41.5814C22.7081 40.7424 24.0173 40.8253 24.9393 41.5814L28.3507 35.1274C26.5436 33.6891 24.0358 33.5784 21.2513 35.1827Z" fill="#7F3A6A"/>
<path d="M37.0729 31.2181L34.2147 32.8593C34.1987 32.8712 34.1854 32.8864 34.1759 32.9039C34.1663 32.9215 34.1607 32.9408 34.1593 32.9607V36.2615C34.1593 36.2615 34.1593 36.2615 34.2147 36.2615L37.0729 34.6111C37.091 34.6007 37.1064 34.586 37.1177 34.5683C37.1289 34.5507 37.1357 34.5305 37.1374 34.5097V31.2089C37.1374 31.2089 37.1097 31.172 37.0729 31.2181Z" fill="#7F3A6A"/>
<path opacity="0.4" d="M37.0729 31.2181L34.2147 32.8593C34.1987 32.8712 34.1854 32.8864 34.1759 32.9039C34.1663 32.9215 34.1607 32.9408 34.1593 32.9607V36.2615C34.1593 36.2615 34.1593 36.2615 34.2147 36.2615L37.0729 34.6111C37.091 34.6007 37.1064 34.586 37.1177 34.5683C37.1289 34.5507 37.1357 34.5305 37.1374 34.5097V31.2089C37.1374 31.2089 37.1097 31.172 37.0729 31.2181Z" fill="white"/>
<path d="M39.1842 31.172C39.1473 31.1726 39.1109 31.1636 39.0785 31.1458C39.0462 31.128 39.0191 31.1021 38.9998 31.0706C38.9729 31.0202 38.9665 30.9614 38.982 30.9064C38.9974 30.8514 39.0336 30.8045 39.0828 30.7756L47.0765 26.1656C47.1244 26.1383 47.181 26.1308 47.2344 26.1445C47.2877 26.1583 47.3336 26.1923 47.3623 26.2393C47.3773 26.2634 47.3872 26.2903 47.3916 26.3183C47.396 26.3463 47.3947 26.3749 47.3878 26.4024C47.3809 26.4299 47.3686 26.4558 47.3516 26.4784C47.3345 26.5011 47.3131 26.5201 47.2886 26.5344L39.258 31.172C39.2336 31.177 39.2085 31.177 39.1842 31.172Z" fill="#455A64"/>
<path d="M39.1842 33.016C39.1466 33.0148 39.1099 33.004 39.0777 32.9846C39.0454 32.9652 39.0186 32.938 38.9998 32.9054C38.9734 32.8564 38.9672 32.7989 38.9827 32.7455C38.9983 32.692 39.0342 32.6468 39.0828 32.6196L47.0765 28.0096C47.1255 27.9831 47.183 27.977 47.2365 27.9925C47.2899 28.008 47.3351 28.0439 47.3624 28.0925C47.3771 28.1159 47.3869 28.1421 47.3912 28.1694C47.3954 28.1967 47.3941 28.2246 47.3872 28.2514C47.3802 28.2781 47.3679 28.3032 47.351 28.325C47.3341 28.3469 47.3128 28.365 47.2886 28.3784L39.258 33.016C39.2336 33.021 39.2086 33.021 39.1842 33.016Z" fill="#455A64"/>
<path d="M37.0729 37.9579L34.2147 39.6083C34.1987 39.6202 34.1854 39.6355 34.1759 39.653C34.1663 39.6705 34.1607 39.6898 34.1593 39.7097V43.0105C34.1593 43.0105 34.1593 43.0105 34.2147 43.0105L37.0729 41.3601C37.0909 41.3519 37.1064 41.339 37.1177 41.3228C37.1291 41.3066 37.1359 41.2876 37.1374 41.2679V37.9948C37.1374 37.9948 37.1097 37.9395 37.0729 37.9579Z" fill="#7F3A6A"/>
<path d="M39.1842 37.9211C39.1462 37.9218 39.1088 37.9117 39.0762 37.8922C39.0436 37.8726 39.0171 37.8443 38.9998 37.8104C38.9734 37.7614 38.9672 37.704 38.9827 37.6505C38.9983 37.597 39.0342 37.5518 39.0828 37.5246L47.0765 32.9146C47.0999 32.8999 47.1261 32.8901 47.1534 32.8858C47.1807 32.8815 47.2086 32.8829 47.2354 32.8898C47.2621 32.8967 47.2872 32.909 47.309 32.926C47.3309 32.9429 47.349 32.9641 47.3624 32.9884C47.3773 33.0125 47.3872 33.0393 47.3916 33.0673C47.396 33.0953 47.3947 33.1239 47.3878 33.1515C47.3809 33.179 47.3686 33.2048 47.3516 33.2275C47.3345 33.2501 47.3131 33.2691 47.2886 33.2834L39.2856 37.8934C39.2552 37.9123 39.22 37.9219 39.1842 37.9211Z" fill="#455A64"/>
<path d="M39.1842 39.7374C39.1473 39.738 39.1109 39.729 39.0785 39.7112C39.0462 39.6934 39.0191 39.6675 38.9998 39.636C38.9729 39.5856 38.9665 39.5267 38.982 39.4718C38.9974 39.4168 39.0336 39.3699 39.0828 39.3409L47.0765 34.7309C47.1255 34.7045 47.183 34.6983 47.2364 34.7139C47.2899 34.7294 47.3351 34.7653 47.3623 34.8139C47.3771 34.8373 47.3869 34.8635 47.3912 34.8908C47.3954 34.9181 47.3941 34.946 47.3871 34.9727C47.3802 34.9995 47.3679 35.0246 47.351 35.0464C47.334 35.0683 47.3128 35.0864 47.2886 35.0997L39.2856 39.7097C39.2552 39.7286 39.22 39.7382 39.1842 39.7374Z" fill="#455A64"/>
<path d="M37.0729 44.7069L34.2147 46.3573C34.1997 46.3682 34.1872 46.382 34.1777 46.3978C34.1682 46.4137 34.1619 46.4312 34.1593 46.4495V49.7503C34.1593 49.7503 34.1593 49.8056 34.2147 49.7503L37.0729 48.0999C37.091 48.0895 37.1064 48.0748 37.1177 48.0572C37.1289 48.0395 37.1357 48.0193 37.1374 47.9985V44.7069C37.1374 44.7069 37.1097 44.6885 37.0729 44.7069Z" fill="#7F3A6A"/>
<path opacity="0.3" d="M37.0729 44.7069L34.2147 46.3573C34.1997 46.3682 34.1872 46.382 34.1777 46.3978C34.1682 46.4137 34.1619 46.4312 34.1593 46.4495V49.7503C34.1593 49.7503 34.1593 49.8056 34.2147 49.7503L37.0729 48.0999C37.091 48.0895 37.1064 48.0748 37.1177 48.0572C37.1289 48.0395 37.1357 48.0193 37.1374 47.9985V44.7069C37.1374 44.7069 37.1097 44.6885 37.0729 44.7069Z" fill="black"/>
<path d="M39.1842 44.6608C39.1363 44.6653 39.0884 44.6526 39.049 44.6251C39.0096 44.5975 38.9813 44.5568 38.9691 44.5103C38.957 44.4638 38.9617 44.4144 38.9825 44.3711C39.0033 44.3277 39.0389 44.2932 39.0828 44.2736L47.0765 39.6636C47.1255 39.6371 47.183 39.631 47.2365 39.6465C47.2899 39.6621 47.3352 39.698 47.3624 39.7466C47.3771 39.77 47.3869 39.7961 47.3912 39.8234C47.3954 39.8507 47.3941 39.8786 47.3872 39.9054C47.3803 39.9322 47.368 39.9572 47.351 39.9791C47.3341 40.0009 47.3128 40.0191 47.2886 40.0324L39.2856 44.6424C39.2709 44.6523 39.2543 44.659 39.2369 44.6622C39.2194 44.6654 39.2015 44.6649 39.1842 44.6608Z" fill="#455A64"/>
<path d="M39.1842 46.4864C39.1462 46.4871 39.1088 46.4771 39.0762 46.4576C39.0436 46.438 39.0171 46.4097 38.9998 46.3758C38.9734 46.3268 38.9672 46.2693 38.9827 46.2159C38.9983 46.1624 39.0342 46.1172 39.0828 46.09L47.0765 41.48C47.0999 41.4652 47.1261 41.4554 47.1534 41.4512C47.1807 41.4469 47.2086 41.4483 47.2354 41.4552C47.2621 41.4621 47.2872 41.4744 47.309 41.4913C47.3309 41.5083 47.349 41.5295 47.3624 41.5537C47.3773 41.5778 47.3872 41.6047 47.3916 41.6327C47.396 41.6607 47.3947 41.6893 47.3878 41.7168C47.3809 41.7443 47.3686 41.7702 47.3516 41.7928C47.3345 41.8155 47.3131 41.8345 47.2886 41.8488L39.2856 46.4588C39.2552 46.4776 39.22 46.4872 39.1842 46.4864Z" fill="#455A64"/>
<path d="M11.4504 75.3081C11.4135 75.3087 11.3771 75.2997 11.3448 75.2819C11.3124 75.2641 11.2853 75.2382 11.266 75.2067C11.2391 75.1563 11.2327 75.0975 11.2482 75.0425C11.2637 74.9875 11.2998 74.9406 11.349 74.9117L47.0765 54.305C47.1255 54.2785 47.183 54.2724 47.2364 54.2879C47.2899 54.3034 47.3351 54.3393 47.3623 54.3879C47.3771 54.4113 47.3869 54.4375 47.3912 54.4648C47.3954 54.4921 47.3941 54.52 47.3871 54.5468C47.3802 54.5735 47.3679 54.5986 47.351 54.6204C47.334 54.6423 47.3128 54.6604 47.2886 54.6738L11.598 75.2805L11.4504 75.3081Z" fill="#455A64"/>
<path d="M11.4505 78.9962C11.4026 79.0006 11.3547 78.9879 11.3153 78.9604C11.2759 78.9328 11.2476 78.8921 11.2354 78.8456C11.2232 78.7991 11.2279 78.7497 11.2488 78.7064C11.2696 78.663 11.3051 78.6285 11.349 78.6089L47.0765 58.0022C47.1244 57.975 47.181 57.9674 47.2344 57.9812C47.2877 57.995 47.3336 58.029 47.3624 58.076C47.3773 58.1001 47.3872 58.1269 47.3916 58.155C47.396 58.183 47.3947 58.2116 47.3878 58.2391C47.3809 58.2666 47.3686 58.2924 47.3516 58.3151C47.3345 58.3378 47.3131 58.3568 47.2886 58.371L11.598 78.9685L11.4505 78.9962Z" fill="#455A64"/>
<path d="M11.4505 82.6934C11.4124 82.6941 11.375 82.6841 11.3424 82.6645C11.3098 82.6449 11.2833 82.6166 11.2661 82.5827C11.2396 82.5337 11.2335 82.4763 11.249 82.4228C11.2645 82.3693 11.3004 82.3241 11.349 82.2969L47.0765 61.6902C47.1255 61.6638 47.183 61.6576 47.2365 61.6731C47.2899 61.6887 47.3351 61.7246 47.3624 61.7732C47.3771 61.7966 47.3869 61.8227 47.3912 61.8501C47.3954 61.8774 47.3941 61.9053 47.3872 61.932C47.3802 61.9588 47.3679 61.9839 47.351 62.0057C47.334 62.0275 47.3128 62.0457 47.2886 62.059L11.598 82.6657L11.4505 82.6934Z" fill="#455A64"/>
</svg>
