<svg width="22" height="22" viewBox="0 0 22 22" fill="none" xmlns="http://www.w3.org/2000/svg">
<g clip-path="url(#clip0_801_584)">
<path d="M21.9785 6.46806C21.9269 5.29912 21.7379 4.49548 21.4671 3.79911C21.1878 3.05994 20.758 2.39816 20.1949 1.84802C19.6448 1.28931 18.9786 0.855178 18.248 0.580191C17.5476 0.309402 16.7482 0.12037 15.5793 0.0688306C14.4016 0.0129267 14.0277 0 11.0408 0C8.05389 0 7.68002 0.0129267 6.50671 0.0644657C5.33777 0.116005 4.53413 0.305205 3.83793 0.575827C3.09859 0.855178 2.43681 1.28495 1.88667 1.84802C1.32796 2.39816 0.893996 3.0643 0.618842 3.79492C0.348052 4.49548 0.15902 5.29475 0.107481 6.4637C0.0515772 7.64137 0.0386505 8.01524 0.0386505 11.0021C0.0386505 13.9891 0.0515772 14.3629 0.103116 15.5362C0.154655 16.7052 0.343855 17.5088 0.614645 18.2052C0.893996 18.9444 1.32796 19.6061 1.88667 20.1563C2.43681 20.715 3.10295 21.1491 3.83357 21.4241C4.53413 21.6949 5.3334 21.8839 6.50251 21.9355C7.67566 21.9872 8.04969 21.9999 11.0366 21.9999C14.0235 21.9999 14.3974 21.9872 15.5707 21.9355C16.7396 21.8839 17.5433 21.6949 18.2395 21.4241C19.718 20.8525 20.8869 19.6835 21.4586 18.2052C21.7292 17.5046 21.9184 16.7052 21.9699 15.5362C22.0215 14.3629 22.0344 13.9891 22.0344 11.0021C22.0344 8.01524 22.03 7.64137 21.9785 6.46806ZM19.9973 15.4503C19.95 16.5247 19.7695 17.1049 19.6191 17.4917C19.2494 18.4501 18.4888 19.2108 17.5303 19.5805C17.1436 19.7309 16.5592 19.9113 15.4889 19.9585C14.3286 20.0102 13.9805 20.023 11.0452 20.023C8.10979 20.023 7.75741 20.0102 6.60123 19.9585C5.5268 19.9113 4.94661 19.7309 4.55981 19.5805C4.08287 19.4042 3.64873 19.1248 3.29635 18.7595C2.93105 18.4028 2.65169 17.973 2.47542 17.4961C2.325 17.1093 2.14453 16.5247 2.09736 15.4546C2.04565 14.2943 2.03289 13.9461 2.03289 11.0107C2.03289 8.07534 2.04565 7.72296 2.09736 6.56694C2.14453 5.49251 2.325 4.91232 2.47542 4.52553C2.65169 4.04841 2.93105 3.61444 3.30072 3.2619C3.65729 2.89659 4.08706 2.61724 4.56418 2.44114C4.95097 2.29072 5.53553 2.11024 6.60559 2.0629C7.76598 2.01136 8.11416 1.99844 11.0494 1.99844C13.9891 1.99844 14.3371 2.01136 15.4933 2.0629C16.5677 2.11024 17.1479 2.29072 17.5347 2.44114C18.0117 2.61724 18.4458 2.89659 18.7982 3.2619C19.1635 3.61864 19.4428 4.04841 19.6191 4.52553C19.7695 4.91232 19.95 5.49671 19.9973 6.56694C20.0489 7.72732 20.0618 8.07534 20.0618 11.0107C20.0618 13.9461 20.0489 14.2899 19.9973 15.4503Z" fill="white"/>
<path d="M11.0408 5.35059C7.92075 5.35059 5.3893 7.88187 5.3893 11.0021C5.3893 14.1223 7.92075 16.6536 11.0408 16.6536C14.161 16.6536 16.6923 14.1223 16.6923 11.0021C16.6923 7.88187 14.161 5.35059 11.0408 5.35059ZM11.0408 14.6681C9.01667 14.6681 7.37481 13.0264 7.37481 11.0021C7.37481 8.97779 9.01667 7.3361 11.0408 7.3361C13.0651 7.3361 14.7068 8.97779 14.7068 11.0021C14.7068 13.0264 13.0651 14.6681 11.0408 14.6681Z" fill="white"/>
<path d="M18.2353 5.12723C18.2353 5.85582 17.6445 6.44659 16.9157 6.44659C16.1871 6.44659 15.5964 5.85582 15.5964 5.12723C15.5964 4.39846 16.1871 3.80786 16.9157 3.80786C17.6445 3.80786 18.2353 4.39846 18.2353 5.12723Z" fill="white"/>
</g>
<defs>
<clipPath id="clip0_801_584">
<rect width="22" height="22" fill="white"/>
</clipPath>
</defs>
</svg>
